{"glyphs":{"0":{"ha":632,"x_min":74,"x_max":578,"o":"m 256 -15 q 153 22 193 -15 q 93 119 113 58 q 74 250 74 179 q 101 458 74 365 q 177 616 129 551 q 285 710 225 681 q 331 726 308 721 q 376 732 354 732 q 440 722 419 732 q 479 697 461 713 q 498 683 489 692 q 517 667 507 675 q 535 651 525 658 q 556 636 546 643 q 560 626 558 632 q 561 611 561 619 q 539 585 561 593 q 578 444 578 540 q 560 310 578 382 q 507 173 542 239 q 422 58 472 107 q 256 -15 350 -15 m 260 38 q 354 70 311 38 q 430 156 397 103 q 482 272 463 210 q 510 426 510 371 q 488 540 510 486 q 485 549 486 544 q 485 561 485 554 q 503 589 485 574 q 492 599 497 593 q 479 610 486 604 q 378 665 422 665 q 240 600 296 665 q 160 439 183 535 q 136 257 136 340 q 156 127 136 172 q 197 60 175 82 q 260 38 219 38 z "},"1":{"ha":539,"x_min":-28,"x_max":488,"o":"m -3 -14 q -28 11 -28 -14 q -11 49 -28 49 q 121 53 82 49 q 156 56 140 54 q 182 57 171 57 q 202 227 193 158 q 218 331 211 296 q 235 399 226 365 q 254 467 244 433 q 113 299 194 376 q 89 290 100 290 q 64 315 64 290 q 72 339 64 326 q 131 400 108 375 q 164 438 154 425 q 203 490 183 465 q 240 551 222 515 q 277 623 260 589 q 311 679 294 657 q 346 703 331 703 q 364 681 364 703 l 364 674 q 363 671 364 672 q 363 667 363 669 l 358 653 l 360 653 l 357 649 q 244 60 269 317 q 304 62 275 61 q 360 63 333 63 l 418 63 q 426 63 421 63 q 438 61 431 63 q 451 60 444 61 q 464 60 457 60 q 488 32 488 53 q 463 -3 488 10 q 446 -7 454 -7 l 350 0 l 21 -6 q -3 -14 7 -14 z "},"2":{"ha":700,"x_min":-29,"x_max":631,"o":"m 79 -12 q 3 17 36 -12 q -29 89 -29 46 q 5 165 -29 135 q 90 194 39 194 q 167 185 126 194 q 238 154 207 176 q 486 538 486 401 q 347 643 486 643 q 249 624 296 643 q 174 576 203 606 q 146 513 146 547 q 129 492 140 500 q 108 485 118 485 q 83 510 83 485 q 111 586 83 550 q 181 649 139 622 q 271 692 224 676 q 356 707 318 707 q 549 543 549 707 q 293 124 549 379 q 392 72 353 89 q 474 56 431 56 q 523 76 507 56 q 546 128 539 97 q 559 190 553 158 q 579 243 565 221 q 607 258 588 258 q 631 233 625 258 q 597 82 622 128 q 476 -8 547 -8 q 361 24 417 -8 q 253 83 306 56 q 224 52 247 75 q 165 8 201 29 q 79 -12 128 -12 m 83 54 q 194 111 133 54 q 106 135 136 135 q 51 121 71 135 q 32 89 32 107 q 83 54 32 54 z "},"3":{"ha":631,"x_min":-293,"x_max":589,"o":"m 113 -571 q -52 -538 26 -571 q -189 -455 -131 -506 q -274 -349 -247 -404 q -293 -271 -293 -303 q -239 -132 -293 -132 q -215 -156 -222 -132 q -218 -178 -217 -167 q -221 -201 -219 -190 q -225 -257 -225 -224 q -171 -385 -225 -325 q -35 -476 -117 -444 q 139 -507 44 -507 q 305 -472 231 -507 q 428 -376 379 -436 q 522 -83 522 -258 q 489 53 522 -12 q 401 162 456 119 q 283 204 347 204 l 275 204 q 142 154 204 163 q 114 178 114 157 q 153 223 114 200 q 240 256 193 246 l 285 283 q 348 329 314 300 q 413 393 382 358 q 463 462 443 428 q 482 524 482 496 q 461 614 482 579 q 367 649 440 649 q 121 522 229 649 q 93 506 107 506 q 65 531 65 506 q 94 589 65 558 q 169 647 124 619 q 267 691 215 674 q 364 708 319 708 q 465 685 424 708 q 526 627 506 663 q 547 553 547 592 q 513 435 547 494 q 399 299 476 374 q 374 276 386 288 q 347 254 361 265 q 476 190 422 239 q 560 67 531 140 q 589 -92 589 -6 q 538 -334 589 -225 q 381 -507 486 -443 q 113 -571 275 -571 z "},"4":{"ha":693,"x_min":25,"x_max":665,"o":"m 365 -569 q 342 -544 342 -569 q 347 -529 342 -537 q 353 -511 353 -522 q 354 -483 354 -500 q 363 -431 354 -474 q 385 -308 371 -387 q 413 -157 400 -229 q 436 -19 425 -85 q 56 -24 86 -24 q 25 1 25 -24 q 33 26 25 14 q 91 94 64 63 q 143 151 118 125 q 260 281 192 206 q 394 444 328 356 q 464 546 426 489 q 540 674 501 603 q 579 696 554 696 q 600 663 600 696 q 581 628 590 644 q 564 601 571 613 q 575 582 575 594 l 572 556 q 506 43 564 351 q 592 50 560 47 q 632 54 624 53 q 665 33 665 54 q 642 -3 665 13 q 576 -19 619 -19 l 493 -19 q 451 -274 467 -167 q 429 -451 435 -382 q 428 -466 429 -458 q 426 -485 428 -474 q 365 -569 417 -569 m 193 38 l 272 38 q 372 38 329 38 q 446 40 415 39 q 484 297 467 176 q 515 525 501 418 q 419 390 472 458 q 301 250 365 321 q 192 126 238 179 q 117 39 146 74 q 156 38 136 38 q 193 38 175 38 z "},"5":{"ha":906,"x_min":-6,"x_max":922,"o":"m 415 -574 q 259 -550 335 -574 q 124 -481 183 -526 q 29 -368 64 -435 q -6 -217 -6 -301 q 33 -146 -6 -146 q 57 -161 49 -146 l 57 -181 q 103 -358 57 -285 q 231 -469 150 -431 q 414 -507 313 -507 q 760 -314 672 -507 q 790 -165 790 -244 q 748 3 790 -69 q 634 116 706 75 q 474 157 563 157 q 369 149 414 157 q 281 119 324 140 q 181 61 238 99 q 156 53 168 53 q 131 78 131 53 q 131 86 131 83 q 133 92 132 89 q 253 277 206 193 q 326 451 301 361 q 350 658 350 542 q 368 683 354 675 q 399 700 381 700 q 425 690 413 700 q 434 681 429 686 q 444 672 439 676 q 678 643 503 643 q 865 697 786 643 q 899 713 889 713 q 922 688 922 713 q 901 651 922 669 q 847 619 879 633 q 785 595 815 604 q 736 585 754 586 q 704 583 718 583 q 679 583 690 583 q 413 611 483 583 q 267 182 403 389 q 485 218 346 218 q 622 192 556 218 q 742 116 689 165 q 828 -1 796 67 q 860 -154 860 -69 q 810 -362 860 -267 q 660 -516 760 -458 q 415 -574 561 -574 z "},"6":{"ha":764,"x_min":65,"x_max":808,"o":"m 296 -14 q 126 76 186 -14 q 65 313 65 165 q 74 440 65 364 q 101 606 83 517 q 142 788 118 696 q 193 960 165 879 q 283 1157 231 1069 q 401 1296 336 1244 q 540 1347 467 1347 q 711 1300 649 1347 q 753 1251 731 1283 q 792 1187 776 1218 q 808 1142 808 1156 q 768 1104 808 1104 q 743 1114 747 1104 q 690 1224 715 1188 q 635 1272 665 1260 q 560 1285 604 1285 q 451 1253 496 1285 q 365 1169 406 1222 q 274 1003 317 1103 q 201 786 232 903 q 153 551 169 669 q 364 719 239 681 q 407 730 385 726 q 451 733 429 733 q 597 654 542 733 q 651 443 651 575 q 611 215 651 319 q 492 49 571 111 q 296 -14 413 -14 m 303 44 q 466 105 401 44 q 560 256 531 165 q 589 426 589 347 q 542 614 589 561 q 418 667 496 667 q 333 643 379 667 q 244 575 288 619 q 172 470 201 531 q 136 336 143 410 l 136 335 q 221 69 136 139 q 303 44 253 44 z "},"7":{"ha":658,"x_min":29,"x_max":600,"o":"m 82 -582 q 53 -562 58 -578 l 50 -547 q 72 -500 50 -507 q 165 -257 108 -433 q 214 -107 193 -171 q 249 -1 235 -43 l 213 -1 q 74 3 131 -1 q 65 1 69 1 q 58 0 61 0 q 35 25 35 0 q 51 57 35 47 l 181 57 l 269 56 q 499 574 374 354 q 505 584 501 578 q 513 596 508 590 q 522 610 518 603 q 528 625 525 617 l 176 631 q 158 628 171 631 q 129 621 146 626 q 99 613 111 615 q 79 610 86 610 q 29 657 29 610 q 53 690 29 682 q 129 699 76 699 l 556 694 q 600 635 600 694 q 574 563 600 603 q 459 350 518 478 q 338 53 400 222 l 519 53 q 543 28 543 53 q 531 1 543 14 q 500 -11 518 -11 q 401 -2 446 -4 q 322 0 357 0 l 318 0 q 266 -144 293 -67 q 210 -310 239 -221 q 164 -451 182 -399 q 139 -518 146 -503 q 82 -582 115 -576 z "},"8":{"ha":690,"x_min":31,"x_max":653,"o":"m 319 -28 q 183 10 249 -28 q 74 115 117 47 q 31 276 31 183 q 236 638 31 449 q 295 693 265 665 q 356 749 325 721 q 292 840 324 785 q 239 953 260 894 q 218 1054 218 1011 q 286 1264 218 1186 q 471 1342 354 1342 q 553 1317 519 1342 q 610 1253 588 1292 q 642 1174 632 1215 q 653 1100 653 1132 q 640 994 653 1035 q 603 919 626 954 q 432 740 564 860 q 459 693 444 718 q 489 640 474 668 q 611 299 611 433 q 576 135 611 210 q 475 17 540 61 q 319 -28 410 -28 m 401 792 l 447 836 q 472 863 458 850 q 497 888 485 875 q 522 912 510 899 q 543 938 533 925 q 592 1063 592 997 q 547 1232 592 1171 q 463 1278 513 1278 q 278 1069 278 1278 q 297 979 278 1032 q 343 878 315 926 q 394 803 371 829 l 401 792 m 308 43 q 424 76 371 43 q 510 166 478 110 q 543 290 543 222 q 493 506 543 393 q 453 583 481 535 q 386 699 426 631 q 335 654 361 676 q 285 608 310 632 q 97 306 97 438 q 156 115 97 188 q 308 43 214 43 z "},"9":{"ha":646,"x_min":-215,"x_max":653,"o":"m 69 -597 q -45 -578 1 -597 q -131 -515 -92 -560 q -214 -394 -169 -471 q -215 -391 -214 -393 q -215 -387 -215 -389 l -215 -381 q -201 -353 -212 -365 q -179 -340 -189 -340 q -168 -344 -171 -340 q -160 -357 -165 -349 q -153 -367 -154 -367 q 13 -535 -82 -518 q 64 -539 38 -539 q 265 -435 176 -539 q 368 -264 325 -365 q 439 -29 411 -162 q 464 126 456 51 q 218 0 347 0 q 134 24 169 0 q 76 85 99 47 q 42 165 53 122 q 31 243 31 207 q 31 263 31 254 q 33 281 32 271 q 131 544 57 446 q 467 694 246 694 q 586 664 533 694 q 603 652 596 658 q 618 639 611 646 q 647 628 640 638 q 653 597 653 618 l 651 544 q 641 473 651 519 q 611 372 631 426 q 564 268 592 318 q 551 208 557 239 q 538 142 544 176 q 521 58 531 107 q 497 -53 511 10 q 290 -512 431 -376 q 69 -597 204 -597 m 238 64 q 442 188 343 64 q 470 224 457 206 q 494 264 483 243 q 510 331 501 290 q 528 428 518 372 q 545 525 538 483 q 561 593 553 567 q 472 628 525 628 q 301 599 375 628 q 171 492 226 571 q 97 276 115 411 q 95 253 96 267 q 94 222 94 240 q 114 142 94 189 q 238 64 149 64 z "},"A":{"ha":975,"x_min":-108,"x_max":881,"o":"m 799 -4 q 774 16 785 -4 q 757 67 764 36 q 742 185 747 118 q 724 353 736 251 q 593 362 653 360 q 474 365 533 364 q 349 367 415 365 q 11 24 169 97 q -72 -3 -42 -3 q -108 32 -108 -3 q -96 63 -108 50 q -71 75 -83 75 q -50 64 -58 75 q 128 182 53 104 q 281 368 203 260 q 194 372 235 371 q 129 379 154 374 q 104 401 104 385 q 117 429 104 417 q 143 443 129 442 q 215 436 171 439 q 324 431 260 433 q 426 594 371 501 q 536 787 481 686 q 640 988 592 888 q 724 1174 689 1088 q 772 1324 758 1261 q 814 1357 786 1357 q 831 1344 824 1357 q 842 1317 839 1332 q 835 1290 844 1301 q 815 1193 825 1256 q 797 1056 806 1131 q 782 908 789 982 q 771 773 775 833 q 767 681 767 713 q 783 413 767 571 q 860 401 840 406 q 881 374 881 396 q 868 349 881 361 q 840 339 856 338 l 793 344 q 797 306 793 340 q 806 226 800 272 q 818 133 813 179 q 828 57 824 88 q 835 29 833 26 l 835 33 q 835 29 835 29 q 822 6 832 15 q 799 -4 811 -4 m 717 419 q 708 526 711 464 q 706 665 706 589 q 735 1043 706 822 q 647 869 693 958 q 553 698 600 781 q 464 546 506 615 q 392 429 422 476 q 497 428 440 429 q 612 426 554 428 q 717 419 669 424 z "},"Á":{"ha":975,"x_min":-108,"x_max":1001,"o":"m 799 -4 q 774 16 785 -4 q 757 67 764 36 q 742 185 747 118 q 724 353 736 251 q 593 362 653 360 q 474 365 533 364 q 349 367 415 365 q 11 24 169 97 q -72 -3 -42 -3 q -108 32 -108 -3 q -96 63 -108 50 q -71 75 -83 75 q -50 64 -58 75 q 128 182 53 104 q 281 368 203 260 q 194 372 235 371 q 129 379 154 374 q 104 401 104 385 q 117 429 104 417 q 143 443 129 442 q 215 436 171 439 q 324 431 260 433 q 426 594 371 501 q 536 787 481 686 q 640 988 592 888 q 724 1174 689 1088 q 772 1324 758 1261 q 814 1357 786 1357 q 831 1344 824 1357 q 842 1317 839 1332 q 835 1290 844 1301 q 815 1193 825 1256 q 797 1056 806 1131 q 782 908 789 982 q 771 773 775 833 q 767 681 767 713 q 783 413 767 571 q 860 401 840 406 q 881 374 881 396 q 868 349 881 361 q 840 339 856 338 l 793 344 q 797 306 793 340 q 806 226 800 272 q 818 133 813 179 q 828 57 824 88 q 835 29 833 26 l 835 33 q 835 29 835 29 q 822 6 832 15 q 799 -4 811 -4 m 717 419 q 708 526 711 464 q 706 665 706 589 q 735 1043 706 822 q 647 869 693 958 q 553 698 600 781 q 464 546 506 615 q 392 429 422 476 q 497 428 440 429 q 612 426 554 428 q 717 419 669 424 m 833 1433 q 801 1465 801 1433 q 817 1496 801 1474 q 849 1547 832 1515 q 881 1610 865 1578 q 897 1642 889 1625 q 911 1674 904 1658 q 927 1705 919 1689 q 942 1736 935 1721 q 976 1757 957 1757 q 1001 1733 1001 1757 q 992 1703 1001 1721 q 980 1680 986 1693 q 965 1651 974 1667 q 925 1565 951 1619 q 864 1467 899 1511 q 852 1443 863 1453 q 833 1433 842 1433 z "},"Ă":{"ha":975,"x_min":-108,"x_max":1103,"o":"m 799 -4 q 774 16 785 -4 q 757 67 764 36 q 742 185 747 118 q 724 353 736 251 q 593 362 653 360 q 474 365 533 364 q 349 367 415 365 q 11 24 169 97 q -72 -3 -42 -3 q -108 32 -108 -3 q -96 63 -108 50 q -71 75 -83 75 q -50 64 -58 75 q 128 182 53 104 q 281 368 203 260 q 194 372 235 371 q 129 379 154 374 q 104 401 104 385 q 117 429 104 417 q 143 443 129 442 q 215 436 171 439 q 324 431 260 433 q 426 594 371 501 q 536 787 481 686 q 640 988 592 888 q 724 1174 689 1088 q 772 1324 758 1261 q 814 1357 786 1357 q 831 1344 824 1357 q 842 1317 839 1332 q 835 1290 844 1301 q 815 1193 825 1256 q 797 1056 806 1131 q 782 908 789 982 q 771 773 775 833 q 767 681 767 713 q 783 413 767 571 q 860 401 840 406 q 881 374 881 396 q 868 349 881 361 q 840 339 856 338 l 793 344 q 797 306 793 340 q 806 226 800 272 q 818 133 813 179 q 828 57 824 88 q 835 29 833 26 l 835 33 q 835 29 835 29 q 822 6 832 15 q 799 -4 811 -4 m 717 419 q 708 526 711 464 q 706 665 706 589 q 735 1043 706 822 q 647 869 693 958 q 553 698 600 781 q 464 546 506 615 q 392 429 422 476 q 497 428 440 429 q 612 426 554 428 q 717 419 669 424 m 857 1440 q 756 1496 792 1440 q 719 1638 719 1551 q 730 1668 719 1656 q 751 1681 740 1681 q 768 1667 763 1681 q 772 1641 769 1660 q 779 1592 775 1622 q 849 1503 790 1503 q 967 1553 918 1503 q 1063 1682 1017 1604 q 1085 1693 1072 1693 q 1103 1669 1103 1693 q 1099 1650 1103 1657 q 984 1499 1046 1558 q 857 1440 922 1440 z "},"Ắ":{"ha":975,"x_min":-108,"x_max":1103,"o":"m 799 -4 q 774 16 785 -4 q 757 67 764 36 q 742 185 747 118 q 724 353 736 251 q 593 362 653 360 q 474 365 533 364 q 349 367 415 365 q 11 24 169 97 q -72 -3 -42 -3 q -108 32 -108 -3 q -96 63 -108 50 q -71 75 -83 75 q -50 64 -58 75 q 128 182 53 104 q 281 368 203 260 q 194 372 235 371 q 129 379 154 374 q 104 401 104 385 q 117 429 104 417 q 143 443 129 442 q 215 436 171 439 q 324 431 260 433 q 426 594 371 501 q 536 787 481 686 q 640 988 592 888 q 724 1174 689 1088 q 772 1324 758 1261 q 814 1357 786 1357 q 831 1344 824 1357 q 842 1317 839 1332 q 835 1290 844 1301 q 815 1193 825 1256 q 797 1056 806 1131 q 782 908 789 982 q 771 773 775 833 q 767 681 767 713 q 783 413 767 571 q 860 401 840 406 q 881 374 881 396 q 868 349 881 361 q 840 339 856 338 l 793 344 q 797 306 793 340 q 806 226 800 272 q 818 133 813 179 q 828 57 824 88 q 835 29 833 26 l 835 33 q 835 29 835 29 q 822 6 832 15 q 799 -4 811 -4 m 717 419 q 708 526 711 464 q 706 665 706 589 q 735 1043 706 822 q 647 869 693 958 q 553 698 600 781 q 464 546 506 615 q 392 429 422 476 q 497 428 440 429 q 612 426 554 428 q 717 419 669 424 m 857 1440 q 756 1496 792 1440 q 719 1638 719 1551 q 730 1668 719 1656 q 751 1681 740 1681 q 768 1667 763 1681 q 772 1641 769 1660 q 779 1592 775 1622 q 849 1503 790 1503 q 967 1553 918 1503 q 1063 1682 1017 1604 q 1085 1693 1072 1693 q 1103 1669 1103 1693 q 1099 1650 1103 1657 q 984 1499 1046 1558 q 857 1440 922 1440 m 882 1660 q 850 1692 850 1660 q 865 1722 850 1700 q 897 1773 881 1742 q 929 1836 914 1804 q 945 1868 938 1851 q 960 1900 953 1885 q 976 1931 968 1915 q 990 1963 983 1947 q 1025 1983 1006 1983 q 1050 1960 1050 1983 q 1040 1929 1050 1947 q 1028 1906 1035 1919 q 1014 1878 1022 1893 q 974 1792 1000 1846 q 913 1693 947 1738 q 901 1669 911 1679 q 882 1660 890 1660 z "},"Ặ":{"ha":975,"x_min":-108,"x_max":1103,"o":"m 799 -4 q 774 16 785 -4 q 757 67 764 36 q 742 185 747 118 q 724 353 736 251 q 593 362 653 360 q 474 365 533 364 q 349 367 415 365 q 11 24 169 97 q -72 -3 -42 -3 q -108 32 -108 -3 q -96 63 -108 50 q -71 75 -83 75 q -50 64 -58 75 q 128 182 53 104 q 281 368 203 260 q 194 372 235 371 q 129 379 154 374 q 104 401 104 385 q 117 429 104 417 q 143 443 129 442 q 215 436 171 439 q 324 431 260 433 q 426 594 371 501 q 536 787 481 686 q 640 988 592 888 q 724 1174 689 1088 q 772 1324 758 1261 q 814 1357 786 1357 q 831 1344 824 1357 q 842 1317 839 1332 q 835 1290 844 1301 q 815 1193 825 1256 q 797 1056 806 1131 q 782 908 789 982 q 771 773 775 833 q 767 681 767 713 q 783 413 767 571 q 860 401 840 406 q 881 374 881 396 q 868 349 881 361 q 840 339 856 338 l 793 344 q 797 306 793 340 q 806 226 800 272 q 818 133 813 179 q 828 57 824 88 q 835 29 833 26 l 835 33 q 835 29 835 29 q 822 6 832 15 q 799 -4 811 -4 m 717 419 q 708 526 711 464 q 706 665 706 589 q 735 1043 706 822 q 647 869 693 958 q 553 698 600 781 q 464 546 506 615 q 392 429 422 476 q 497 428 440 429 q 612 426 554 428 q 717 419 669 424 m 432 -217 q 399 -211 410 -217 l 393 -211 q 353 -164 353 -211 q 373 -121 353 -140 q 417 -101 393 -101 q 461 -118 440 -101 q 485 -164 485 -142 q 468 -201 485 -186 q 432 -217 451 -217 m 857 1440 q 756 1496 792 1440 q 719 1638 719 1551 q 730 1668 719 1656 q 751 1681 740 1681 q 768 1667 763 1681 q 772 1641 769 1660 q 779 1592 775 1622 q 849 1503 790 1503 q 967 1553 918 1503 q 1063 1682 1017 1604 q 1085 1693 1072 1693 q 1103 1669 1103 1693 q 1099 1650 1103 1657 q 984 1499 1046 1558 q 857 1440 922 1440 z "},"Ằ":{"ha":975,"x_min":-108,"x_max":1103,"o":"m 799 -4 q 774 16 785 -4 q 757 67 764 36 q 742 185 747 118 q 724 353 736 251 q 593 362 653 360 q 474 365 533 364 q 349 367 415 365 q 11 24 169 97 q -72 -3 -42 -3 q -108 32 -108 -3 q -96 63 -108 50 q -71 75 -83 75 q -50 64 -58 75 q 128 182 53 104 q 281 368 203 260 q 194 372 235 371 q 129 379 154 374 q 104 401 104 385 q 117 429 104 417 q 143 443 129 442 q 215 436 171 439 q 324 431 260 433 q 426 594 371 501 q 536 787 481 686 q 640 988 592 888 q 724 1174 689 1088 q 772 1324 758 1261 q 814 1357 786 1357 q 831 1344 824 1357 q 842 1317 839 1332 q 835 1290 844 1301 q 815 1193 825 1256 q 797 1056 806 1131 q 782 908 789 982 q 771 773 775 833 q 767 681 767 713 q 783 413 767 571 q 860 401 840 406 q 881 374 881 396 q 868 349 881 361 q 840 339 856 338 l 793 344 q 797 306 793 340 q 806 226 800 272 q 818 133 813 179 q 828 57 824 88 q 835 29 833 26 l 835 33 q 835 29 835 29 q 822 6 832 15 q 799 -4 811 -4 m 717 419 q 708 526 711 464 q 706 665 706 589 q 735 1043 706 822 q 647 869 693 958 q 553 698 600 781 q 464 546 506 615 q 392 429 422 476 q 497 428 440 429 q 612 426 554 428 q 717 419 669 424 m 857 1440 q 756 1496 792 1440 q 719 1638 719 1551 q 730 1668 719 1656 q 751 1681 740 1681 q 768 1667 763 1681 q 772 1641 769 1660 q 779 1592 775 1622 q 849 1503 790 1503 q 967 1553 918 1503 q 1063 1682 1017 1604 q 1085 1693 1072 1693 q 1103 1669 1103 1693 q 1099 1650 1103 1657 q 984 1499 1046 1558 q 857 1440 922 1440 m 957 1660 q 933 1669 943 1660 q 852 1789 878 1743 q 813 1882 826 1835 q 824 1913 813 1900 q 849 1925 836 1925 q 876 1901 869 1925 q 910 1824 888 1863 q 986 1717 932 1786 q 990 1708 989 1713 q 992 1697 992 1704 q 981 1672 992 1683 q 957 1660 969 1660 z "},"Ẳ":{"ha":975,"x_min":-108,"x_max":1092,"o":"m 799 -4 q 774 16 785 -4 q 757 67 764 36 q 742 185 747 118 q 724 353 736 251 q 593 362 653 360 q 474 365 533 364 q 349 367 415 365 q 11 24 169 97 q -72 -3 -42 -3 q -108 32 -108 -3 q -96 63 -108 50 q -71 75 -83 75 q -50 64 -58 75 q 128 182 53 104 q 281 368 203 260 q 194 372 235 371 q 129 379 154 374 q 104 401 104 385 q 117 429 104 417 q 143 443 129 442 q 215 436 171 439 q 324 431 260 433 q 426 594 371 501 q 536 787 481 686 q 640 988 592 888 q 724 1174 689 1088 q 772 1324 758 1261 q 814 1357 786 1357 q 831 1344 824 1357 q 842 1317 839 1332 q 835 1290 844 1301 q 815 1193 825 1256 q 797 1056 806 1131 q 782 908 789 982 q 771 773 775 833 q 767 681 767 713 q 783 413 767 571 q 860 401 840 406 q 881 374 881 396 q 868 349 881 361 q 840 339 856 338 l 793 344 q 797 306 793 340 q 806 226 800 272 q 818 133 813 179 q 828 57 824 88 q 835 29 833 26 l 835 33 q 835 29 835 29 q 822 6 832 15 q 799 -4 811 -4 m 717 419 q 708 526 711 464 q 706 665 706 589 q 735 1043 706 822 q 647 869 693 958 q 553 698 600 781 q 464 546 506 615 q 392 429 422 476 q 497 428 440 429 q 612 426 554 428 q 717 419 669 424 m 846 1440 q 744 1496 781 1440 q 708 1638 708 1551 q 719 1668 708 1656 q 740 1681 729 1681 q 757 1667 751 1681 q 761 1641 758 1660 q 768 1592 764 1622 q 838 1503 779 1503 q 956 1553 907 1503 q 1051 1682 1006 1604 q 1074 1693 1061 1693 q 1092 1669 1092 1693 q 1088 1650 1092 1657 q 973 1499 1035 1558 q 846 1440 911 1440 m 865 1671 q 874 1745 856 1719 q 931 1796 892 1771 q 969 1828 954 1811 q 985 1883 985 1844 q 977 1928 985 1911 q 938 1944 969 1944 q 894 1933 908 1944 q 871 1911 879 1922 q 853 1900 863 1900 q 828 1929 828 1903 q 863 1981 828 1961 q 931 2001 897 2001 q 1022 1972 997 2001 q 1046 1886 1046 1943 q 1028 1818 1046 1847 q 969 1756 1010 1789 q 922 1718 939 1729 q 910 1676 906 1707 q 906 1653 913 1661 q 892 1646 900 1646 q 875 1651 882 1646 q 865 1671 868 1657 z "},"Ẵ":{"ha":975,"x_min":-108,"x_max":1083,"o":"m 799 -4 q 774 16 785 -4 q 757 67 764 36 q 742 185 747 118 q 724 353 736 251 q 593 362 653 360 q 474 365 533 364 q 349 367 415 365 q 11 24 169 97 q -72 -3 -42 -3 q -108 32 -108 -3 q -96 63 -108 50 q -71 75 -83 75 q -50 64 -58 75 q 128 182 53 104 q 281 368 203 260 q 194 372 235 371 q 129 379 154 374 q 104 401 104 385 q 117 429 104 417 q 143 443 129 442 q 215 436 171 439 q 324 431 260 433 q 426 594 371 501 q 536 787 481 686 q 640 988 592 888 q 724 1174 689 1088 q 772 1324 758 1261 q 814 1357 786 1357 q 831 1344 824 1357 q 842 1317 839 1332 q 835 1290 844 1301 q 815 1193 825 1256 q 797 1056 806 1131 q 782 908 789 982 q 771 773 775 833 q 767 681 767 713 q 783 413 767 571 q 860 401 840 406 q 881 374 881 396 q 868 349 881 361 q 840 339 856 338 l 793 344 q 797 306 793 340 q 806 226 800 272 q 818 133 813 179 q 828 57 824 88 q 835 29 833 26 l 835 33 q 835 29 835 29 q 822 6 832 15 q 799 -4 811 -4 m 717 419 q 708 526 711 464 q 706 665 706 589 q 735 1043 706 822 q 647 869 693 958 q 553 698 600 781 q 464 546 506 615 q 392 429 422 476 q 497 428 440 429 q 612 426 554 428 q 717 419 669 424 m 821 1440 q 719 1496 756 1440 q 683 1638 683 1551 q 694 1668 683 1656 q 715 1681 704 1681 q 732 1667 726 1681 q 736 1641 733 1660 q 743 1592 739 1622 q 813 1503 754 1503 q 931 1553 882 1503 q 1026 1682 981 1604 q 1049 1693 1036 1693 q 1067 1669 1067 1693 q 1063 1650 1067 1657 q 948 1499 1010 1558 q 821 1440 886 1440 m 975 1731 q 922 1743 944 1731 q 881 1771 900 1756 q 842 1797 861 1785 q 808 1810 824 1810 q 751 1760 775 1810 q 719 1743 739 1743 q 694 1767 694 1743 q 695 1774 694 1771 q 697 1782 696 1778 q 803 1876 746 1876 q 878 1850 832 1876 q 947 1812 922 1824 q 997 1800 971 1800 q 1024 1806 1024 1800 l 1024 1814 l 1017 1851 q 1029 1882 1017 1869 q 1056 1894 1042 1894 q 1083 1829 1083 1894 q 1025 1739 1083 1763 q 975 1731 1004 1731 z "},"Â":{"ha":975,"x_min":-108,"x_max":1013,"o":"m 799 -4 q 774 16 785 -4 q 757 67 764 36 q 742 185 747 118 q 724 353 736 251 q 593 362 653 360 q 474 365 533 364 q 349 367 415 365 q 11 24 169 97 q -72 -3 -42 -3 q -108 32 -108 -3 q -96 63 -108 50 q -71 75 -83 75 q -50 64 -58 75 q 128 182 53 104 q 281 368 203 260 q 194 372 235 371 q 129 379 154 374 q 104 401 104 385 q 117 429 104 417 q 143 443 129 442 q 215 436 171 439 q 324 431 260 433 q 426 594 371 501 q 536 787 481 686 q 640 988 592 888 q 724 1174 689 1088 q 772 1324 758 1261 q 814 1357 786 1357 q 831 1344 824 1357 q 842 1317 839 1332 q 835 1290 844 1301 q 815 1193 825 1256 q 797 1056 806 1131 q 782 908 789 982 q 771 773 775 833 q 767 681 767 713 q 783 413 767 571 q 860 401 840 406 q 881 374 881 396 q 868 349 881 361 q 840 339 856 338 l 793 344 q 797 306 793 340 q 806 226 800 272 q 818 133 813 179 q 828 57 824 88 q 835 29 833 26 l 835 33 q 835 29 835 29 q 822 6 832 15 q 799 -4 811 -4 m 717 419 q 708 526 711 464 q 706 665 706 589 q 735 1043 706 822 q 647 869 693 958 q 553 698 600 781 q 464 546 506 615 q 392 429 422 476 q 497 428 440 429 q 612 426 554 428 q 717 419 669 424 m 974 1438 q 930 1462 954 1438 q 883 1524 906 1486 q 847 1600 861 1561 q 842 1592 844 1596 q 838 1583 840 1588 q 731 1447 819 1544 q 707 1439 718 1439 q 682 1461 682 1439 q 732 1539 682 1485 q 772 1588 756 1567 q 796 1624 789 1610 q 833 1682 811 1651 q 879 1713 854 1713 q 904 1686 904 1713 l 903 1669 q 918 1613 903 1649 q 958 1544 933 1578 q 1007 1493 982 1511 q 1013 1472 1013 1483 q 1001 1448 1013 1458 q 974 1438 989 1438 z "},"Ấ":{"ha":975,"x_min":-108,"x_max":1126,"o":"m 799 -4 q 774 16 785 -4 q 757 67 764 36 q 742 185 747 118 q 724 353 736 251 q 593 362 653 360 q 474 365 533 364 q 349 367 415 365 q 11 24 169 97 q -72 -3 -42 -3 q -108 32 -108 -3 q -96 63 -108 50 q -71 75 -83 75 q -50 64 -58 75 q 128 182 53 104 q 281 368 203 260 q 194 372 235 371 q 129 379 154 374 q 104 401 104 385 q 117 429 104 417 q 143 443 129 442 q 215 436 171 439 q 324 431 260 433 q 426 594 371 501 q 536 787 481 686 q 640 988 592 888 q 724 1174 689 1088 q 772 1324 758 1261 q 814 1357 786 1357 q 831 1344 824 1357 q 842 1317 839 1332 q 835 1290 844 1301 q 815 1193 825 1256 q 797 1056 806 1131 q 782 908 789 982 q 771 773 775 833 q 767 681 767 713 q 783 413 767 571 q 860 401 840 406 q 881 374 881 396 q 868 349 881 361 q 840 339 856 338 l 793 344 q 797 306 793 340 q 806 226 800 272 q 818 133 813 179 q 828 57 824 88 q 835 29 833 26 l 835 33 q 835 29 835 29 q 822 6 832 15 q 799 -4 811 -4 m 717 419 q 708 526 711 464 q 706 665 706 589 q 735 1043 706 822 q 647 869 693 958 q 553 698 600 781 q 464 546 506 615 q 392 429 422 476 q 497 428 440 429 q 612 426 554 428 q 717 419 669 424 m 994 1586 q 964 1618 964 1586 q 979 1649 964 1626 q 1024 1723 999 1676 q 1067 1807 1049 1769 q 1101 1828 1082 1828 q 1126 1804 1126 1828 q 1117 1774 1126 1796 q 1096 1736 1106 1757 q 1072 1688 1086 1715 q 1026 1619 1057 1660 q 1015 1596 1025 1606 q 994 1586 1004 1586 m 974 1438 q 930 1462 954 1438 q 883 1524 906 1486 q 847 1600 861 1561 q 842 1592 844 1596 q 838 1583 840 1588 q 731 1447 819 1544 q 707 1439 718 1439 q 682 1461 682 1439 q 732 1539 682 1485 q 772 1588 756 1567 q 796 1624 789 1610 q 833 1682 811 1651 q 879 1713 854 1713 q 904 1686 904 1713 l 903 1669 q 918 1613 903 1649 q 958 1544 933 1578 q 1007 1493 982 1511 q 1013 1472 1013 1483 q 1001 1448 1013 1458 q 974 1438 989 1438 z "},"Ậ":{"ha":975,"x_min":-108,"x_max":1013,"o":"m 799 -4 q 774 16 785 -4 q 757 67 764 36 q 742 185 747 118 q 724 353 736 251 q 593 362 653 360 q 474 365 533 364 q 349 367 415 365 q 11 24 169 97 q -72 -3 -42 -3 q -108 32 -108 -3 q -96 63 -108 50 q -71 75 -83 75 q -50 64 -58 75 q 128 182 53 104 q 281 368 203 260 q 194 372 235 371 q 129 379 154 374 q 104 401 104 385 q 117 429 104 417 q 143 443 129 442 q 215 436 171 439 q 324 431 260 433 q 426 594 371 501 q 536 787 481 686 q 640 988 592 888 q 724 1174 689 1088 q 772 1324 758 1261 q 814 1357 786 1357 q 831 1344 824 1357 q 842 1317 839 1332 q 835 1290 844 1301 q 815 1193 825 1256 q 797 1056 806 1131 q 782 908 789 982 q 771 773 775 833 q 767 681 767 713 q 783 413 767 571 q 860 401 840 406 q 881 374 881 396 q 868 349 881 361 q 840 339 856 338 l 793 344 q 797 306 793 340 q 806 226 800 272 q 818 133 813 179 q 828 57 824 88 q 835 29 833 26 l 835 33 q 835 29 835 29 q 822 6 832 15 q 799 -4 811 -4 m 717 419 q 708 526 711 464 q 706 665 706 589 q 735 1043 706 822 q 647 869 693 958 q 553 698 600 781 q 464 546 506 615 q 392 429 422 476 q 497 428 440 429 q 612 426 554 428 q 717 419 669 424 m 432 -217 q 399 -211 410 -217 l 393 -211 q 353 -164 353 -211 q 373 -121 353 -140 q 417 -101 393 -101 q 461 -118 440 -101 q 485 -164 485 -142 q 468 -201 485 -186 q 432 -217 451 -217 m 974 1438 q 930 1462 954 1438 q 883 1524 906 1486 q 847 1600 861 1561 q 842 1592 844 1596 q 838 1583 840 1588 q 731 1447 819 1544 q 707 1439 718 1439 q 682 1461 682 1439 q 732 1539 682 1485 q 772 1588 756 1567 q 796 1624 789 1610 q 833 1682 811 1651 q 879 1713 854 1713 q 904 1686 904 1713 l 903 1669 q 918 1613 903 1649 q 958 1544 933 1578 q 1007 1493 982 1511 q 1013 1472 1013 1483 q 1001 1448 1013 1458 q 974 1438 989 1438 z "},"Ầ":{"ha":975,"x_min":-108,"x_max":1013,"o":"m 799 -4 q 774 16 785 -4 q 757 67 764 36 q 742 185 747 118 q 724 353 736 251 q 593 362 653 360 q 474 365 533 364 q 349 367 415 365 q 11 24 169 97 q -72 -3 -42 -3 q -108 32 -108 -3 q -96 63 -108 50 q -71 75 -83 75 q -50 64 -58 75 q 128 182 53 104 q 281 368 203 260 q 194 372 235 371 q 129 379 154 374 q 104 401 104 385 q 117 429 104 417 q 143 443 129 442 q 215 436 171 439 q 324 431 260 433 q 426 594 371 501 q 536 787 481 686 q 640 988 592 888 q 724 1174 689 1088 q 772 1324 758 1261 q 814 1357 786 1357 q 831 1344 824 1357 q 842 1317 839 1332 q 835 1290 844 1301 q 815 1193 825 1256 q 797 1056 806 1131 q 782 908 789 982 q 771 773 775 833 q 767 681 767 713 q 783 413 767 571 q 860 401 840 406 q 881 374 881 396 q 868 349 881 361 q 840 339 856 338 l 793 344 q 797 306 793 340 q 806 226 800 272 q 818 133 813 179 q 828 57 824 88 q 835 29 833 26 l 835 33 q 835 29 835 29 q 822 6 832 15 q 799 -4 811 -4 m 717 419 q 708 526 711 464 q 706 665 706 589 q 735 1043 706 822 q 647 869 693 958 q 553 698 600 781 q 464 546 506 615 q 392 429 422 476 q 497 428 440 429 q 612 426 554 428 q 717 419 669 424 m 711 1575 q 688 1585 697 1575 q 624 1675 644 1638 q 586 1764 603 1713 q 598 1794 586 1782 q 622 1807 610 1807 q 650 1783 642 1807 q 683 1712 664 1743 q 740 1632 701 1681 q 744 1624 743 1628 q 746 1613 746 1619 q 735 1587 746 1599 q 711 1575 724 1575 m 974 1419 q 930 1444 954 1419 q 883 1506 906 1468 q 847 1582 861 1543 q 842 1574 844 1578 q 838 1565 840 1569 q 731 1429 819 1526 q 707 1421 718 1421 q 682 1443 682 1421 q 732 1521 682 1467 q 772 1570 756 1549 q 796 1606 789 1592 q 833 1664 811 1633 q 879 1694 854 1694 q 904 1668 904 1694 l 903 1651 q 918 1595 903 1631 q 958 1526 933 1560 q 1007 1475 982 1493 q 1013 1454 1013 1465 q 1001 1430 1013 1440 q 974 1419 989 1419 z "},"Ẩ":{"ha":975,"x_min":-108,"x_max":1144,"o":"m 799 -4 q 774 16 785 -4 q 757 67 764 36 q 742 185 747 118 q 724 353 736 251 q 593 362 653 360 q 474 365 533 364 q 349 367 415 365 q 11 24 169 97 q -72 -3 -42 -3 q -108 32 -108 -3 q -96 63 -108 50 q -71 75 -83 75 q -50 64 -58 75 q 128 182 53 104 q 281 368 203 260 q 194 372 235 371 q 129 379 154 374 q 104 401 104 385 q 117 429 104 417 q 143 443 129 442 q 215 436 171 439 q 324 431 260 433 q 426 594 371 501 q 536 787 481 686 q 640 988 592 888 q 724 1174 689 1088 q 772 1324 758 1261 q 814 1357 786 1357 q 831 1344 824 1357 q 842 1317 839 1332 q 835 1290 844 1301 q 815 1193 825 1256 q 797 1056 806 1131 q 782 908 789 982 q 771 773 775 833 q 767 681 767 713 q 783 413 767 571 q 860 401 840 406 q 881 374 881 396 q 868 349 881 361 q 840 339 856 338 l 793 344 q 797 306 793 340 q 806 226 800 272 q 818 133 813 179 q 828 57 824 88 q 835 29 833 26 l 835 33 q 835 29 835 29 q 822 6 832 15 q 799 -4 811 -4 m 717 419 q 708 526 711 464 q 706 665 706 589 q 735 1043 706 822 q 647 869 693 958 q 553 698 600 781 q 464 546 506 615 q 392 429 422 476 q 497 428 440 429 q 612 426 554 428 q 717 419 669 424 m 974 1438 q 930 1462 954 1438 q 883 1524 906 1486 q 847 1600 861 1561 q 842 1592 844 1596 q 838 1583 840 1588 q 731 1447 819 1544 q 707 1439 718 1439 q 682 1461 682 1439 q 732 1539 682 1485 q 772 1588 756 1567 q 796 1624 789 1610 q 833 1682 811 1651 q 879 1713 854 1713 q 904 1686 904 1713 l 903 1669 q 918 1613 903 1649 q 958 1544 933 1578 q 1007 1493 982 1511 q 1013 1472 1013 1483 q 1001 1448 1013 1458 q 974 1438 989 1438 m 964 1640 q 972 1715 954 1689 q 1029 1765 990 1740 q 1068 1797 1053 1781 q 1083 1853 1083 1814 q 1076 1897 1083 1881 q 1036 1914 1068 1914 q 992 1903 1007 1914 q 969 1881 978 1892 q 951 1869 961 1869 q 926 1899 926 1872 q 961 1951 926 1931 q 1029 1971 996 1971 q 1120 1942 1096 1971 q 1144 1856 1144 1913 q 1126 1788 1144 1817 q 1068 1725 1108 1758 q 1021 1688 1038 1699 q 1008 1646 1004 1676 q 1005 1623 1011 1631 q 990 1615 999 1615 q 974 1621 981 1615 q 964 1640 967 1626 z "},"Ẫ":{"ha":975,"x_min":-108,"x_max":1049,"o":"m 799 -4 q 774 16 785 -4 q 757 67 764 36 q 742 185 747 118 q 724 353 736 251 q 593 362 653 360 q 474 365 533 364 q 349 367 415 365 q 11 24 169 97 q -72 -3 -42 -3 q -108 32 -108 -3 q -96 63 -108 50 q -71 75 -83 75 q -50 64 -58 75 q 128 182 53 104 q 281 368 203 260 q 194 372 235 371 q 129 379 154 374 q 104 401 104 385 q 117 429 104 417 q 143 443 129 442 q 215 436 171 439 q 324 431 260 433 q 426 594 371 501 q 536 787 481 686 q 640 988 592 888 q 724 1174 689 1088 q 772 1324 758 1261 q 814 1357 786 1357 q 831 1344 824 1357 q 842 1317 839 1332 q 835 1290 844 1301 q 815 1193 825 1256 q 797 1056 806 1131 q 782 908 789 982 q 771 773 775 833 q 767 681 767 713 q 783 413 767 571 q 860 401 840 406 q 881 374 881 396 q 868 349 881 361 q 840 339 856 338 l 793 344 q 797 306 793 340 q 806 226 800 272 q 818 133 813 179 q 828 57 824 88 q 835 29 833 26 l 835 33 q 835 29 835 29 q 822 6 832 15 q 799 -4 811 -4 m 717 419 q 708 526 711 464 q 706 665 706 589 q 735 1043 706 822 q 647 869 693 958 q 553 698 600 781 q 464 546 506 615 q 392 429 422 476 q 497 428 440 429 q 612 426 554 428 q 717 419 669 424 m 951 1749 q 903 1761 924 1749 q 867 1789 883 1774 q 832 1815 849 1803 q 801 1828 815 1828 q 750 1778 771 1828 q 721 1761 739 1761 q 699 1785 699 1761 q 699 1792 699 1789 q 701 1800 700 1796 q 796 1894 744 1894 q 864 1868 822 1894 q 925 1830 903 1842 q 971 1818 947 1818 q 994 1824 994 1818 l 994 1832 l 989 1869 q 1000 1900 989 1888 q 1024 1913 1011 1913 q 1049 1847 1049 1913 q 996 1757 1049 1781 q 951 1749 978 1749 m 974 1438 q 930 1462 954 1438 q 883 1524 906 1486 q 847 1600 861 1561 q 842 1592 844 1596 q 838 1583 840 1588 q 731 1447 819 1544 q 707 1439 718 1439 q 682 1461 682 1439 q 732 1539 682 1485 q 772 1588 756 1567 q 796 1624 789 1610 q 833 1682 811 1651 q 879 1713 854 1713 q 904 1686 904 1713 l 903 1669 q 918 1613 903 1649 q 958 1544 933 1578 q 1007 1493 982 1511 q 1013 1472 1013 1483 q 1001 1448 1013 1458 q 974 1438 989 1438 z "},"Ȁ":{"ha":975,"x_min":-108,"x_max":971,"o":"m 799 -4 q 774 16 785 -4 q 757 67 764 36 q 742 185 747 118 q 724 353 736 251 q 593 362 653 360 q 474 365 533 364 q 349 367 415 365 q 11 24 169 97 q -72 -3 -42 -3 q -108 32 -108 -3 q -96 63 -108 50 q -71 75 -83 75 q -50 64 -58 75 q 128 182 53 104 q 281 368 203 260 q 194 372 235 371 q 129 379 154 374 q 104 401 104 385 q 117 429 104 417 q 143 443 129 442 q 215 436 171 439 q 324 431 260 433 q 426 594 371 501 q 536 787 481 686 q 640 988 592 888 q 724 1174 689 1088 q 772 1324 758 1261 q 814 1357 786 1357 q 831 1344 824 1357 q 842 1317 839 1332 q 835 1290 844 1301 q 815 1193 825 1256 q 797 1056 806 1131 q 782 908 789 982 q 771 773 775 833 q 767 681 767 713 q 783 413 767 571 q 860 401 840 406 q 881 374 881 396 q 868 349 881 361 q 840 339 856 338 l 793 344 q 797 306 793 340 q 806 226 800 272 q 818 133 813 179 q 828 57 824 88 q 835 29 833 26 l 835 33 q 835 29 835 29 q 822 6 832 15 q 799 -4 811 -4 m 717 419 q 708 526 711 464 q 706 665 706 589 q 735 1043 706 822 q 647 869 693 958 q 553 698 600 781 q 464 546 506 615 q 392 429 422 476 q 497 428 440 429 q 612 426 554 428 q 717 419 669 424 m 936 1447 q 913 1457 922 1447 q 831 1576 857 1531 q 792 1669 806 1622 q 803 1700 792 1688 q 828 1713 815 1713 q 856 1689 849 1713 q 889 1612 867 1650 q 965 1504 911 1574 q 969 1496 968 1500 q 971 1485 971 1492 q 960 1459 971 1471 q 936 1447 949 1447 m 797 1447 q 774 1457 783 1447 q 692 1576 718 1531 q 653 1669 667 1622 q 665 1700 653 1688 q 689 1713 676 1713 q 717 1689 710 1713 q 750 1612 728 1650 q 826 1504 772 1574 q 831 1496 829 1500 q 832 1485 832 1492 q 821 1459 832 1471 q 797 1447 810 1447 z "},"Ä":{"ha":975,"x_min":-108,"x_max":1081,"o":"m 799 -4 q 774 16 785 -4 q 757 67 764 36 q 742 185 747 118 q 724 353 736 251 q 593 362 653 360 q 474 365 533 364 q 349 367 415 365 q 11 24 169 97 q -72 -3 -42 -3 q -108 32 -108 -3 q -96 63 -108 50 q -71 75 -83 75 q -50 64 -58 75 q 128 182 53 104 q 281 368 203 260 q 194 372 235 371 q 129 379 154 374 q 104 401 104 385 q 117 429 104 417 q 143 443 129 442 q 215 436 171 439 q 324 431 260 433 q 426 594 371 501 q 536 787 481 686 q 640 988 592 888 q 724 1174 689 1088 q 772 1324 758 1261 q 814 1357 786 1357 q 831 1344 824 1357 q 842 1317 839 1332 q 835 1290 844 1301 q 815 1193 825 1256 q 797 1056 806 1131 q 782 908 789 982 q 771 773 775 833 q 767 681 767 713 q 783 413 767 571 q 860 401 840 406 q 881 374 881 396 q 868 349 881 361 q 840 339 856 338 l 793 344 q 797 306 793 340 q 806 226 800 272 q 818 133 813 179 q 828 57 824 88 q 835 29 833 26 l 835 33 q 835 29 835 29 q 822 6 832 15 q 799 -4 811 -4 m 717 419 q 708 526 711 464 q 706 665 706 589 q 735 1043 706 822 q 647 869 693 958 q 553 698 600 781 q 464 546 506 615 q 392 429 422 476 q 497 428 440 429 q 612 426 554 428 q 717 419 669 424 m 735 1469 q 706 1492 717 1469 q 696 1535 696 1515 q 715 1590 696 1568 q 760 1613 731 1613 q 792 1597 774 1613 l 792 1599 q 814 1551 814 1572 q 799 1518 814 1538 q 766 1484 785 1499 q 735 1469 747 1469 m 1011 1478 q 1006 1478 1010 1478 q 1000 1479 1003 1479 q 967 1525 967 1492 q 993 1583 967 1558 q 1038 1608 1019 1608 q 1081 1565 1081 1608 q 1059 1506 1081 1535 q 1011 1478 1038 1478 z "},"Ạ":{"ha":975,"x_min":-108,"x_max":881,"o":"m 799 -4 q 774 16 785 -4 q 757 67 764 36 q 742 185 747 118 q 724 353 736 251 q 593 362 653 360 q 474 365 533 364 q 349 367 415 365 q 11 24 169 97 q -72 -3 -42 -3 q -108 32 -108 -3 q -96 63 -108 50 q -71 75 -83 75 q -50 64 -58 75 q 128 182 53 104 q 281 368 203 260 q 194 372 235 371 q 129 379 154 374 q 104 401 104 385 q 117 429 104 417 q 143 443 129 442 q 215 436 171 439 q 324 431 260 433 q 426 594 371 501 q 536 787 481 686 q 640 988 592 888 q 724 1174 689 1088 q 772 1324 758 1261 q 814 1357 786 1357 q 831 1344 824 1357 q 842 1317 839 1332 q 835 1290 844 1301 q 815 1193 825 1256 q 797 1056 806 1131 q 782 908 789 982 q 771 773 775 833 q 767 681 767 713 q 783 413 767 571 q 860 401 840 406 q 881 374 881 396 q 868 349 881 361 q 840 339 856 338 l 793 344 q 797 306 793 340 q 806 226 800 272 q 818 133 813 179 q 828 57 824 88 q 835 29 833 26 l 835 33 q 835 29 835 29 q 822 6 832 15 q 799 -4 811 -4 m 717 419 q 708 526 711 464 q 706 665 706 589 q 735 1043 706 822 q 647 869 693 958 q 553 698 600 781 q 464 546 506 615 q 392 429 422 476 q 497 428 440 429 q 612 426 554 428 q 717 419 669 424 m 432 -217 q 399 -211 410 -217 l 393 -211 q 353 -164 353 -211 q 373 -121 353 -140 q 417 -101 393 -101 q 461 -118 440 -101 q 485 -164 485 -142 q 468 -201 485 -186 q 432 -217 451 -217 z "},"À":{"ha":975,"x_min":-108,"x_max":943,"o":"m 799 -4 q 774 16 785 -4 q 757 67 764 36 q 742 185 747 118 q 724 353 736 251 q 593 362 653 360 q 474 365 533 364 q 349 367 415 365 q 11 24 169 97 q -72 -3 -42 -3 q -108 32 -108 -3 q -96 63 -108 50 q -71 75 -83 75 q -50 64 -58 75 q 128 182 53 104 q 281 368 203 260 q 194 372 235 371 q 129 379 154 374 q 104 401 104 385 q 117 429 104 417 q 143 443 129 442 q 215 436 171 439 q 324 431 260 433 q 426 594 371 501 q 536 787 481 686 q 640 988 592 888 q 724 1174 689 1088 q 772 1324 758 1261 q 814 1357 786 1357 q 831 1344 824 1357 q 842 1317 839 1332 q 835 1290 844 1301 q 815 1193 825 1256 q 797 1056 806 1131 q 782 908 789 982 q 771 773 775 833 q 767 681 767 713 q 783 413 767 571 q 860 401 840 406 q 881 374 881 396 q 868 349 881 361 q 840 339 856 338 l 793 344 q 797 306 793 340 q 806 226 800 272 q 818 133 813 179 q 828 57 824 88 q 835 29 833 26 l 835 33 q 835 29 835 29 q 822 6 832 15 q 799 -4 811 -4 m 717 419 q 708 526 711 464 q 706 665 706 589 q 735 1043 706 822 q 647 869 693 958 q 553 698 600 781 q 464 546 506 615 q 392 429 422 476 q 497 428 440 429 q 612 426 554 428 q 717 419 669 424 m 908 1433 q 885 1443 894 1433 q 803 1563 829 1517 q 764 1656 778 1608 q 776 1686 764 1674 q 800 1699 788 1699 q 828 1675 821 1699 q 861 1598 839 1636 q 938 1490 883 1560 q 942 1482 940 1486 q 943 1471 943 1478 q 932 1445 943 1457 q 908 1433 921 1433 z "},"Ả":{"ha":975,"x_min":-108,"x_max":997,"o":"m 799 -4 q 774 16 785 -4 q 757 67 764 36 q 742 185 747 118 q 724 353 736 251 q 593 362 653 360 q 474 365 533 364 q 349 367 415 365 q 11 24 169 97 q -72 -3 -42 -3 q -108 32 -108 -3 q -96 63 -108 50 q -71 75 -83 75 q -50 64 -58 75 q 128 182 53 104 q 281 368 203 260 q 194 372 235 371 q 129 379 154 374 q 104 401 104 385 q 117 429 104 417 q 143 443 129 442 q 215 436 171 439 q 324 431 260 433 q 426 594 371 501 q 536 787 481 686 q 640 988 592 888 q 724 1174 689 1088 q 772 1324 758 1261 q 814 1357 786 1357 q 831 1344 824 1357 q 842 1317 839 1332 q 835 1290 844 1301 q 815 1193 825 1256 q 797 1056 806 1131 q 782 908 789 982 q 771 773 775 833 q 767 681 767 713 q 783 413 767 571 q 860 401 840 406 q 881 374 881 396 q 868 349 881 361 q 840 339 856 338 l 793 344 q 797 306 793 340 q 806 226 800 272 q 818 133 813 179 q 828 57 824 88 q 835 29 833 26 l 835 33 q 835 29 835 29 q 822 6 832 15 q 799 -4 811 -4 m 717 419 q 708 526 711 464 q 706 665 706 589 q 735 1043 706 822 q 647 869 693 958 q 553 698 600 781 q 464 546 506 615 q 392 429 422 476 q 497 428 440 429 q 612 426 554 428 q 717 419 669 424 m 817 1447 q 825 1522 807 1496 q 882 1572 843 1547 q 921 1604 906 1588 q 936 1660 936 1621 q 928 1704 936 1688 q 889 1721 921 1721 q 845 1710 860 1721 q 822 1688 831 1699 q 804 1676 814 1676 q 779 1706 779 1679 q 814 1758 779 1738 q 882 1778 849 1778 q 973 1749 949 1778 q 997 1663 997 1719 q 979 1594 997 1624 q 921 1532 961 1565 q 874 1494 890 1506 q 861 1453 857 1483 q 858 1430 864 1438 q 843 1422 851 1422 q 826 1428 833 1422 q 817 1447 819 1433 z "},"Ȃ":{"ha":975,"x_min":-108,"x_max":1072,"o":"m 799 -4 q 774 16 785 -4 q 757 67 764 36 q 742 185 747 118 q 724 353 736 251 q 593 362 653 360 q 474 365 533 364 q 349 367 415 365 q 11 24 169 97 q -72 -3 -42 -3 q -108 32 -108 -3 q -96 63 -108 50 q -71 75 -83 75 q -50 64 -58 75 q 128 182 53 104 q 281 368 203 260 q 194 372 235 371 q 129 379 154 374 q 104 401 104 385 q 117 429 104 417 q 143 443 129 442 q 215 436 171 439 q 324 431 260 433 q 426 594 371 501 q 536 787 481 686 q 640 988 592 888 q 724 1174 689 1088 q 772 1324 758 1261 q 814 1357 786 1357 q 831 1344 824 1357 q 842 1317 839 1332 q 835 1290 844 1301 q 815 1193 825 1256 q 797 1056 806 1131 q 782 908 789 982 q 771 773 775 833 q 767 681 767 713 q 783 413 767 571 q 860 401 840 406 q 881 374 881 396 q 868 349 881 361 q 840 339 856 338 l 793 344 q 797 306 793 340 q 806 226 800 272 q 818 133 813 179 q 828 57 824 88 q 835 29 833 26 l 835 33 q 835 29 835 29 q 822 6 832 15 q 799 -4 811 -4 m 717 419 q 708 526 711 464 q 706 665 706 589 q 735 1043 706 822 q 647 869 693 958 q 553 698 600 781 q 464 546 506 615 q 392 429 422 476 q 497 428 440 429 q 612 426 554 428 q 717 419 669 424 m 935 1721 q 1036 1665 1000 1721 q 1072 1524 1072 1610 q 1062 1493 1072 1506 q 1040 1481 1051 1481 q 1024 1494 1029 1481 q 1019 1520 1022 1501 q 1013 1569 1017 1539 q 943 1658 1001 1658 q 824 1608 874 1658 q 729 1479 775 1557 q 707 1468 719 1468 q 689 1492 689 1468 q 693 1511 689 1504 q 808 1662 746 1603 q 935 1721 869 1721 z "},"Ā":{"ha":975,"x_min":-108,"x_max":1092,"o":"m 799 -4 q 774 16 785 -4 q 757 67 764 36 q 742 185 747 118 q 724 353 736 251 q 593 362 653 360 q 474 365 533 364 q 349 367 415 365 q 11 24 169 97 q -72 -3 -42 -3 q -108 32 -108 -3 q -96 63 -108 50 q -71 75 -83 75 q -50 64 -58 75 q 128 182 53 104 q 281 368 203 260 q 194 372 235 371 q 129 379 154 374 q 104 401 104 385 q 117 429 104 417 q 143 443 129 442 q 215 436 171 439 q 324 431 260 433 q 426 594 371 501 q 536 787 481 686 q 640 988 592 888 q 724 1174 689 1088 q 772 1324 758 1261 q 814 1357 786 1357 q 831 1344 824 1357 q 842 1317 839 1332 q 835 1290 844 1301 q 815 1193 825 1256 q 797 1056 806 1131 q 782 908 789 982 q 771 773 775 833 q 767 681 767 713 q 783 413 767 571 q 860 401 840 406 q 881 374 881 396 q 868 349 881 361 q 840 339 856 338 l 793 344 q 797 306 793 340 q 806 226 800 272 q 818 133 813 179 q 828 57 824 88 q 835 29 833 26 l 835 33 q 835 29 835 29 q 822 6 832 15 q 799 -4 811 -4 m 717 419 q 708 526 711 464 q 706 665 706 589 q 735 1043 706 822 q 647 869 693 958 q 553 698 600 781 q 464 546 506 615 q 392 429 422 476 q 497 428 440 429 q 612 426 554 428 q 717 419 669 424 m 804 1493 q 741 1504 765 1496 q 717 1535 717 1513 q 728 1562 717 1553 q 757 1568 740 1571 q 838 1560 803 1563 q 904 1556 872 1557 q 975 1557 936 1556 q 1069 1563 1014 1558 q 1092 1538 1092 1554 q 1054 1499 1092 1510 q 1004 1493 1039 1494 q 929 1492 969 1492 q 855 1492 889 1492 q 804 1493 821 1493 z "},"Ą":{"ha":975,"x_min":-108,"x_max":881,"o":"m 799 -4 q 774 16 785 -4 q 757 67 764 36 q 742 185 747 118 q 724 353 736 251 q 593 362 653 360 q 474 365 533 364 q 349 367 415 365 q 11 24 169 97 q -72 -3 -42 -3 q -108 32 -108 -3 q -96 63 -108 50 q -71 75 -83 75 q -50 64 -58 75 q 128 182 53 104 q 281 368 203 260 q 194 372 235 371 q 129 379 154 374 q 104 401 104 385 q 117 429 104 417 q 143 443 129 442 q 215 436 171 439 q 324 431 260 433 q 426 594 371 501 q 536 787 481 686 q 640 988 592 888 q 724 1174 689 1088 q 772 1324 758 1261 q 814 1357 786 1357 q 831 1344 824 1357 q 842 1317 839 1332 q 835 1290 844 1301 q 815 1193 825 1256 q 797 1056 806 1131 q 782 908 789 982 q 771 773 775 833 q 767 681 767 713 q 783 413 767 571 q 860 401 840 406 q 881 374 881 396 q 868 349 881 361 q 840 339 856 338 l 793 344 q 797 306 793 340 q 806 226 800 272 q 818 133 813 179 q 828 57 824 88 q 835 29 833 26 l 835 33 q 835 29 835 29 q 822 6 832 15 q 799 -4 811 -4 m 717 419 q 708 526 711 464 q 706 665 706 589 q 735 1043 706 822 q 647 869 693 958 q 553 698 600 781 q 464 546 506 615 q 392 429 422 476 q 497 428 440 429 q 612 426 554 428 q 717 419 669 424 m 844 7 q 815 -79 851 -47 q 718 -140 779 -111 q 660 -181 678 -160 q 642 -240 642 -201 q 651 -274 642 -262 q 686 -286 661 -286 q 724 -281 707 -286 q 764 -257 740 -276 q 806 -232 796 -232 q 831 -261 831 -232 q 815 -294 831 -275 q 771 -329 799 -314 q 686 -350 728 -350 q 606 -318 631 -350 q 581 -243 581 -286 q 600 -162 581 -199 q 679 -94 619 -125 q 748 -62 721 -74 q 789 -36 775 -50 q 800 1 803 -22 q 819 35 796 35 q 844 7 840 35 z "},"Å":{"ha":975,"x_min":-108,"x_max":929,"o":"m 799 -4 q 774 16 785 -4 q 757 67 764 36 q 742 185 747 118 q 724 353 736 251 q 593 362 653 360 q 474 365 533 364 q 349 367 415 365 q 11 24 169 97 q -72 -3 -42 -3 q -108 32 -108 -3 q -96 63 -108 50 q -71 75 -83 75 q -50 64 -58 75 q 128 182 53 104 q 281 368 203 260 q 194 372 235 371 q 129 379 154 374 q 104 401 104 385 q 117 429 104 417 q 143 443 129 442 q 215 436 171 439 q 324 431 260 433 q 426 594 371 501 q 536 787 481 686 q 640 988 592 888 q 724 1174 689 1088 q 772 1324 758 1261 q 814 1357 786 1357 q 831 1344 824 1357 q 842 1317 839 1332 q 835 1290 844 1301 q 815 1193 825 1256 q 797 1056 806 1131 q 782 908 789 982 q 771 773 775 833 q 767 681 767 713 q 783 413 767 571 q 860 401 840 406 q 881 374 881 396 q 868 349 881 361 q 840 339 856 338 l 793 344 q 797 306 793 340 q 806 226 800 272 q 818 133 813 179 q 828 57 824 88 q 835 29 833 26 l 835 33 q 835 29 835 29 q 822 6 832 15 q 799 -4 811 -4 m 717 419 q 708 526 711 464 q 706 665 706 589 q 735 1043 706 822 q 647 869 693 958 q 553 698 600 781 q 464 546 506 615 q 392 429 422 476 q 497 428 440 429 q 612 426 554 428 q 717 419 669 424 m 817 1403 q 701 1454 739 1403 q 688 1501 688 1474 q 717 1594 688 1551 q 751 1626 732 1614 q 789 1639 771 1639 q 821 1633 810 1639 q 836 1638 828 1638 q 854 1632 849 1638 q 929 1510 929 1578 q 897 1434 929 1465 q 817 1403 865 1403 m 824 1463 q 864 1504 864 1463 q 832 1558 864 1526 l 824 1558 q 801 1565 813 1558 q 781 1572 792 1572 q 761 1558 769 1572 q 753 1519 753 1544 q 777 1479 753 1496 q 824 1463 801 1463 z "},"Ǻ":{"ha":975,"x_min":-108,"x_max":1099,"o":"m 799 -4 q 774 16 785 -4 q 757 67 764 36 q 742 185 747 118 q 724 353 736 251 q 593 362 653 360 q 474 365 533 364 q 349 367 415 365 q 11 24 169 97 q -72 -3 -42 -3 q -108 32 -108 -3 q -96 63 -108 50 q -71 75 -83 75 q -50 64 -58 75 q 128 182 53 104 q 281 368 203 260 q 194 372 235 371 q 129 379 154 374 q 104 401 104 385 q 117 429 104 417 q 143 443 129 442 q 215 436 171 439 q 324 431 260 433 q 426 594 371 501 q 536 787 481 686 q 640 988 592 888 q 724 1174 689 1088 q 772 1324 758 1261 q 814 1357 786 1357 q 831 1344 824 1357 q 842 1317 839 1332 q 835 1290 844 1301 q 815 1193 825 1256 q 797 1056 806 1131 q 782 908 789 982 q 771 773 775 833 q 767 681 767 713 q 783 413 767 571 q 860 401 840 406 q 881 374 881 396 q 868 349 881 361 q 840 339 856 338 l 793 344 q 797 306 793 340 q 806 226 800 272 q 818 133 813 179 q 828 57 824 88 q 835 29 833 26 l 835 33 q 835 29 835 29 q 822 6 832 15 q 799 -4 811 -4 m 717 419 q 708 526 711 464 q 706 665 706 589 q 735 1043 706 822 q 647 869 693 958 q 553 698 600 781 q 464 546 506 615 q 392 429 422 476 q 497 428 440 429 q 612 426 554 428 q 717 419 669 424 m 856 1419 q 740 1471 778 1419 q 726 1518 726 1490 q 756 1611 726 1568 q 790 1643 771 1631 q 828 1656 810 1656 q 860 1650 849 1656 q 875 1654 867 1654 q 893 1649 888 1654 q 968 1526 968 1594 q 936 1451 968 1482 q 856 1419 904 1419 m 863 1479 q 903 1521 903 1479 q 871 1575 903 1543 l 863 1575 q 840 1582 851 1575 q 819 1589 831 1589 q 800 1575 808 1589 q 792 1536 792 1561 q 816 1496 792 1513 q 863 1479 840 1479 m 931 1697 q 899 1729 899 1697 q 914 1760 899 1738 q 946 1810 929 1779 q 978 1874 963 1842 q 994 1906 986 1889 q 1008 1938 1001 1922 q 1024 1969 1017 1953 q 1039 2000 1032 1985 q 1074 2021 1054 2021 q 1099 1997 1099 2021 q 1089 1967 1099 1985 q 1077 1944 1083 1957 q 1063 1915 1071 1931 q 1022 1829 1049 1883 q 961 1731 996 1775 q 949 1707 960 1717 q 931 1697 939 1697 z "},"Ã":{"ha":975,"x_min":-108,"x_max":1069,"o":"m 799 -4 q 774 16 785 -4 q 757 67 764 36 q 742 185 747 118 q 724 353 736 251 q 593 362 653 360 q 474 365 533 364 q 349 367 415 365 q 11 24 169 97 q -72 -3 -42 -3 q -108 32 -108 -3 q -96 63 -108 50 q -71 75 -83 75 q -50 64 -58 75 q 128 182 53 104 q 281 368 203 260 q 194 372 235 371 q 129 379 154 374 q 104 401 104 385 q 117 429 104 417 q 143 443 129 442 q 215 436 171 439 q 324 431 260 433 q 426 594 371 501 q 536 787 481 686 q 640 988 592 888 q 724 1174 689 1088 q 772 1324 758 1261 q 814 1357 786 1357 q 831 1344 824 1357 q 842 1317 839 1332 q 835 1290 844 1301 q 815 1193 825 1256 q 797 1056 806 1131 q 782 908 789 982 q 771 773 775 833 q 767 681 767 713 q 783 413 767 571 q 860 401 840 406 q 881 374 881 396 q 868 349 881 361 q 840 339 856 338 l 793 344 q 797 306 793 340 q 806 226 800 272 q 818 133 813 179 q 828 57 824 88 q 835 29 833 26 l 835 33 q 835 29 835 29 q 822 6 832 15 q 799 -4 811 -4 m 717 419 q 708 526 711 464 q 706 665 706 589 q 735 1043 706 822 q 647 869 693 958 q 553 698 600 781 q 464 546 506 615 q 392 429 422 476 q 497 428 440 429 q 612 426 554 428 q 717 419 669 424 m 961 1482 q 908 1494 931 1482 q 867 1522 886 1507 q 828 1549 847 1536 q 794 1561 810 1561 q 738 1511 761 1561 q 706 1494 725 1494 q 681 1518 681 1494 q 681 1526 681 1522 q 683 1533 682 1529 q 789 1628 732 1628 q 864 1601 818 1628 q 933 1563 908 1575 q 983 1551 957 1551 q 1010 1557 1010 1551 l 1010 1565 l 1003 1603 q 1015 1633 1003 1621 q 1042 1646 1028 1646 q 1069 1581 1069 1646 q 1011 1490 1069 1514 q 961 1482 990 1482 z "},"Æ":{"ha":1324,"x_min":-108,"x_max":1356,"o":"m 1101 -12 q 1035 -11 1081 -12 q 932 -8 990 -10 q 813 -5 874 -7 q 697 -1 751 -3 q 607 1 643 0 q 563 3 571 3 l 515 -1 q 480 14 489 -1 q 481 43 471 29 q 508 100 494 63 q 533 185 521 138 q 554 279 544 232 q 569 363 564 326 l 349 367 q 185 158 265 240 q 38 37 104 76 q -72 -3 -29 -3 q -108 32 -108 -3 q -96 63 -108 50 q -69 75 -83 75 q -50 64 -57 75 q 62 126 10 88 q 167 223 114 164 q 281 368 219 282 q 190 374 229 371 q 124 379 150 378 q 104 401 104 386 q 117 429 104 417 q 143 443 129 442 q 215 436 171 439 q 324 431 260 433 q 478 685 394 538 q 660 1021 563 832 q 706 1119 685 1069 q 743 1218 726 1168 q 722 1240 722 1225 q 732 1263 722 1256 q 761 1279 742 1271 q 778 1330 769 1303 q 814 1357 786 1357 q 842 1345 833 1357 q 842 1310 850 1333 q 1011 1335 910 1326 q 1249 1344 1113 1344 q 1333 1340 1310 1344 q 1356 1321 1356 1335 q 1346 1295 1356 1307 q 1322 1279 1336 1283 q 1081 1276 1175 1279 q 928 1265 986 1272 q 829 1243 869 1257 q 805 1150 819 1207 q 775 1027 790 1093 q 745 899 760 961 q 719 788 731 836 q 704 719 708 740 q 925 719 832 718 q 1069 717 1018 721 q 1119 694 1119 714 q 1093 657 1119 667 q 1007 649 1067 650 q 865 650 947 647 q 690 656 783 653 q 676 588 683 626 q 660 514 668 550 q 648 453 653 478 q 643 424 643 428 q 758 417 704 421 q 847 405 813 414 q 881 374 881 396 q 868 349 881 361 q 838 338 856 338 q 744 351 796 346 q 633 360 693 357 q 603 197 619 274 q 557 63 586 121 l 1093 51 q 1151 52 1128 51 q 1189 54 1175 53 q 1213 26 1213 47 q 1186 -4 1213 1 q 1148 -11 1168 -10 q 1101 -12 1128 -12 m 579 426 l 697 967 q 392 429 518 625 l 579 426 z "},"Ǽ":{"ha":1324,"x_min":-108,"x_max":1356,"o":"m 1101 -12 q 1035 -11 1081 -12 q 932 -8 990 -10 q 813 -5 874 -7 q 697 -1 751 -3 q 607 1 643 0 q 563 3 571 3 l 515 -1 q 480 14 489 -1 q 481 43 471 29 q 508 100 494 63 q 533 185 521 138 q 554 279 544 232 q 569 363 564 326 l 349 367 q 185 158 265 240 q 38 37 104 76 q -72 -3 -29 -3 q -108 32 -108 -3 q -96 63 -108 50 q -69 75 -83 75 q -50 64 -57 75 q 62 126 10 88 q 167 223 114 164 q 281 368 219 282 q 190 374 229 371 q 124 379 150 378 q 104 401 104 386 q 117 429 104 417 q 143 443 129 442 q 215 436 171 439 q 324 431 260 433 q 478 685 394 538 q 660 1021 563 832 q 706 1119 685 1069 q 743 1218 726 1168 q 722 1240 722 1225 q 732 1263 722 1256 q 761 1279 742 1271 q 778 1330 769 1303 q 814 1357 786 1357 q 842 1345 833 1357 q 842 1310 850 1333 q 1011 1335 910 1326 q 1249 1344 1113 1344 q 1333 1340 1310 1344 q 1356 1321 1356 1335 q 1346 1295 1356 1307 q 1322 1279 1336 1283 q 1081 1276 1175 1279 q 928 1265 986 1272 q 829 1243 869 1257 q 805 1150 819 1207 q 775 1027 790 1093 q 745 899 760 961 q 719 788 731 836 q 704 719 708 740 q 925 719 832 718 q 1069 717 1018 721 q 1119 694 1119 714 q 1093 657 1119 667 q 1007 649 1067 650 q 865 650 947 647 q 690 656 783 653 q 676 588 683 626 q 660 514 668 550 q 648 453 653 478 q 643 424 643 428 q 758 417 704 421 q 847 405 813 414 q 881 374 881 396 q 868 349 881 361 q 838 338 856 338 q 744 351 796 346 q 633 360 693 357 q 603 197 619 274 q 557 63 586 121 l 1093 51 q 1151 52 1128 51 q 1189 54 1175 53 q 1213 26 1213 47 q 1186 -4 1213 1 q 1148 -11 1168 -10 q 1101 -12 1128 -12 m 579 426 l 697 967 q 392 429 518 625 l 579 426 m 888 1431 q 856 1463 856 1431 q 871 1493 856 1471 q 903 1544 886 1513 q 935 1607 919 1575 q 951 1639 943 1622 q 965 1671 958 1656 q 981 1702 974 1686 q 996 1733 989 1718 q 1031 1754 1011 1754 q 1056 1731 1056 1754 q 1046 1700 1056 1718 q 1034 1677 1040 1690 q 1019 1649 1028 1664 q 979 1563 1006 1617 q 918 1464 953 1508 q 906 1440 917 1450 q 888 1431 896 1431 z "},"B":{"ha":714,"x_min":-114,"x_max":665,"o":"m 31 -83 q 4 -56 7 -83 q 8 -31 6 -44 q 14 0 10 -17 q -6 5 4 3 q -26 8 -15 7 q -100 34 -86 19 q -114 64 -114 49 q -106 81 -114 72 q -90 90 -97 90 q -46 77 -75 90 q 28 64 -17 64 l 163 650 l 121 651 q 100 675 100 651 q 175 708 100 708 q 215 902 200 813 q 245 1078 229 992 q 290 1260 261 1165 q 246 1228 267 1250 q 208 1206 225 1206 q 194 1212 203 1206 q 185 1233 185 1218 q 226 1290 185 1265 q 318 1325 267 1315 q 338 1339 325 1339 q 361 1328 350 1339 q 567 1239 489 1324 q 646 1014 646 1154 q 623 901 646 956 q 561 801 600 846 q 472 726 522 756 q 369 689 422 696 q 481 657 428 685 q 576 585 535 629 q 642 490 618 542 q 665 386 665 438 q 597 166 665 254 q 402 33 528 78 q 103 -11 276 -11 l 74 -10 q 69 -43 69 -28 q 53 -72 65 -61 q 31 -83 42 -83 m 236 710 q 409 751 332 710 q 532 861 486 792 q 578 1013 578 931 q 514 1202 578 1138 q 347 1268 450 1267 q 302 1079 318 1168 q 273 901 286 990 q 236 710 260 811 m 140 51 q 482 140 363 51 q 601 378 601 229 q 576 478 601 431 q 506 563 550 525 q 408 623 463 601 q 296 644 354 644 q 263 645 282 644 q 222 647 244 646 q 212 601 222 644 q 186 490 201 557 q 154 348 171 422 q 122 208 138 274 q 97 99 107 142 q 86 54 86 56 q 109 52 96 53 q 140 51 122 51 z "},"C":{"ha":756,"x_min":53,"x_max":822,"o":"m 333 -21 q 211 17 264 -21 q 123 114 158 54 q 70 242 88 174 q 53 372 53 311 q 69 548 53 450 q 118 755 86 646 q 196 972 150 864 q 300 1167 242 1081 q 426 1303 358 1253 q 565 1353 493 1353 q 666 1328 619 1353 q 748 1262 713 1303 q 803 1173 783 1221 q 822 1078 822 1125 q 803 1042 818 1050 q 772 1047 788 1033 q 753 1092 757 1060 q 692 1232 743 1178 q 564 1286 640 1286 q 403 1183 489 1286 q 315 1052 357 1129 q 239 888 274 975 q 178 711 204 800 q 138 543 151 622 q 124 407 124 464 q 148 229 124 311 q 221 97 172 147 q 344 47 269 47 q 535 125 428 47 q 580 158 558 142 q 613 174 601 174 q 636 149 636 174 q 607 107 636 125 q 551 68 578 89 q 333 -21 433 -21 z "},"Ć":{"ha":756,"x_min":53,"x_max":822,"o":"m 333 -21 q 211 17 264 -21 q 123 114 158 54 q 70 242 88 174 q 53 372 53 311 q 69 548 53 450 q 118 755 86 646 q 196 972 150 864 q 300 1167 242 1081 q 426 1303 358 1253 q 565 1353 493 1353 q 666 1328 619 1353 q 748 1262 713 1303 q 803 1173 783 1221 q 822 1078 822 1125 q 803 1042 818 1050 q 772 1047 788 1033 q 753 1092 757 1060 q 692 1232 743 1178 q 564 1286 640 1286 q 403 1183 489 1286 q 315 1052 357 1129 q 239 888 274 975 q 178 711 204 800 q 138 543 151 622 q 124 407 124 464 q 148 229 124 311 q 221 97 172 147 q 344 47 269 47 q 535 125 428 47 q 580 158 558 142 q 613 174 601 174 q 636 149 636 174 q 607 107 636 125 q 551 68 578 89 q 333 -21 433 -21 m 624 1431 q 592 1463 592 1431 q 607 1493 592 1471 q 639 1544 622 1513 q 671 1607 656 1575 q 687 1639 679 1622 q 701 1671 694 1656 q 717 1702 710 1686 q 732 1733 725 1718 q 767 1754 747 1754 q 792 1731 792 1754 q 782 1700 792 1718 q 770 1677 776 1690 q 756 1649 764 1664 q 715 1563 742 1617 q 654 1464 689 1508 q 642 1440 653 1450 q 624 1431 632 1431 z "},"Č":{"ha":756,"x_min":53,"x_max":847,"o":"m 333 -21 q 211 17 264 -21 q 123 114 158 54 q 70 242 88 174 q 53 372 53 311 q 69 548 53 450 q 118 755 86 646 q 196 972 150 864 q 300 1167 242 1081 q 426 1303 358 1253 q 565 1353 493 1353 q 666 1328 619 1353 q 748 1262 713 1303 q 803 1173 783 1221 q 822 1078 822 1125 q 803 1042 818 1050 q 772 1047 788 1033 q 753 1092 757 1060 q 692 1232 743 1178 q 564 1286 640 1286 q 403 1183 489 1286 q 315 1052 357 1129 q 239 888 274 975 q 178 711 204 800 q 138 543 151 622 q 124 407 124 464 q 148 229 124 311 q 221 97 172 147 q 344 47 269 47 q 535 125 428 47 q 580 158 558 142 q 613 174 601 174 q 636 149 636 174 q 607 107 636 125 q 551 68 578 89 q 333 -21 433 -21 m 642 1424 q 618 1439 626 1424 q 596 1479 610 1454 q 492 1603 546 1576 q 465 1617 475 1611 q 454 1638 454 1624 q 467 1662 454 1651 q 497 1672 479 1672 q 549 1649 522 1672 q 603 1590 576 1625 q 653 1515 631 1554 q 694 1579 678 1556 q 732 1627 710 1603 q 796 1693 754 1651 q 822 1704 810 1704 q 847 1681 847 1704 q 836 1653 847 1667 q 767 1580 790 1607 q 728 1529 743 1553 q 690 1468 713 1506 q 668 1435 679 1447 q 642 1424 657 1424 z "},"Ç":{"ha":756,"x_min":53,"x_max":822,"o":"m 333 -21 q 211 17 264 -21 q 123 114 158 54 q 70 242 88 174 q 53 372 53 311 q 69 548 53 450 q 118 755 86 646 q 196 972 150 864 q 300 1167 242 1081 q 426 1303 358 1253 q 565 1353 493 1353 q 666 1328 619 1353 q 748 1262 713 1303 q 803 1173 783 1221 q 822 1078 822 1125 q 803 1042 818 1050 q 772 1047 788 1033 q 753 1092 757 1060 q 692 1232 743 1178 q 564 1286 640 1286 q 403 1183 489 1286 q 315 1052 357 1129 q 239 888 274 975 q 178 711 204 800 q 138 543 151 622 q 124 407 124 464 q 148 229 124 311 q 221 97 172 147 q 344 47 269 47 q 535 125 428 47 q 580 158 558 142 q 613 174 601 174 q 636 149 636 174 q 607 107 636 125 q 551 68 578 89 q 333 -21 433 -21 m 338 -400 q 280 -392 313 -400 q 224 -372 247 -385 q 200 -342 200 -358 q 212 -314 200 -322 q 239 -306 224 -306 q 349 -336 308 -336 q 420 -306 389 -336 q 451 -233 451 -275 q 435 -160 451 -186 q 386 -133 419 -133 q 303 -181 333 -133 q 279 -197 293 -197 q 258 -187 265 -197 q 257 -162 250 -176 q 272 -133 260 -157 q 299 -79 283 -110 q 327 -22 314 -49 q 346 13 340 4 q 374 24 353 24 q 399 1 399 24 q 386 -33 399 -11 q 351 -96 374 -54 q 431 -87 394 -74 q 490 -140 468 -101 q 513 -229 513 -178 q 492 -312 513 -272 q 433 -376 472 -351 q 338 -400 394 -400 z "},"Ĉ":{"ha":756,"x_min":53,"x_max":822,"o":"m 333 -21 q 211 17 264 -21 q 123 114 158 54 q 70 242 88 174 q 53 372 53 311 q 69 548 53 450 q 118 755 86 646 q 196 972 150 864 q 300 1167 242 1081 q 426 1303 358 1253 q 565 1353 493 1353 q 666 1328 619 1353 q 748 1262 713 1303 q 803 1173 783 1221 q 822 1078 822 1125 q 803 1042 818 1050 q 772 1047 788 1033 q 753 1092 757 1060 q 692 1232 743 1178 q 564 1286 640 1286 q 403 1183 489 1286 q 315 1052 357 1129 q 239 888 274 975 q 178 711 204 800 q 138 543 151 622 q 124 407 124 464 q 148 229 124 311 q 221 97 172 147 q 344 47 269 47 q 535 125 428 47 q 580 158 558 142 q 613 174 601 174 q 636 149 636 174 q 607 107 636 125 q 551 68 578 89 q 333 -21 433 -21 m 764 1435 q 720 1459 744 1435 q 674 1521 696 1483 q 638 1597 651 1558 q 633 1589 635 1593 q 628 1581 631 1585 q 521 1444 610 1542 q 497 1436 508 1436 q 472 1458 472 1436 q 522 1536 472 1482 q 563 1585 546 1564 q 586 1621 579 1607 q 623 1679 601 1649 q 669 1710 644 1710 q 694 1683 694 1710 l 693 1667 q 708 1610 693 1646 q 748 1542 724 1575 q 797 1490 772 1508 q 803 1469 803 1481 q 791 1445 803 1456 q 764 1435 779 1435 z "},"Ċ":{"ha":756,"x_min":53,"x_max":822,"o":"m 333 -21 q 211 17 264 -21 q 123 114 158 54 q 70 242 88 174 q 53 372 53 311 q 69 548 53 450 q 118 755 86 646 q 196 972 150 864 q 300 1167 242 1081 q 426 1303 358 1253 q 565 1353 493 1353 q 666 1328 619 1353 q 748 1262 713 1303 q 803 1173 783 1221 q 822 1078 822 1125 q 803 1042 818 1050 q 772 1047 788 1033 q 753 1092 757 1060 q 692 1232 743 1178 q 564 1286 640 1286 q 403 1183 489 1286 q 315 1052 357 1129 q 239 888 274 975 q 178 711 204 800 q 138 543 151 622 q 124 407 124 464 q 148 229 124 311 q 221 97 172 147 q 344 47 269 47 q 535 125 428 47 q 580 158 558 142 q 613 174 601 174 q 636 149 636 174 q 607 107 636 125 q 551 68 578 89 q 333 -21 433 -21 m 654 1457 q 621 1463 632 1457 l 615 1463 q 575 1510 575 1463 q 595 1553 575 1533 q 639 1572 615 1572 q 683 1556 663 1572 q 707 1510 707 1532 q 690 1472 707 1488 q 654 1457 674 1457 z "},"D":{"ha":988,"x_min":-40,"x_max":965,"o":"m 115 -76 q 89 -56 89 -76 q 90 -10 89 -36 q 30 2 60 -3 q -20 17 0 7 q -40 51 -40 28 q -33 67 -40 58 q -18 76 -25 76 q 15 69 4 76 q 44 56 26 63 q 99 49 61 49 q 252 728 176 429 q 400 1244 328 1028 q 288 1195 332 1221 q 232 1169 244 1169 q 207 1194 207 1169 q 225 1226 207 1214 q 325 1281 275 1258 q 426 1317 375 1303 q 451 1335 438 1335 q 471 1328 465 1335 q 735 1322 624 1361 q 906 1172 846 1283 q 965 872 965 1061 q 922 531 965 676 q 801 281 878 385 q 624 114 724 178 q 414 18 525 50 q 289 -7 353 0 q 156 -14 225 -14 q 115 -76 150 -76 m 167 46 q 500 113 361 46 q 728 294 639 179 q 858 553 817 408 q 900 856 900 699 q 865 1083 900 993 q 770 1221 831 1174 q 631 1277 710 1268 q 465 1263 553 1286 q 351 866 407 1079 q 243 410 296 653 q 206 235 225 325 q 167 46 186 144 z "},"Ǳ":{"ha":1782,"x_min":-40,"x_max":2189,"o":"m 115 -76 q 89 -56 89 -76 q 90 -10 89 -36 q 30 2 60 -3 q -20 17 0 7 q -40 51 -40 28 q -33 67 -40 58 q -18 76 -25 76 q 15 69 4 76 q 44 56 26 63 q 99 49 61 49 q 252 728 176 429 q 400 1244 328 1028 q 288 1195 332 1221 q 232 1169 244 1169 q 207 1194 207 1169 q 225 1226 207 1214 q 325 1281 275 1258 q 426 1317 375 1303 q 451 1335 438 1335 q 471 1328 465 1335 q 735 1322 624 1361 q 906 1172 846 1283 q 965 872 965 1061 q 922 531 965 676 q 801 281 878 385 q 624 114 724 178 q 414 18 525 50 q 289 -7 353 0 q 156 -14 225 -14 q 115 -76 150 -76 m 167 46 q 500 113 361 46 q 728 294 639 179 q 858 553 817 408 q 900 856 900 699 q 865 1083 900 993 q 770 1221 831 1174 q 631 1277 710 1268 q 465 1263 553 1286 q 351 866 407 1079 q 243 410 296 653 q 206 235 225 325 q 167 46 186 144 m 1774 -344 q 1630 -317 1706 -344 q 1482 -249 1554 -290 q 1351 -160 1410 -207 q 1256 -74 1292 -112 q 1203 -19 1232 -47 q 1142 27 1175 8 q 1069 46 1108 46 q 1024 33 1046 46 q 983 7 1003 19 q 944 -6 963 -6 q 919 19 919 -6 q 938 58 919 28 q 988 132 957 89 q 1053 223 1018 175 q 1122 317 1089 271 q 1229 463 1175 388 q 1339 614 1283 538 q 1586 974 1476 807 q 1776 1285 1696 1142 q 1606 1275 1700 1279 q 1420 1269 1513 1271 q 1251 1269 1328 1267 q 1135 1276 1175 1271 q 1115 1303 1115 1283 q 1157 1339 1115 1339 q 1347 1334 1272 1336 q 1467 1331 1421 1332 q 1544 1331 1514 1331 q 1599 1335 1574 1332 q 1660 1342 1625 1338 q 1746 1349 1708 1347 q 1811 1351 1783 1351 q 1868 1324 1868 1351 q 1834 1256 1868 1314 q 1740 1104 1800 1199 q 1599 889 1679 1010 q 1424 632 1518 768 q 1230 356 1331 496 q 1028 82 1129 215 q 1106 107 1064 107 q 1300 -17 1172 107 q 1551 -210 1426 -142 q 1801 -278 1675 -278 q 1956 -250 1888 -278 q 2069 -186 2024 -222 q 2100 -161 2082 -176 q 2137 -133 2118 -146 q 2169 -121 2156 -121 q 2189 -143 2189 -121 q 2156 -194 2189 -165 q 2043 -270 2107 -236 q 1910 -324 1979 -304 q 1774 -344 1840 -344 z "},"Ǆ":{"ha":1782,"x_min":-40,"x_max":2189,"o":"m 115 -76 q 89 -56 89 -76 q 90 -10 89 -36 q 30 2 60 -3 q -20 17 0 7 q -40 51 -40 28 q -33 67 -40 58 q -18 76 -25 76 q 15 69 4 76 q 44 56 26 63 q 99 49 61 49 q 252 728 176 429 q 400 1244 328 1028 q 288 1195 332 1221 q 232 1169 244 1169 q 207 1194 207 1169 q 225 1226 207 1214 q 325 1281 275 1258 q 426 1317 375 1303 q 451 1335 438 1335 q 471 1328 465 1335 q 735 1322 624 1361 q 906 1172 846 1283 q 965 872 965 1061 q 922 531 965 676 q 801 281 878 385 q 624 114 724 178 q 414 18 525 50 q 289 -7 353 0 q 156 -14 225 -14 q 115 -76 150 -76 m 167 46 q 500 113 361 46 q 728 294 639 179 q 858 553 817 408 q 900 856 900 699 q 865 1083 900 993 q 770 1221 831 1174 q 631 1277 710 1268 q 465 1263 553 1286 q 351 866 407 1079 q 243 410 296 653 q 206 235 225 325 q 167 46 186 144 m 1774 -344 q 1630 -317 1706 -344 q 1482 -249 1554 -290 q 1351 -160 1410 -207 q 1256 -74 1292 -112 q 1203 -19 1232 -47 q 1142 27 1175 8 q 1069 46 1108 46 q 1024 33 1046 46 q 983 7 1003 19 q 944 -6 963 -6 q 919 19 919 -6 q 938 58 919 28 q 988 132 957 89 q 1053 223 1018 175 q 1122 317 1089 271 q 1229 463 1175 388 q 1339 614 1283 538 q 1586 974 1476 807 q 1776 1285 1696 1142 q 1606 1275 1700 1279 q 1420 1269 1513 1271 q 1251 1269 1328 1267 q 1135 1276 1175 1271 q 1115 1303 1115 1283 q 1157 1339 1115 1339 q 1347 1334 1272 1336 q 1467 1331 1421 1332 q 1544 1331 1514 1331 q 1599 1335 1574 1332 q 1660 1342 1625 1338 q 1746 1349 1708 1347 q 1811 1351 1783 1351 q 1868 1324 1868 1351 q 1834 1256 1868 1314 q 1740 1104 1800 1199 q 1599 889 1679 1010 q 1424 632 1518 768 q 1230 356 1331 496 q 1028 82 1129 215 q 1106 107 1064 107 q 1300 -17 1172 107 q 1551 -210 1426 -142 q 1801 -278 1675 -278 q 1956 -250 1888 -278 q 2069 -186 2024 -222 q 2100 -161 2082 -176 q 2137 -133 2118 -146 q 2169 -121 2156 -121 q 2189 -143 2189 -121 q 2156 -194 2189 -165 q 2043 -270 2107 -236 q 1910 -324 1979 -304 q 1774 -344 1840 -344 m 1510 1421 q 1486 1436 1494 1421 q 1464 1476 1478 1451 q 1360 1600 1414 1574 q 1333 1615 1343 1608 q 1322 1635 1322 1621 q 1335 1659 1322 1649 q 1365 1669 1347 1669 q 1417 1646 1390 1669 q 1472 1587 1444 1622 q 1521 1513 1499 1551 q 1562 1576 1546 1553 q 1600 1624 1578 1600 q 1664 1690 1622 1649 q 1690 1701 1678 1701 q 1715 1678 1715 1701 q 1704 1650 1715 1664 q 1635 1577 1658 1604 q 1596 1526 1611 1550 q 1558 1465 1581 1503 q 1536 1433 1547 1444 q 1510 1421 1525 1421 z "},"Ď":{"ha":988,"x_min":-40,"x_max":965,"o":"m 115 -76 q 89 -56 89 -76 q 90 -10 89 -36 q 30 2 60 -3 q -20 17 0 7 q -40 51 -40 28 q -33 67 -40 58 q -18 76 -25 76 q 15 69 4 76 q 44 56 26 63 q 99 49 61 49 q 252 728 176 429 q 400 1244 328 1028 q 288 1195 332 1221 q 232 1169 244 1169 q 207 1194 207 1169 q 225 1226 207 1214 q 325 1281 275 1258 q 426 1317 375 1303 q 451 1335 438 1335 q 471 1328 465 1335 q 735 1322 624 1361 q 906 1172 846 1283 q 965 872 965 1061 q 922 531 965 676 q 801 281 878 385 q 624 114 724 178 q 414 18 525 50 q 289 -7 353 0 q 156 -14 225 -14 q 115 -76 150 -76 m 167 46 q 500 113 361 46 q 728 294 639 179 q 858 553 817 408 q 900 856 900 699 q 865 1083 900 993 q 770 1221 831 1174 q 631 1277 710 1268 q 465 1263 553 1286 q 351 866 407 1079 q 243 410 296 653 q 206 235 225 325 q 167 46 186 144 m 613 1424 q 589 1439 597 1424 q 567 1479 581 1454 q 463 1603 517 1576 q 435 1617 446 1611 q 425 1638 425 1624 q 438 1662 425 1651 q 468 1672 450 1672 q 520 1649 493 1672 q 574 1590 547 1625 q 624 1515 601 1554 q 665 1579 649 1556 q 703 1627 681 1603 q 767 1693 725 1651 q 793 1704 781 1704 q 818 1681 818 1704 q 807 1653 818 1667 q 738 1580 761 1607 q 699 1529 714 1553 q 661 1468 683 1506 q 639 1435 650 1447 q 613 1424 628 1424 z "},"Đ":{"ha":988,"x_min":-40,"x_max":965,"o":"m 115 -76 q 89 -56 89 -76 q 90 -10 89 -36 q 30 2 60 -3 q -20 17 0 7 q -40 51 -40 28 q -33 67 -40 58 q -18 76 -25 76 q 15 69 4 76 q 44 56 26 63 q 99 49 61 49 q 252 728 176 429 q 400 1244 328 1028 q 288 1195 332 1221 q 232 1169 244 1169 q 207 1194 207 1169 q 225 1226 207 1214 q 325 1281 275 1258 q 426 1317 375 1303 q 451 1335 438 1335 q 471 1328 465 1335 q 735 1322 624 1361 q 906 1172 846 1283 q 965 872 965 1061 q 922 531 965 676 q 801 281 878 385 q 624 114 724 178 q 414 18 525 50 q 289 -7 353 0 q 156 -14 225 -14 q 115 -76 150 -76 m 167 46 q 500 113 361 46 q 728 294 639 179 q 858 553 817 408 q 900 856 900 699 q 865 1083 900 993 q 770 1221 831 1174 q 631 1277 710 1268 q 465 1263 553 1286 q 351 866 407 1079 q 243 410 296 653 q 206 235 225 325 q 167 46 186 144 m 328 686 l 219 676 q 76 669 121 669 q 20 678 32 669 q 8 703 8 686 q 20 726 8 715 q 44 738 32 738 q 63 733 57 738 q 88 735 63 733 q 150 738 113 736 q 227 742 188 740 q 299 747 267 744 q 343 751 331 750 q 527 763 433 758 q 718 767 621 767 q 735 759 729 767 q 742 743 742 751 q 732 719 742 731 q 708 703 722 707 q 328 686 518 703 z "},"ǲ":{"ha":1542,"x_min":-40,"x_max":1528,"o":"m 115 -76 q 89 -56 89 -76 q 90 -10 89 -36 q 30 2 60 -3 q -20 17 0 7 q -40 51 -40 28 q -33 67 -40 58 q -18 76 -25 76 q 15 69 4 76 q 44 56 26 63 q 99 49 61 49 q 252 728 176 429 q 400 1244 328 1028 q 288 1195 332 1221 q 232 1169 244 1169 q 207 1194 207 1169 q 225 1226 207 1214 q 325 1281 275 1258 q 426 1317 375 1303 q 451 1335 438 1335 q 471 1328 465 1335 q 735 1322 624 1361 q 906 1172 846 1283 q 965 872 965 1061 q 922 531 965 676 q 801 281 878 385 q 624 114 724 178 q 414 18 525 50 q 289 -7 353 0 q 156 -14 225 -14 q 115 -76 150 -76 m 167 46 q 500 113 361 46 q 728 294 639 179 q 858 553 817 408 q 900 856 900 699 q 865 1083 900 993 q 770 1221 831 1174 q 631 1277 710 1268 q 465 1263 553 1286 q 351 866 407 1079 q 243 410 296 653 q 206 235 225 325 q 167 46 186 144 m 1282 -15 q 1193 0 1236 -15 q 1131 22 1151 15 q 1092 29 1111 29 q 1040 11 1071 29 q 997 -8 1008 -8 q 974 6 978 -8 q 981 40 969 21 q 1038 115 1000 65 q 1123 227 1075 164 q 1221 356 1171 290 q 1315 479 1271 421 q 1391 578 1360 538 q 1432 632 1422 619 l 1265 639 l 1149 632 q 1086 667 1086 632 q 1133 700 1086 700 l 1192 696 l 1490 694 q 1528 681 1526 694 l 1528 668 q 1504 626 1528 654 q 1457 565 1481 597 q 1363 440 1407 497 q 1278 327 1319 382 q 1192 213 1236 272 q 1096 83 1149 154 q 1169 74 1143 83 q 1217 56 1196 65 q 1269 46 1238 46 q 1404 122 1404 46 q 1392 154 1404 139 q 1379 188 1379 169 q 1390 213 1379 199 q 1417 226 1401 226 q 1447 210 1435 226 q 1465 171 1458 193 q 1471 132 1471 149 q 1422 24 1471 64 q 1282 -15 1374 -15 z "},"ǅ":{"ha":1542,"x_min":-40,"x_max":1533,"o":"m 115 -76 q 89 -56 89 -76 q 90 -10 89 -36 q 30 2 60 -3 q -20 17 0 7 q -40 51 -40 28 q -33 67 -40 58 q -18 76 -25 76 q 15 69 4 76 q 44 56 26 63 q 99 49 61 49 q 252 728 176 429 q 400 1244 328 1028 q 288 1195 332 1221 q 232 1169 244 1169 q 207 1194 207 1169 q 225 1226 207 1214 q 325 1281 275 1258 q 426 1317 375 1303 q 451 1335 438 1335 q 471 1328 465 1335 q 735 1322 624 1361 q 906 1172 846 1283 q 965 872 965 1061 q 922 531 965 676 q 801 281 878 385 q 624 114 724 178 q 414 18 525 50 q 289 -7 353 0 q 156 -14 225 -14 q 115 -76 150 -76 m 167 46 q 500 113 361 46 q 728 294 639 179 q 858 553 817 408 q 900 856 900 699 q 865 1083 900 993 q 770 1221 831 1174 q 631 1277 710 1268 q 465 1263 553 1286 q 351 866 407 1079 q 243 410 296 653 q 206 235 225 325 q 167 46 186 144 m 1282 -15 q 1193 0 1236 -15 q 1131 22 1151 15 q 1092 29 1111 29 q 1040 11 1071 29 q 997 -8 1008 -8 q 974 6 978 -8 q 981 40 969 21 q 1038 115 1000 65 q 1123 227 1075 164 q 1221 356 1171 290 q 1315 479 1271 421 q 1391 578 1360 538 q 1432 632 1422 619 l 1265 639 l 1149 632 q 1086 667 1086 632 q 1133 700 1086 700 l 1192 696 l 1490 694 q 1528 681 1526 694 l 1528 668 q 1504 626 1528 654 q 1457 565 1481 597 q 1363 440 1407 497 q 1278 327 1319 382 q 1192 213 1236 272 q 1096 83 1149 154 q 1169 74 1143 83 q 1217 56 1196 65 q 1269 46 1238 46 q 1404 122 1404 46 q 1392 154 1404 139 q 1379 188 1379 169 q 1390 213 1379 199 q 1417 226 1401 226 q 1447 210 1435 226 q 1465 171 1458 193 q 1471 132 1471 149 q 1422 24 1471 64 q 1282 -15 1374 -15 m 1328 792 q 1304 807 1313 792 q 1282 847 1296 822 q 1178 971 1232 944 q 1151 985 1161 979 q 1140 1006 1140 992 q 1153 1030 1140 1019 q 1183 1040 1165 1040 q 1235 1017 1208 1040 q 1290 958 1263 993 q 1339 883 1317 922 q 1380 947 1364 924 q 1418 995 1396 971 q 1482 1061 1440 1019 q 1508 1072 1496 1072 q 1533 1049 1533 1072 q 1522 1021 1533 1035 q 1453 948 1476 975 q 1414 897 1429 921 q 1376 836 1399 874 q 1354 803 1365 815 q 1328 792 1343 792 z "},"Ð":{"ha":988,"x_min":-40,"x_max":965,"o":"m 115 -76 q 89 -56 89 -76 q 90 -10 89 -36 q 30 2 60 -3 q -20 17 0 7 q -40 51 -40 28 q -33 67 -40 58 q -18 76 -25 76 q 15 69 4 76 q 44 56 26 63 q 99 49 61 49 q 252 728 176 429 q 400 1244 328 1028 q 288 1195 332 1221 q 232 1169 244 1169 q 207 1194 207 1169 q 225 1226 207 1214 q 325 1281 275 1258 q 426 1317 375 1303 q 451 1335 438 1335 q 471 1328 465 1335 q 735 1322 624 1361 q 906 1172 846 1283 q 965 872 965 1061 q 922 531 965 676 q 801 281 878 385 q 624 114 724 178 q 414 18 525 50 q 289 -7 353 0 q 156 -14 225 -14 q 115 -76 150 -76 m 167 46 q 500 113 361 46 q 728 294 639 179 q 858 553 817 408 q 900 856 900 699 q 865 1083 900 993 q 770 1221 831 1174 q 631 1277 710 1268 q 465 1263 553 1286 q 351 866 407 1079 q 243 410 296 653 q 206 235 225 325 q 167 46 186 144 m 328 686 l 219 676 q 76 669 121 669 q 20 678 32 669 q 8 703 8 686 q 20 726 8 715 q 44 738 32 738 q 63 733 57 738 q 88 735 63 733 q 150 738 113 736 q 227 742 188 740 q 299 747 267 744 q 343 751 331 750 q 527 763 433 758 q 718 767 621 767 q 735 759 729 767 q 742 743 742 751 q 732 719 742 731 q 708 703 722 707 q 328 686 518 703 z "},"E":{"ha":825,"x_min":-22,"x_max":858,"o":"m 601 -12 q 537 -11 582 -12 q 433 -8 492 -10 q 313 -5 375 -7 q 197 -1 251 -3 q 108 1 143 0 q 65 3 72 3 l 18 -1 q -19 17 -15 -1 q -17 43 -22 35 q 2 82 -10 51 q 27 156 14 113 q 50 247 40 200 q 78 374 60 289 q 124 589 97 460 q 185 874 151 717 q 258 1214 218 1031 q 236 1242 236 1215 q 276 1288 236 1267 q 318 1331 276 1331 q 342 1310 340 1331 q 460 1329 389 1321 q 605 1342 531 1338 q 741 1345 679 1346 q 832 1340 803 1344 q 858 1319 858 1336 q 847 1289 858 1299 q 825 1279 835 1279 q 583 1276 678 1279 q 431 1265 489 1272 q 332 1243 372 1257 q 300 1119 315 1188 q 270 978 285 1050 q 242 838 256 906 q 215 719 228 771 q 296 715 243 717 q 409 714 349 714 q 522 715 469 714 q 599 717 574 715 q 619 709 615 717 q 622 694 622 701 q 588 656 622 663 q 507 649 553 649 l 201 656 q 169 524 188 603 q 131 358 150 444 q 93 192 111 271 q 60 63 75 114 q 347 57 235 60 q 524 53 460 54 q 620 51 589 51 q 662 51 651 51 q 676 52 672 51 q 692 54 681 53 q 715 31 715 47 q 690 -5 715 3 q 601 -12 664 -12 z "},"É":{"ha":825,"x_min":-22,"x_max":858,"o":"m 601 -12 q 537 -11 582 -12 q 433 -8 492 -10 q 313 -5 375 -7 q 197 -1 251 -3 q 108 1 143 0 q 65 3 72 3 l 18 -1 q -19 17 -15 -1 q -17 43 -22 35 q 2 82 -10 51 q 27 156 14 113 q 50 247 40 200 q 78 374 60 289 q 124 589 97 460 q 185 874 151 717 q 258 1214 218 1031 q 236 1242 236 1215 q 276 1288 236 1267 q 318 1331 276 1331 q 342 1310 340 1331 q 460 1329 389 1321 q 605 1342 531 1338 q 741 1345 679 1346 q 832 1340 803 1344 q 858 1319 858 1336 q 847 1289 858 1299 q 825 1279 835 1279 q 583 1276 678 1279 q 431 1265 489 1272 q 332 1243 372 1257 q 300 1119 315 1188 q 270 978 285 1050 q 242 838 256 906 q 215 719 228 771 q 296 715 243 717 q 409 714 349 714 q 522 715 469 714 q 599 717 574 715 q 619 709 615 717 q 622 694 622 701 q 588 656 622 663 q 507 649 553 649 l 201 656 q 169 524 188 603 q 131 358 150 444 q 93 192 111 271 q 60 63 75 114 q 347 57 235 60 q 524 53 460 54 q 620 51 589 51 q 662 51 651 51 q 676 52 672 51 q 692 54 681 53 q 715 31 715 47 q 690 -5 715 3 q 601 -12 664 -12 m 576 1431 q 544 1463 544 1431 q 560 1493 544 1471 q 592 1544 575 1513 q 624 1607 608 1575 q 640 1639 632 1622 q 654 1671 647 1656 q 670 1702 663 1686 q 685 1733 678 1718 q 719 1754 700 1754 q 744 1731 744 1754 q 735 1700 744 1718 q 723 1677 729 1690 q 708 1649 717 1664 q 668 1563 694 1617 q 607 1464 642 1508 q 595 1440 606 1450 q 576 1431 585 1431 z "},"Ĕ":{"ha":825,"x_min":-22,"x_max":858,"o":"m 601 -12 q 537 -11 582 -12 q 433 -8 492 -10 q 313 -5 375 -7 q 197 -1 251 -3 q 108 1 143 0 q 65 3 72 3 l 18 -1 q -19 17 -15 -1 q -17 43 -22 35 q 2 82 -10 51 q 27 156 14 113 q 50 247 40 200 q 78 374 60 289 q 124 589 97 460 q 185 874 151 717 q 258 1214 218 1031 q 236 1242 236 1215 q 276 1288 236 1267 q 318 1331 276 1331 q 342 1310 340 1331 q 460 1329 389 1321 q 605 1342 531 1338 q 741 1345 679 1346 q 832 1340 803 1344 q 858 1319 858 1336 q 847 1289 858 1299 q 825 1279 835 1279 q 583 1276 678 1279 q 431 1265 489 1272 q 332 1243 372 1257 q 300 1119 315 1188 q 270 978 285 1050 q 242 838 256 906 q 215 719 228 771 q 296 715 243 717 q 409 714 349 714 q 522 715 469 714 q 599 717 574 715 q 619 709 615 717 q 622 694 622 701 q 588 656 622 663 q 507 649 553 649 l 201 656 q 169 524 188 603 q 131 358 150 444 q 93 192 111 271 q 60 63 75 114 q 347 57 235 60 q 524 53 460 54 q 620 51 589 51 q 662 51 651 51 q 676 52 672 51 q 692 54 681 53 q 715 31 715 47 q 690 -5 715 3 q 601 -12 664 -12 m 600 1438 q 499 1493 535 1438 q 463 1635 463 1549 q 473 1665 463 1653 q 494 1678 483 1678 q 511 1664 506 1678 q 515 1638 513 1657 q 522 1589 518 1619 q 592 1500 533 1500 q 710 1551 661 1500 q 806 1679 760 1601 q 828 1690 815 1690 q 846 1667 846 1690 q 842 1647 846 1654 q 727 1497 789 1556 q 600 1438 665 1438 z "},"Ě":{"ha":825,"x_min":-22,"x_max":858,"o":"m 601 -12 q 537 -11 582 -12 q 433 -8 492 -10 q 313 -5 375 -7 q 197 -1 251 -3 q 108 1 143 0 q 65 3 72 3 l 18 -1 q -19 17 -15 -1 q -17 43 -22 35 q 2 82 -10 51 q 27 156 14 113 q 50 247 40 200 q 78 374 60 289 q 124 589 97 460 q 185 874 151 717 q 258 1214 218 1031 q 236 1242 236 1215 q 276 1288 236 1267 q 318 1331 276 1331 q 342 1310 340 1331 q 460 1329 389 1321 q 605 1342 531 1338 q 741 1345 679 1346 q 832 1340 803 1344 q 858 1319 858 1336 q 847 1289 858 1299 q 825 1279 835 1279 q 583 1276 678 1279 q 431 1265 489 1272 q 332 1243 372 1257 q 300 1119 315 1188 q 270 978 285 1050 q 242 838 256 906 q 215 719 228 771 q 296 715 243 717 q 409 714 349 714 q 522 715 469 714 q 599 717 574 715 q 619 709 615 717 q 622 694 622 701 q 588 656 622 663 q 507 649 553 649 l 201 656 q 169 524 188 603 q 131 358 150 444 q 93 192 111 271 q 60 63 75 114 q 347 57 235 60 q 524 53 460 54 q 620 51 589 51 q 662 51 651 51 q 676 52 672 51 q 692 54 681 53 q 715 31 715 47 q 690 -5 715 3 q 601 -12 664 -12 m 594 1424 q 571 1439 579 1424 q 549 1479 563 1454 q 444 1603 499 1576 q 417 1617 428 1611 q 407 1638 407 1624 q 419 1662 407 1651 q 450 1672 432 1672 q 502 1649 475 1672 q 556 1590 529 1625 q 606 1515 583 1554 q 647 1579 631 1556 q 685 1627 663 1603 q 749 1693 707 1651 q 775 1704 763 1704 q 800 1681 800 1704 q 789 1653 800 1667 q 719 1580 743 1607 q 681 1529 696 1553 q 643 1468 665 1506 q 621 1435 632 1447 q 594 1424 610 1424 z "},"Ê":{"ha":825,"x_min":-22,"x_max":858,"o":"m 601 -12 q 537 -11 582 -12 q 433 -8 492 -10 q 313 -5 375 -7 q 197 -1 251 -3 q 108 1 143 0 q 65 3 72 3 l 18 -1 q -19 17 -15 -1 q -17 43 -22 35 q 2 82 -10 51 q 27 156 14 113 q 50 247 40 200 q 78 374 60 289 q 124 589 97 460 q 185 874 151 717 q 258 1214 218 1031 q 236 1242 236 1215 q 276 1288 236 1267 q 318 1331 276 1331 q 342 1310 340 1331 q 460 1329 389 1321 q 605 1342 531 1338 q 741 1345 679 1346 q 832 1340 803 1344 q 858 1319 858 1336 q 847 1289 858 1299 q 825 1279 835 1279 q 583 1276 678 1279 q 431 1265 489 1272 q 332 1243 372 1257 q 300 1119 315 1188 q 270 978 285 1050 q 242 838 256 906 q 215 719 228 771 q 296 715 243 717 q 409 714 349 714 q 522 715 469 714 q 599 717 574 715 q 619 709 615 717 q 622 694 622 701 q 588 656 622 663 q 507 649 553 649 l 201 656 q 169 524 188 603 q 131 358 150 444 q 93 192 111 271 q 60 63 75 114 q 347 57 235 60 q 524 53 460 54 q 620 51 589 51 q 662 51 651 51 q 676 52 672 51 q 692 54 681 53 q 715 31 715 47 q 690 -5 715 3 q 601 -12 664 -12 m 717 1435 q 673 1459 697 1435 q 626 1521 649 1483 q 590 1597 604 1558 q 585 1589 588 1593 q 581 1581 583 1585 q 474 1444 563 1542 q 450 1436 461 1436 q 425 1458 425 1436 q 475 1536 425 1482 q 515 1585 499 1564 q 539 1621 532 1607 q 576 1679 554 1649 q 622 1710 597 1710 q 647 1683 647 1710 l 646 1667 q 661 1610 646 1646 q 701 1542 676 1575 q 750 1490 725 1508 q 756 1469 756 1481 q 744 1445 756 1456 q 717 1435 732 1435 z "},"Ế":{"ha":825,"x_min":-22,"x_max":869,"o":"m 601 -12 q 537 -11 582 -12 q 433 -8 492 -10 q 313 -5 375 -7 q 197 -1 251 -3 q 108 1 143 0 q 65 3 72 3 l 18 -1 q -19 17 -15 -1 q -17 43 -22 35 q 2 82 -10 51 q 27 156 14 113 q 50 247 40 200 q 78 374 60 289 q 124 589 97 460 q 185 874 151 717 q 258 1214 218 1031 q 236 1242 236 1215 q 276 1288 236 1267 q 318 1331 276 1331 q 342 1310 340 1331 q 460 1329 389 1321 q 605 1342 531 1338 q 741 1345 679 1346 q 832 1340 803 1344 q 858 1319 858 1336 q 847 1289 858 1299 q 825 1279 835 1279 q 583 1276 678 1279 q 431 1265 489 1272 q 332 1243 372 1257 q 300 1119 315 1188 q 270 978 285 1050 q 242 838 256 906 q 215 719 228 771 q 296 715 243 717 q 409 714 349 714 q 522 715 469 714 q 599 717 574 715 q 619 709 615 717 q 622 694 622 701 q 588 656 622 663 q 507 649 553 649 l 201 656 q 169 524 188 603 q 131 358 150 444 q 93 192 111 271 q 60 63 75 114 q 347 57 235 60 q 524 53 460 54 q 620 51 589 51 q 662 51 651 51 q 676 52 672 51 q 692 54 681 53 q 715 31 715 47 q 690 -5 715 3 q 601 -12 664 -12 m 738 1583 q 707 1615 707 1583 q 722 1646 707 1624 q 767 1720 742 1674 q 810 1804 792 1767 q 844 1825 825 1825 q 869 1801 869 1825 q 860 1771 869 1793 q 839 1733 849 1754 q 815 1685 829 1713 q 769 1617 800 1657 q 758 1593 768 1603 q 738 1583 747 1583 m 717 1435 q 673 1459 697 1435 q 626 1521 649 1483 q 590 1597 604 1558 q 585 1589 588 1593 q 581 1581 583 1585 q 474 1444 563 1542 q 450 1436 461 1436 q 425 1458 425 1436 q 475 1536 425 1482 q 515 1585 499 1564 q 539 1621 532 1607 q 576 1679 554 1649 q 622 1710 597 1710 q 647 1683 647 1710 l 646 1667 q 661 1610 646 1646 q 701 1542 676 1575 q 750 1490 725 1508 q 756 1469 756 1481 q 744 1445 756 1456 q 717 1435 732 1435 z "},"Ệ":{"ha":825,"x_min":-22,"x_max":858,"o":"m 601 -12 q 537 -11 582 -12 q 433 -8 492 -10 q 313 -5 375 -7 q 197 -1 251 -3 q 108 1 143 0 q 65 3 72 3 l 18 -1 q -19 17 -15 -1 q -17 43 -22 35 q 2 82 -10 51 q 27 156 14 113 q 50 247 40 200 q 78 374 60 289 q 124 589 97 460 q 185 874 151 717 q 258 1214 218 1031 q 236 1242 236 1215 q 276 1288 236 1267 q 318 1331 276 1331 q 342 1310 340 1331 q 460 1329 389 1321 q 605 1342 531 1338 q 741 1345 679 1346 q 832 1340 803 1344 q 858 1319 858 1336 q 847 1289 858 1299 q 825 1279 835 1279 q 583 1276 678 1279 q 431 1265 489 1272 q 332 1243 372 1257 q 300 1119 315 1188 q 270 978 285 1050 q 242 838 256 906 q 215 719 228 771 q 296 715 243 717 q 409 714 349 714 q 522 715 469 714 q 599 717 574 715 q 619 709 615 717 q 622 694 622 701 q 588 656 622 663 q 507 649 553 649 l 201 656 q 169 524 188 603 q 131 358 150 444 q 93 192 111 271 q 60 63 75 114 q 347 57 235 60 q 524 53 460 54 q 620 51 589 51 q 662 51 651 51 q 676 52 672 51 q 692 54 681 53 q 715 31 715 47 q 690 -5 715 3 q 601 -12 664 -12 m 338 -217 q 304 -211 315 -217 l 299 -211 q 258 -164 258 -211 q 278 -121 258 -140 q 322 -101 299 -101 q 367 -118 346 -101 q 390 -164 390 -142 q 374 -201 390 -186 q 338 -217 357 -217 m 717 1435 q 673 1459 697 1435 q 626 1521 649 1483 q 590 1597 604 1558 q 585 1589 588 1593 q 581 1581 583 1585 q 474 1444 563 1542 q 450 1436 461 1436 q 425 1458 425 1436 q 475 1536 425 1482 q 515 1585 499 1564 q 539 1621 532 1607 q 576 1679 554 1649 q 622 1710 597 1710 q 647 1683 647 1710 l 646 1667 q 661 1610 646 1646 q 701 1542 676 1575 q 750 1490 725 1508 q 756 1469 756 1481 q 744 1445 756 1456 q 717 1435 732 1435 z "},"Ề":{"ha":825,"x_min":-22,"x_max":858,"o":"m 601 -12 q 537 -11 582 -12 q 433 -8 492 -10 q 313 -5 375 -7 q 197 -1 251 -3 q 108 1 143 0 q 65 3 72 3 l 18 -1 q -19 17 -15 -1 q -17 43 -22 35 q 2 82 -10 51 q 27 156 14 113 q 50 247 40 200 q 78 374 60 289 q 124 589 97 460 q 185 874 151 717 q 258 1214 218 1031 q 236 1242 236 1215 q 276 1288 236 1267 q 318 1331 276 1331 q 342 1310 340 1331 q 460 1329 389 1321 q 605 1342 531 1338 q 741 1345 679 1346 q 832 1340 803 1344 q 858 1319 858 1336 q 847 1289 858 1299 q 825 1279 835 1279 q 583 1276 678 1279 q 431 1265 489 1272 q 332 1243 372 1257 q 300 1119 315 1188 q 270 978 285 1050 q 242 838 256 906 q 215 719 228 771 q 296 715 243 717 q 409 714 349 714 q 522 715 469 714 q 599 717 574 715 q 619 709 615 717 q 622 694 622 701 q 588 656 622 663 q 507 649 553 649 l 201 656 q 169 524 188 603 q 131 358 150 444 q 93 192 111 271 q 60 63 75 114 q 347 57 235 60 q 524 53 460 54 q 620 51 589 51 q 662 51 651 51 q 676 52 672 51 q 692 54 681 53 q 715 31 715 47 q 690 -5 715 3 q 601 -12 664 -12 m 454 1572 q 431 1582 440 1572 q 367 1672 388 1635 q 329 1761 346 1710 q 341 1792 329 1779 q 365 1804 353 1804 q 393 1781 385 1804 q 426 1709 407 1740 q 483 1629 444 1678 q 488 1621 486 1625 q 489 1610 489 1617 q 478 1584 489 1596 q 454 1572 467 1572 m 717 1417 q 673 1441 697 1417 q 626 1503 649 1465 q 590 1579 604 1540 q 585 1571 588 1575 q 581 1563 583 1567 q 474 1426 563 1524 q 450 1418 461 1418 q 425 1440 425 1418 q 475 1518 425 1464 q 515 1567 499 1546 q 539 1603 532 1589 q 576 1661 554 1631 q 622 1692 597 1692 q 647 1665 647 1692 l 646 1649 q 661 1592 646 1628 q 701 1524 676 1557 q 750 1472 725 1490 q 756 1451 756 1463 q 744 1427 756 1438 q 717 1417 732 1417 z "},"Ể":{"ha":825,"x_min":-22,"x_max":888,"o":"m 601 -12 q 537 -11 582 -12 q 433 -8 492 -10 q 313 -5 375 -7 q 197 -1 251 -3 q 108 1 143 0 q 65 3 72 3 l 18 -1 q -19 17 -15 -1 q -17 43 -22 35 q 2 82 -10 51 q 27 156 14 113 q 50 247 40 200 q 78 374 60 289 q 124 589 97 460 q 185 874 151 717 q 258 1214 218 1031 q 236 1242 236 1215 q 276 1288 236 1267 q 318 1331 276 1331 q 342 1310 340 1331 q 460 1329 389 1321 q 605 1342 531 1338 q 741 1345 679 1346 q 832 1340 803 1344 q 858 1319 858 1336 q 847 1289 858 1299 q 825 1279 835 1279 q 583 1276 678 1279 q 431 1265 489 1272 q 332 1243 372 1257 q 300 1119 315 1188 q 270 978 285 1050 q 242 838 256 906 q 215 719 228 771 q 296 715 243 717 q 409 714 349 714 q 522 715 469 714 q 599 717 574 715 q 619 709 615 717 q 622 694 622 701 q 588 656 622 663 q 507 649 553 649 l 201 656 q 169 524 188 603 q 131 358 150 444 q 93 192 111 271 q 60 63 75 114 q 347 57 235 60 q 524 53 460 54 q 620 51 589 51 q 662 51 651 51 q 676 52 672 51 q 692 54 681 53 q 715 31 715 47 q 690 -5 715 3 q 601 -12 664 -12 m 717 1435 q 673 1459 697 1435 q 626 1521 649 1483 q 590 1597 604 1558 q 585 1589 588 1593 q 581 1581 583 1585 q 474 1444 563 1542 q 450 1436 461 1436 q 425 1458 425 1436 q 475 1536 425 1482 q 515 1585 499 1564 q 539 1621 532 1607 q 576 1679 554 1649 q 622 1710 597 1710 q 647 1683 647 1710 l 646 1667 q 661 1610 646 1646 q 701 1542 676 1575 q 750 1490 725 1508 q 756 1469 756 1481 q 744 1445 756 1456 q 717 1435 732 1435 m 707 1638 q 715 1712 697 1686 q 772 1763 733 1738 q 811 1794 796 1778 q 826 1850 826 1811 q 819 1894 826 1878 q 779 1911 811 1911 q 735 1900 750 1911 q 713 1878 721 1889 q 694 1867 704 1867 q 669 1896 669 1869 q 704 1948 669 1928 q 772 1968 739 1968 q 863 1939 839 1968 q 888 1853 888 1910 q 869 1785 888 1814 q 811 1722 851 1756 q 764 1685 781 1696 q 751 1643 747 1674 q 748 1620 754 1628 q 733 1613 742 1613 q 717 1618 724 1613 q 707 1638 710 1624 z "},"Ễ":{"ha":825,"x_min":-22,"x_max":858,"o":"m 601 -12 q 537 -11 582 -12 q 433 -8 492 -10 q 313 -5 375 -7 q 197 -1 251 -3 q 108 1 143 0 q 65 3 72 3 l 18 -1 q -19 17 -15 -1 q -17 43 -22 35 q 2 82 -10 51 q 27 156 14 113 q 50 247 40 200 q 78 374 60 289 q 124 589 97 460 q 185 874 151 717 q 258 1214 218 1031 q 236 1242 236 1215 q 276 1288 236 1267 q 318 1331 276 1331 q 342 1310 340 1331 q 460 1329 389 1321 q 605 1342 531 1338 q 741 1345 679 1346 q 832 1340 803 1344 q 858 1319 858 1336 q 847 1289 858 1299 q 825 1279 835 1279 q 583 1276 678 1279 q 431 1265 489 1272 q 332 1243 372 1257 q 300 1119 315 1188 q 270 978 285 1050 q 242 838 256 906 q 215 719 228 771 q 296 715 243 717 q 409 714 349 714 q 522 715 469 714 q 599 717 574 715 q 619 709 615 717 q 622 694 622 701 q 588 656 622 663 q 507 649 553 649 l 201 656 q 169 524 188 603 q 131 358 150 444 q 93 192 111 271 q 60 63 75 114 q 347 57 235 60 q 524 53 460 54 q 620 51 589 51 q 662 51 651 51 q 676 52 672 51 q 692 54 681 53 q 715 31 715 47 q 690 -5 715 3 q 601 -12 664 -12 m 694 1746 q 647 1758 667 1746 q 610 1786 626 1771 q 575 1813 592 1800 q 544 1825 558 1825 q 493 1775 514 1825 q 464 1758 482 1758 q 442 1782 442 1758 q 442 1790 442 1786 q 444 1797 443 1793 q 539 1892 488 1892 q 607 1865 565 1892 q 668 1827 646 1839 q 714 1815 690 1815 q 738 1821 738 1815 l 738 1829 l 732 1867 q 743 1897 732 1885 q 767 1910 754 1910 q 792 1844 792 1910 q 739 1754 792 1778 q 694 1746 721 1746 m 717 1435 q 673 1459 697 1435 q 626 1521 649 1483 q 590 1597 604 1558 q 585 1589 588 1593 q 581 1581 583 1585 q 474 1444 563 1542 q 450 1436 461 1436 q 425 1458 425 1436 q 475 1536 425 1482 q 515 1585 499 1564 q 539 1621 532 1607 q 576 1679 554 1649 q 622 1710 597 1710 q 647 1683 647 1710 l 646 1667 q 661 1610 646 1646 q 701 1542 676 1575 q 750 1490 725 1508 q 756 1469 756 1481 q 744 1445 756 1456 q 717 1435 732 1435 z "},"Ȅ":{"ha":825,"x_min":-22,"x_max":858,"o":"m 601 -12 q 537 -11 582 -12 q 433 -8 492 -10 q 313 -5 375 -7 q 197 -1 251 -3 q 108 1 143 0 q 65 3 72 3 l 18 -1 q -19 17 -15 -1 q -17 43 -22 35 q 2 82 -10 51 q 27 156 14 113 q 50 247 40 200 q 78 374 60 289 q 124 589 97 460 q 185 874 151 717 q 258 1214 218 1031 q 236 1242 236 1215 q 276 1288 236 1267 q 318 1331 276 1331 q 342 1310 340 1331 q 460 1329 389 1321 q 605 1342 531 1338 q 741 1345 679 1346 q 832 1340 803 1344 q 858 1319 858 1336 q 847 1289 858 1299 q 825 1279 835 1279 q 583 1276 678 1279 q 431 1265 489 1272 q 332 1243 372 1257 q 300 1119 315 1188 q 270 978 285 1050 q 242 838 256 906 q 215 719 228 771 q 296 715 243 717 q 409 714 349 714 q 522 715 469 714 q 599 717 574 715 q 619 709 615 717 q 622 694 622 701 q 588 656 622 663 q 507 649 553 649 l 201 656 q 169 524 188 603 q 131 358 150 444 q 93 192 111 271 q 60 63 75 114 q 347 57 235 60 q 524 53 460 54 q 620 51 589 51 q 662 51 651 51 q 676 52 672 51 q 692 54 681 53 q 715 31 715 47 q 690 -5 715 3 q 601 -12 664 -12 m 679 1444 q 656 1454 665 1444 q 574 1574 600 1528 q 535 1667 549 1619 q 547 1697 535 1685 q 571 1710 558 1710 q 599 1686 592 1710 q 632 1609 610 1647 q 708 1501 654 1571 q 713 1493 711 1497 q 714 1482 714 1489 q 703 1456 714 1468 q 679 1444 692 1444 m 540 1444 q 517 1454 526 1444 q 435 1574 461 1528 q 396 1667 410 1619 q 408 1697 396 1685 q 432 1710 419 1710 q 460 1686 453 1710 q 493 1609 471 1647 q 569 1501 515 1571 q 574 1493 572 1497 q 575 1482 575 1489 q 564 1456 575 1468 q 540 1444 553 1444 z "},"Ë":{"ha":825,"x_min":-22,"x_max":858,"o":"m 601 -12 q 537 -11 582 -12 q 433 -8 492 -10 q 313 -5 375 -7 q 197 -1 251 -3 q 108 1 143 0 q 65 3 72 3 l 18 -1 q -19 17 -15 -1 q -17 43 -22 35 q 2 82 -10 51 q 27 156 14 113 q 50 247 40 200 q 78 374 60 289 q 124 589 97 460 q 185 874 151 717 q 258 1214 218 1031 q 236 1242 236 1215 q 276 1288 236 1267 q 318 1331 276 1331 q 342 1310 340 1331 q 460 1329 389 1321 q 605 1342 531 1338 q 741 1345 679 1346 q 832 1340 803 1344 q 858 1319 858 1336 q 847 1289 858 1299 q 825 1279 835 1279 q 583 1276 678 1279 q 431 1265 489 1272 q 332 1243 372 1257 q 300 1119 315 1188 q 270 978 285 1050 q 242 838 256 906 q 215 719 228 771 q 296 715 243 717 q 409 714 349 714 q 522 715 469 714 q 599 717 574 715 q 619 709 615 717 q 622 694 622 701 q 588 656 622 663 q 507 649 553 649 l 201 656 q 169 524 188 603 q 131 358 150 444 q 93 192 111 271 q 60 63 75 114 q 347 57 235 60 q 524 53 460 54 q 620 51 589 51 q 662 51 651 51 q 676 52 672 51 q 692 54 681 53 q 715 31 715 47 q 690 -5 715 3 q 601 -12 664 -12 m 478 1467 q 449 1490 460 1467 q 439 1532 439 1513 q 458 1588 439 1565 q 503 1610 474 1610 q 535 1594 517 1610 l 535 1596 q 557 1549 557 1569 q 542 1515 557 1535 q 509 1481 528 1496 q 478 1467 490 1467 m 754 1475 q 749 1476 753 1475 q 743 1476 746 1476 q 710 1522 710 1489 q 736 1581 710 1556 q 781 1606 763 1606 q 824 1563 824 1606 q 802 1503 824 1532 q 754 1475 781 1475 z "},"Ė":{"ha":825,"x_min":-22,"x_max":858,"o":"m 601 -12 q 537 -11 582 -12 q 433 -8 492 -10 q 313 -5 375 -7 q 197 -1 251 -3 q 108 1 143 0 q 65 3 72 3 l 18 -1 q -19 17 -15 -1 q -17 43 -22 35 q 2 82 -10 51 q 27 156 14 113 q 50 247 40 200 q 78 374 60 289 q 124 589 97 460 q 185 874 151 717 q 258 1214 218 1031 q 236 1242 236 1215 q 276 1288 236 1267 q 318 1331 276 1331 q 342 1310 340 1331 q 460 1329 389 1321 q 605 1342 531 1338 q 741 1345 679 1346 q 832 1340 803 1344 q 858 1319 858 1336 q 847 1289 858 1299 q 825 1279 835 1279 q 583 1276 678 1279 q 431 1265 489 1272 q 332 1243 372 1257 q 300 1119 315 1188 q 270 978 285 1050 q 242 838 256 906 q 215 719 228 771 q 296 715 243 717 q 409 714 349 714 q 522 715 469 714 q 599 717 574 715 q 619 709 615 717 q 622 694 622 701 q 588 656 622 663 q 507 649 553 649 l 201 656 q 169 524 188 603 q 131 358 150 444 q 93 192 111 271 q 60 63 75 114 q 347 57 235 60 q 524 53 460 54 q 620 51 589 51 q 662 51 651 51 q 676 52 672 51 q 692 54 681 53 q 715 31 715 47 q 690 -5 715 3 q 601 -12 664 -12 m 607 1457 q 574 1463 585 1457 l 568 1463 q 528 1510 528 1463 q 548 1553 528 1533 q 592 1572 568 1572 q 636 1556 615 1572 q 660 1510 660 1532 q 643 1472 660 1488 q 607 1457 626 1457 z "},"Ẹ":{"ha":825,"x_min":-22,"x_max":858,"o":"m 601 -12 q 537 -11 582 -12 q 433 -8 492 -10 q 313 -5 375 -7 q 197 -1 251 -3 q 108 1 143 0 q 65 3 72 3 l 18 -1 q -19 17 -15 -1 q -17 43 -22 35 q 2 82 -10 51 q 27 156 14 113 q 50 247 40 200 q 78 374 60 289 q 124 589 97 460 q 185 874 151 717 q 258 1214 218 1031 q 236 1242 236 1215 q 276 1288 236 1267 q 318 1331 276 1331 q 342 1310 340 1331 q 460 1329 389 1321 q 605 1342 531 1338 q 741 1345 679 1346 q 832 1340 803 1344 q 858 1319 858 1336 q 847 1289 858 1299 q 825 1279 835 1279 q 583 1276 678 1279 q 431 1265 489 1272 q 332 1243 372 1257 q 300 1119 315 1188 q 270 978 285 1050 q 242 838 256 906 q 215 719 228 771 q 296 715 243 717 q 409 714 349 714 q 522 715 469 714 q 599 717 574 715 q 619 709 615 717 q 622 694 622 701 q 588 656 622 663 q 507 649 553 649 l 201 656 q 169 524 188 603 q 131 358 150 444 q 93 192 111 271 q 60 63 75 114 q 347 57 235 60 q 524 53 460 54 q 620 51 589 51 q 662 51 651 51 q 676 52 672 51 q 692 54 681 53 q 715 31 715 47 q 690 -5 715 3 q 601 -12 664 -12 m 338 -217 q 304 -211 315 -217 l 299 -211 q 258 -164 258 -211 q 278 -121 258 -140 q 322 -101 299 -101 q 367 -118 346 -101 q 390 -164 390 -142 q 374 -201 390 -186 q 338 -217 357 -217 z "},"È":{"ha":825,"x_min":-22,"x_max":858,"o":"m 601 -12 q 537 -11 582 -12 q 433 -8 492 -10 q 313 -5 375 -7 q 197 -1 251 -3 q 108 1 143 0 q 65 3 72 3 l 18 -1 q -19 17 -15 -1 q -17 43 -22 35 q 2 82 -10 51 q 27 156 14 113 q 50 247 40 200 q 78 374 60 289 q 124 589 97 460 q 185 874 151 717 q 258 1214 218 1031 q 236 1242 236 1215 q 276 1288 236 1267 q 318 1331 276 1331 q 342 1310 340 1331 q 460 1329 389 1321 q 605 1342 531 1338 q 741 1345 679 1346 q 832 1340 803 1344 q 858 1319 858 1336 q 847 1289 858 1299 q 825 1279 835 1279 q 583 1276 678 1279 q 431 1265 489 1272 q 332 1243 372 1257 q 300 1119 315 1188 q 270 978 285 1050 q 242 838 256 906 q 215 719 228 771 q 296 715 243 717 q 409 714 349 714 q 522 715 469 714 q 599 717 574 715 q 619 709 615 717 q 622 694 622 701 q 588 656 622 663 q 507 649 553 649 l 201 656 q 169 524 188 603 q 131 358 150 444 q 93 192 111 271 q 60 63 75 114 q 347 57 235 60 q 524 53 460 54 q 620 51 589 51 q 662 51 651 51 q 676 52 672 51 q 692 54 681 53 q 715 31 715 47 q 690 -5 715 3 q 601 -12 664 -12 m 651 1431 q 628 1440 638 1431 q 547 1560 572 1514 q 507 1653 521 1606 q 519 1683 507 1671 q 543 1696 531 1696 q 571 1672 564 1696 q 604 1595 582 1633 q 681 1488 626 1557 q 685 1479 683 1483 q 686 1468 686 1475 q 675 1442 686 1454 q 651 1431 664 1431 z "},"Ẻ":{"ha":825,"x_min":-22,"x_max":858,"o":"m 601 -12 q 537 -11 582 -12 q 433 -8 492 -10 q 313 -5 375 -7 q 197 -1 251 -3 q 108 1 143 0 q 65 3 72 3 l 18 -1 q -19 17 -15 -1 q -17 43 -22 35 q 2 82 -10 51 q 27 156 14 113 q 50 247 40 200 q 78 374 60 289 q 124 589 97 460 q 185 874 151 717 q 258 1214 218 1031 q 236 1242 236 1215 q 276 1288 236 1267 q 318 1331 276 1331 q 342 1310 340 1331 q 460 1329 389 1321 q 605 1342 531 1338 q 741 1345 679 1346 q 832 1340 803 1344 q 858 1319 858 1336 q 847 1289 858 1299 q 825 1279 835 1279 q 583 1276 678 1279 q 431 1265 489 1272 q 332 1243 372 1257 q 300 1119 315 1188 q 270 978 285 1050 q 242 838 256 906 q 215 719 228 771 q 296 715 243 717 q 409 714 349 714 q 522 715 469 714 q 599 717 574 715 q 619 709 615 717 q 622 694 622 701 q 588 656 622 663 q 507 649 553 649 l 201 656 q 169 524 188 603 q 131 358 150 444 q 93 192 111 271 q 60 63 75 114 q 347 57 235 60 q 524 53 460 54 q 620 51 589 51 q 662 51 651 51 q 676 52 672 51 q 692 54 681 53 q 715 31 715 47 q 690 -5 715 3 q 601 -12 664 -12 m 560 1444 q 568 1519 550 1493 q 625 1569 586 1544 q 664 1601 649 1585 q 679 1657 679 1618 q 672 1701 679 1685 q 632 1718 664 1718 q 588 1707 603 1718 q 565 1685 574 1696 q 547 1674 557 1674 q 522 1703 522 1676 q 557 1755 522 1735 q 625 1775 592 1775 q 716 1746 692 1775 q 740 1660 740 1717 q 722 1592 740 1621 q 664 1529 704 1563 q 617 1492 633 1503 q 604 1450 600 1481 q 601 1427 607 1435 q 586 1419 594 1419 q 569 1425 576 1419 q 560 1444 563 1431 z "},"Ȇ":{"ha":825,"x_min":-22,"x_max":858,"o":"m 601 -12 q 537 -11 582 -12 q 433 -8 492 -10 q 313 -5 375 -7 q 197 -1 251 -3 q 108 1 143 0 q 65 3 72 3 l 18 -1 q -19 17 -15 -1 q -17 43 -22 35 q 2 82 -10 51 q 27 156 14 113 q 50 247 40 200 q 78 374 60 289 q 124 589 97 460 q 185 874 151 717 q 258 1214 218 1031 q 236 1242 236 1215 q 276 1288 236 1267 q 318 1331 276 1331 q 342 1310 340 1331 q 460 1329 389 1321 q 605 1342 531 1338 q 741 1345 679 1346 q 832 1340 803 1344 q 858 1319 858 1336 q 847 1289 858 1299 q 825 1279 835 1279 q 583 1276 678 1279 q 431 1265 489 1272 q 332 1243 372 1257 q 300 1119 315 1188 q 270 978 285 1050 q 242 838 256 906 q 215 719 228 771 q 296 715 243 717 q 409 714 349 714 q 522 715 469 714 q 599 717 574 715 q 619 709 615 717 q 622 694 622 701 q 588 656 622 663 q 507 649 553 649 l 201 656 q 169 524 188 603 q 131 358 150 444 q 93 192 111 271 q 60 63 75 114 q 347 57 235 60 q 524 53 460 54 q 620 51 589 51 q 662 51 651 51 q 676 52 672 51 q 692 54 681 53 q 715 31 715 47 q 690 -5 715 3 q 601 -12 664 -12 m 678 1718 q 779 1663 743 1718 q 815 1521 815 1607 q 805 1490 815 1503 q 783 1478 794 1478 q 767 1492 772 1478 q 763 1517 765 1499 q 756 1567 760 1536 q 686 1656 744 1656 q 567 1605 617 1656 q 472 1476 518 1554 q 450 1465 463 1465 q 432 1489 432 1465 q 436 1508 432 1501 q 551 1659 489 1600 q 678 1718 613 1718 z "},"Ē":{"ha":825,"x_min":-22,"x_max":858,"o":"m 601 -12 q 537 -11 582 -12 q 433 -8 492 -10 q 313 -5 375 -7 q 197 -1 251 -3 q 108 1 143 0 q 65 3 72 3 l 18 -1 q -19 17 -15 -1 q -17 43 -22 35 q 2 82 -10 51 q 27 156 14 113 q 50 247 40 200 q 78 374 60 289 q 124 589 97 460 q 185 874 151 717 q 258 1214 218 1031 q 236 1242 236 1215 q 276 1288 236 1267 q 318 1331 276 1331 q 342 1310 340 1331 q 460 1329 389 1321 q 605 1342 531 1338 q 741 1345 679 1346 q 832 1340 803 1344 q 858 1319 858 1336 q 847 1289 858 1299 q 825 1279 835 1279 q 583 1276 678 1279 q 431 1265 489 1272 q 332 1243 372 1257 q 300 1119 315 1188 q 270 978 285 1050 q 242 838 256 906 q 215 719 228 771 q 296 715 243 717 q 409 714 349 714 q 522 715 469 714 q 599 717 574 715 q 619 709 615 717 q 622 694 622 701 q 588 656 622 663 q 507 649 553 649 l 201 656 q 169 524 188 603 q 131 358 150 444 q 93 192 111 271 q 60 63 75 114 q 347 57 235 60 q 524 53 460 54 q 620 51 589 51 q 662 51 651 51 q 676 52 672 51 q 692 54 681 53 q 715 31 715 47 q 690 -5 715 3 q 601 -12 664 -12 m 547 1490 q 484 1501 508 1493 q 460 1532 460 1510 q 472 1559 460 1550 q 500 1565 483 1568 q 581 1557 546 1560 q 647 1553 615 1554 q 718 1554 679 1553 q 813 1560 757 1556 q 835 1535 835 1551 q 797 1496 835 1507 q 747 1490 782 1492 q 672 1489 713 1489 q 598 1490 632 1489 q 547 1490 564 1490 z "},"Ę":{"ha":825,"x_min":-22,"x_max":858,"o":"m 601 -12 q 537 -11 582 -12 q 433 -8 492 -10 q 313 -5 375 -7 q 197 -1 251 -3 q 108 1 143 0 q 65 3 72 3 l 18 -1 q -19 17 -15 -1 q -17 43 -22 35 q 2 82 -10 51 q 27 156 14 113 q 50 247 40 200 q 78 374 60 289 q 124 589 97 460 q 185 874 151 717 q 258 1214 218 1031 q 236 1242 236 1215 q 276 1288 236 1267 q 318 1331 276 1331 q 342 1310 340 1331 q 460 1329 389 1321 q 605 1342 531 1338 q 741 1345 679 1346 q 832 1340 803 1344 q 858 1319 858 1336 q 847 1289 858 1299 q 825 1279 835 1279 q 583 1276 678 1279 q 431 1265 489 1272 q 332 1243 372 1257 q 300 1119 315 1188 q 270 978 285 1050 q 242 838 256 906 q 215 719 228 771 q 296 715 243 717 q 409 714 349 714 q 522 715 469 714 q 599 717 574 715 q 619 709 615 717 q 622 694 622 701 q 588 656 622 663 q 507 649 553 649 l 201 656 q 169 524 188 603 q 131 358 150 444 q 93 192 111 271 q 60 63 75 114 q 347 57 235 60 q 524 53 460 54 q 620 51 589 51 q 662 51 651 51 q 676 52 672 51 q 692 54 681 53 q 715 31 715 47 q 690 -5 715 3 q 601 -12 664 -12 m 718 13 q 689 -74 725 -42 q 592 -135 653 -106 q 533 -175 551 -154 q 515 -235 515 -196 q 525 -269 515 -257 q 560 -281 535 -281 q 597 -276 581 -281 q 638 -251 614 -271 q 679 -226 669 -226 q 704 -256 704 -226 q 688 -289 704 -269 q 644 -324 672 -308 q 560 -344 601 -344 q 479 -312 504 -344 q 454 -237 454 -281 q 474 -156 454 -193 q 553 -89 493 -119 q 622 -56 594 -68 q 663 -31 649 -44 q 674 7 676 -17 q 693 40 669 40 q 718 13 714 40 z "},"Ẽ":{"ha":825,"x_min":-22,"x_max":858,"o":"m 601 -12 q 537 -11 582 -12 q 433 -8 492 -10 q 313 -5 375 -7 q 197 -1 251 -3 q 108 1 143 0 q 65 3 72 3 l 18 -1 q -19 17 -15 -1 q -17 43 -22 35 q 2 82 -10 51 q 27 156 14 113 q 50 247 40 200 q 78 374 60 289 q 124 589 97 460 q 185 874 151 717 q 258 1214 218 1031 q 236 1242 236 1215 q 276 1288 236 1267 q 318 1331 276 1331 q 342 1310 340 1331 q 460 1329 389 1321 q 605 1342 531 1338 q 741 1345 679 1346 q 832 1340 803 1344 q 858 1319 858 1336 q 847 1289 858 1299 q 825 1279 835 1279 q 583 1276 678 1279 q 431 1265 489 1272 q 332 1243 372 1257 q 300 1119 315 1188 q 270 978 285 1050 q 242 838 256 906 q 215 719 228 771 q 296 715 243 717 q 409 714 349 714 q 522 715 469 714 q 599 717 574 715 q 619 709 615 717 q 622 694 622 701 q 588 656 622 663 q 507 649 553 649 l 201 656 q 169 524 188 603 q 131 358 150 444 q 93 192 111 271 q 60 63 75 114 q 347 57 235 60 q 524 53 460 54 q 620 51 589 51 q 662 51 651 51 q 676 52 672 51 q 692 54 681 53 q 715 31 715 47 q 690 -5 715 3 q 601 -12 664 -12 m 704 1479 q 651 1492 674 1479 q 610 1519 629 1504 q 572 1546 590 1533 q 538 1558 553 1558 q 481 1508 504 1558 q 449 1492 468 1492 q 424 1515 424 1492 q 424 1523 424 1519 q 426 1531 425 1526 q 532 1625 475 1625 q 607 1599 561 1625 q 676 1560 651 1572 q 726 1549 700 1549 q 753 1554 753 1549 l 753 1563 l 746 1600 q 758 1631 746 1618 q 785 1643 771 1643 q 813 1578 813 1643 q 754 1488 813 1511 q 704 1479 733 1479 z "},"Ə":{"ha":918,"x_min":86,"x_max":864,"o":"m 314 -31 q 128 410 128 -31 q 131 512 128 461 q 142 613 135 563 q 128 613 135 613 q 115 611 122 613 q 86 635 86 615 q 157 678 86 674 l 499 678 q 600 685 563 682 q 660 688 638 688 q 702 690 683 689 q 747 690 721 690 l 776 690 q 794 899 793 794 q 772 1092 794 1004 q 702 1232 750 1179 q 572 1285 654 1285 q 382 1208 488 1285 l 333 1172 q 304 1158 315 1158 q 281 1185 281 1158 q 301 1218 281 1206 q 333 1241 317 1229 q 365 1265 350 1253 q 583 1353 485 1353 q 689 1325 638 1353 q 781 1241 742 1294 q 842 1110 819 1188 q 860 1000 857 1058 q 864 868 864 942 q 824 560 864 719 q 710 265 783 401 q 533 50 635 131 q 314 -31 432 -31 m 339 33 q 463 71 406 33 q 569 172 521 108 q 656 313 618 235 q 722 472 694 390 q 765 626 750 554 q 677 625 722 626 q 583 619 632 624 q 531 617 567 618 q 451 616 494 617 q 365 615 407 615 q 290 615 322 615 q 246 615 257 615 l 204 615 q 194 527 197 571 q 190 439 190 483 q 206 234 190 326 q 254 88 221 142 q 339 33 288 33 z "},"F":{"ha":1053,"x_min":82,"x_max":1257,"o":"m 226 -36 q 203 -8 206 -36 q 259 271 236 149 q 299 492 282 393 q 326 678 315 592 q 302 676 321 676 q 262 676 283 675 q 225 684 240 678 q 210 703 210 690 q 222 732 210 725 q 253 739 235 739 q 289 739 272 739 l 338 740 l 342 775 q 368 960 353 864 q 406 1157 383 1056 q 234 1101 294 1128 q 147 1056 174 1074 q 107 1039 119 1039 q 82 1064 82 1039 q 110 1108 82 1086 q 183 1147 139 1129 q 276 1181 228 1165 q 363 1207 324 1196 q 422 1224 403 1218 q 435 1274 429 1251 q 446 1315 440 1297 q 481 1336 461 1336 q 505 1322 501 1336 q 499 1293 508 1308 l 489 1242 q 1233 1329 811 1322 q 1257 1306 1257 1322 q 1247 1281 1257 1293 q 1222 1265 1238 1269 q 826 1240 1013 1263 q 475 1175 639 1218 q 448 1042 461 1100 q 424 924 435 983 q 406 785 414 865 l 401 747 q 579 762 507 757 q 709 769 651 767 q 824 771 767 771 q 839 763 835 771 q 843 749 843 756 q 833 723 843 735 q 807 708 822 711 q 745 705 789 707 q 642 701 701 703 q 519 695 583 699 q 393 685 454 692 q 364 499 381 597 q 328 304 347 400 q 293 127 310 208 q 264 -8 276 46 q 226 -36 251 -36 z "},"G":{"ha":1035,"x_min":57,"x_max":1000,"o":"m 568 -622 q 543 -593 546 -622 q 588 -340 568 -443 q 626 -163 608 -237 q 663 -29 644 -89 q 700 93 681 31 q 369 -21 574 -21 q 233 14 292 -21 q 135 107 174 49 q 76 238 96 165 q 57 388 57 311 q 79 597 57 489 q 140 811 101 706 q 232 1010 179 917 q 346 1176 285 1104 q 474 1288 407 1247 q 607 1329 540 1329 q 794 1259 725 1329 q 883 1069 863 1189 q 862 1027 878 1025 q 826 1061 846 1029 q 788 1133 806 1093 q 607 1264 733 1264 q 478 1223 540 1264 q 363 1113 417 1182 q 264 955 308 1043 q 188 772 219 867 q 138 585 156 676 q 121 417 121 493 q 144 233 121 319 q 225 94 168 147 q 379 42 282 42 q 707 175 619 42 q 738 241 731 211 q 746 299 746 271 q 713 344 742 311 q 644 414 683 376 q 568 476 604 451 q 365 443 479 458 q 338 468 338 446 q 354 500 338 486 q 511 565 444 565 q 589 544 551 565 q 967 649 758 582 q 1000 625 1000 649 q 994 604 1000 617 q 838 299 906 458 q 725 -33 771 140 q 688 -184 703 -117 q 660 -314 672 -251 q 635 -441 647 -376 q 607 -583 622 -506 q 592 -611 606 -600 q 568 -622 579 -622 m 793 346 q 816 394 801 363 q 848 460 831 425 q 880 524 865 494 q 903 565 894 553 q 656 494 778 524 q 708 442 681 472 q 760 385 736 411 q 793 346 783 358 z "},"Ğ":{"ha":1035,"x_min":57,"x_max":1000,"o":"m 568 -622 q 543 -593 546 -622 q 588 -340 568 -443 q 626 -163 608 -237 q 663 -29 644 -89 q 700 93 681 31 q 369 -21 574 -21 q 233 14 292 -21 q 135 107 174 49 q 76 238 96 165 q 57 388 57 311 q 79 597 57 489 q 140 811 101 706 q 232 1010 179 917 q 346 1176 285 1104 q 474 1288 407 1247 q 607 1329 540 1329 q 794 1259 725 1329 q 883 1069 863 1189 q 862 1027 878 1025 q 826 1061 846 1029 q 788 1133 806 1093 q 607 1264 733 1264 q 478 1223 540 1264 q 363 1113 417 1182 q 264 955 308 1043 q 188 772 219 867 q 138 585 156 676 q 121 417 121 493 q 144 233 121 319 q 225 94 168 147 q 379 42 282 42 q 707 175 619 42 q 738 241 731 211 q 746 299 746 271 q 713 344 742 311 q 644 414 683 376 q 568 476 604 451 q 365 443 479 458 q 338 468 338 446 q 354 500 338 486 q 511 565 444 565 q 589 544 551 565 q 967 649 758 582 q 1000 625 1000 649 q 994 604 1000 617 q 838 299 906 458 q 725 -33 771 140 q 688 -184 703 -117 q 660 -314 672 -251 q 635 -441 647 -376 q 607 -583 622 -506 q 592 -611 606 -600 q 568 -622 579 -622 m 793 346 q 816 394 801 363 q 848 460 831 425 q 880 524 865 494 q 903 565 894 553 q 656 494 778 524 q 708 442 681 472 q 760 385 736 411 q 793 346 783 358 m 617 1433 q 515 1489 551 1433 q 479 1631 479 1544 q 490 1661 479 1649 q 511 1674 500 1674 q 528 1660 522 1674 q 532 1634 529 1653 q 539 1585 535 1615 q 608 1496 550 1496 q 727 1547 678 1496 q 822 1675 776 1597 q 844 1686 832 1686 q 863 1663 863 1686 q 858 1643 863 1650 q 744 1492 806 1551 q 617 1433 682 1433 z "},"Ǧ":{"ha":1035,"x_min":57,"x_max":1000,"o":"m 568 -622 q 543 -593 546 -622 q 588 -340 568 -443 q 626 -163 608 -237 q 663 -29 644 -89 q 700 93 681 31 q 369 -21 574 -21 q 233 14 292 -21 q 135 107 174 49 q 76 238 96 165 q 57 388 57 311 q 79 597 57 489 q 140 811 101 706 q 232 1010 179 917 q 346 1176 285 1104 q 474 1288 407 1247 q 607 1329 540 1329 q 794 1259 725 1329 q 883 1069 863 1189 q 862 1027 878 1025 q 826 1061 846 1029 q 788 1133 806 1093 q 607 1264 733 1264 q 478 1223 540 1264 q 363 1113 417 1182 q 264 955 308 1043 q 188 772 219 867 q 138 585 156 676 q 121 417 121 493 q 144 233 121 319 q 225 94 168 147 q 379 42 282 42 q 707 175 619 42 q 738 241 731 211 q 746 299 746 271 q 713 344 742 311 q 644 414 683 376 q 568 476 604 451 q 365 443 479 458 q 338 468 338 446 q 354 500 338 486 q 511 565 444 565 q 589 544 551 565 q 967 649 758 582 q 1000 625 1000 649 q 994 604 1000 617 q 838 299 906 458 q 725 -33 771 140 q 688 -184 703 -117 q 660 -314 672 -251 q 635 -441 647 -376 q 607 -583 622 -506 q 592 -611 606 -600 q 568 -622 579 -622 m 793 346 q 816 394 801 363 q 848 460 831 425 q 880 524 865 494 q 903 565 894 553 q 656 494 778 524 q 708 442 681 472 q 760 385 736 411 q 793 346 783 358 m 611 1419 q 588 1435 596 1419 q 565 1475 579 1450 q 461 1599 515 1572 q 434 1613 444 1607 q 424 1633 424 1619 q 436 1658 424 1647 q 467 1668 449 1668 q 519 1644 492 1668 q 573 1585 546 1621 q 622 1511 600 1550 q 663 1575 647 1551 q 701 1623 679 1599 q 765 1689 724 1647 q 792 1700 779 1700 q 817 1676 817 1700 q 806 1649 817 1663 q 736 1576 760 1603 q 697 1525 713 1549 q 660 1464 682 1501 q 638 1431 649 1443 q 611 1419 626 1419 z "},"Ĝ":{"ha":1035,"x_min":57,"x_max":1000,"o":"m 568 -622 q 543 -593 546 -622 q 588 -340 568 -443 q 626 -163 608 -237 q 663 -29 644 -89 q 700 93 681 31 q 369 -21 574 -21 q 233 14 292 -21 q 135 107 174 49 q 76 238 96 165 q 57 388 57 311 q 79 597 57 489 q 140 811 101 706 q 232 1010 179 917 q 346 1176 285 1104 q 474 1288 407 1247 q 607 1329 540 1329 q 794 1259 725 1329 q 883 1069 863 1189 q 862 1027 878 1025 q 826 1061 846 1029 q 788 1133 806 1093 q 607 1264 733 1264 q 478 1223 540 1264 q 363 1113 417 1182 q 264 955 308 1043 q 188 772 219 867 q 138 585 156 676 q 121 417 121 493 q 144 233 121 319 q 225 94 168 147 q 379 42 282 42 q 707 175 619 42 q 738 241 731 211 q 746 299 746 271 q 713 344 742 311 q 644 414 683 376 q 568 476 604 451 q 365 443 479 458 q 338 468 338 446 q 354 500 338 486 q 511 565 444 565 q 589 544 551 565 q 967 649 758 582 q 1000 625 1000 649 q 994 604 1000 617 q 838 299 906 458 q 725 -33 771 140 q 688 -184 703 -117 q 660 -314 672 -251 q 635 -441 647 -376 q 607 -583 622 -506 q 592 -611 606 -600 q 568 -622 579 -622 m 793 346 q 816 394 801 363 q 848 460 831 425 q 880 524 865 494 q 903 565 894 553 q 656 494 778 524 q 708 442 681 472 q 760 385 736 411 q 793 346 783 358 m 733 1431 q 690 1455 714 1431 q 643 1517 665 1479 q 607 1593 621 1554 q 602 1585 604 1589 q 597 1576 600 1581 q 490 1440 579 1538 q 467 1432 478 1432 q 442 1454 442 1432 q 492 1532 442 1478 q 532 1581 515 1560 q 556 1617 549 1603 q 592 1675 571 1644 q 639 1706 614 1706 q 664 1679 664 1706 l 663 1663 q 678 1606 663 1642 q 717 1538 693 1571 q 767 1486 742 1504 q 772 1465 772 1476 q 760 1441 772 1451 q 733 1431 749 1431 z "},"Ģ":{"ha":1035,"x_min":57,"x_max":1000,"o":"m 568 -622 q 543 -593 546 -622 q 588 -340 568 -443 q 626 -163 608 -237 q 663 -29 644 -89 q 700 93 681 31 q 369 -21 574 -21 q 233 14 292 -21 q 135 107 174 49 q 76 238 96 165 q 57 388 57 311 q 79 597 57 489 q 140 811 101 706 q 232 1010 179 917 q 346 1176 285 1104 q 474 1288 407 1247 q 607 1329 540 1329 q 794 1259 725 1329 q 883 1069 863 1189 q 862 1027 878 1025 q 826 1061 846 1029 q 788 1133 806 1093 q 607 1264 733 1264 q 478 1223 540 1264 q 363 1113 417 1182 q 264 955 308 1043 q 188 772 219 867 q 138 585 156 676 q 121 417 121 493 q 144 233 121 319 q 225 94 168 147 q 379 42 282 42 q 707 175 619 42 q 738 241 731 211 q 746 299 746 271 q 713 344 742 311 q 644 414 683 376 q 568 476 604 451 q 365 443 479 458 q 338 468 338 446 q 354 500 338 486 q 511 565 444 565 q 589 544 551 565 q 967 649 758 582 q 1000 625 1000 649 q 994 604 1000 617 q 838 299 906 458 q 725 -33 771 140 q 688 -184 703 -117 q 660 -314 672 -251 q 635 -441 647 -376 q 607 -583 622 -506 q 592 -611 606 -600 q 568 -622 579 -622 m 793 346 q 816 394 801 363 q 848 460 831 425 q 880 524 865 494 q 903 565 894 553 q 656 494 778 524 q 708 442 681 472 q 760 385 736 411 q 793 346 783 358 m 239 -390 q 207 -358 207 -390 q 218 -338 207 -358 q 246 -287 229 -318 q 281 -222 263 -256 q 313 -160 299 -187 q 335 -118 328 -132 q 369 -96 351 -96 q 394 -119 394 -96 q 385 -150 394 -132 q 358 -206 375 -169 q 319 -282 342 -242 q 269 -356 296 -322 q 258 -380 268 -369 q 239 -390 247 -390 z "},"Ġ":{"ha":1035,"x_min":57,"x_max":1000,"o":"m 568 -622 q 543 -593 546 -622 q 588 -340 568 -443 q 626 -163 608 -237 q 663 -29 644 -89 q 700 93 681 31 q 369 -21 574 -21 q 233 14 292 -21 q 135 107 174 49 q 76 238 96 165 q 57 388 57 311 q 79 597 57 489 q 140 811 101 706 q 232 1010 179 917 q 346 1176 285 1104 q 474 1288 407 1247 q 607 1329 540 1329 q 794 1259 725 1329 q 883 1069 863 1189 q 862 1027 878 1025 q 826 1061 846 1029 q 788 1133 806 1093 q 607 1264 733 1264 q 478 1223 540 1264 q 363 1113 417 1182 q 264 955 308 1043 q 188 772 219 867 q 138 585 156 676 q 121 417 121 493 q 144 233 121 319 q 225 94 168 147 q 379 42 282 42 q 707 175 619 42 q 738 241 731 211 q 746 299 746 271 q 713 344 742 311 q 644 414 683 376 q 568 476 604 451 q 365 443 479 458 q 338 468 338 446 q 354 500 338 486 q 511 565 444 565 q 589 544 551 565 q 967 649 758 582 q 1000 625 1000 649 q 994 604 1000 617 q 838 299 906 458 q 725 -33 771 140 q 688 -184 703 -117 q 660 -314 672 -251 q 635 -441 647 -376 q 607 -583 622 -506 q 592 -611 606 -600 q 568 -622 579 -622 m 793 346 q 816 394 801 363 q 848 460 831 425 q 880 524 865 494 q 903 565 894 553 q 656 494 778 524 q 708 442 681 472 q 760 385 736 411 q 793 346 783 358 m 624 1453 q 590 1458 601 1453 l 585 1458 q 544 1506 544 1458 q 565 1549 544 1529 q 608 1568 585 1568 q 653 1551 632 1568 q 676 1506 676 1528 q 660 1468 676 1483 q 624 1453 643 1453 z "},"H":{"ha":1163,"x_min":133,"x_max":1163,"o":"m 157 -47 q 133 -19 136 -47 q 217 307 172 139 q 306 632 263 475 q 244 602 260 618 q 228 560 228 586 q 223 532 228 544 q 194 519 218 519 q 165 560 165 519 q 203 642 165 613 q 322 693 240 671 q 348 821 336 750 q 369 966 360 892 q 387 1108 379 1040 q 400 1230 394 1176 q 410 1311 406 1283 q 450 1344 414 1344 q 474 1321 475 1344 q 390 711 457 1124 q 627 756 494 739 q 919 779 760 772 q 959 1046 940 929 q 992 1235 978 1163 q 1007 1325 1006 1308 q 1022 1349 1010 1340 q 1047 1358 1035 1358 q 1063 1353 1056 1358 q 1071 1335 1071 1347 q 1063 1283 1071 1329 q 1044 1169 1056 1238 q 1021 1026 1033 1101 q 999 885 1008 951 q 983 781 989 819 l 1139 781 q 1157 773 1151 781 q 1163 756 1163 765 q 1153 733 1163 744 q 1129 717 1144 721 q 1044 717 1078 717 q 974 718 1010 718 q 937 501 961 618 q 892 261 913 383 q 867 24 871 139 q 852 -4 865 7 q 826 -15 839 -15 q 803 14 806 -15 q 817 173 806 86 q 844 344 829 260 q 873 494 860 428 q 892 593 886 561 l 911 715 q 374 644 589 703 q 315 420 346 528 q 255 206 285 313 q 196 -19 225 99 q 157 -47 181 -47 z "},"Ħ":{"ha":1163,"x_min":133,"x_max":1239,"o":"m 157 -47 q 133 -19 136 -47 q 217 307 172 139 q 306 632 263 475 q 244 602 260 618 q 228 560 228 586 q 223 532 228 544 q 194 519 218 519 q 165 560 165 519 q 203 642 165 613 q 322 693 240 671 q 353 853 339 763 q 378 1031 367 943 q 266 1032 300 1028 q 224 1044 232 1036 q 215 1065 215 1053 q 227 1089 215 1078 q 251 1100 239 1100 q 269 1096 264 1100 l 386 1101 q 400 1226 394 1171 q 410 1311 406 1282 q 450 1344 414 1344 q 474 1321 475 1344 q 449 1104 467 1235 l 689 1114 q 972 1126 826 1122 q 996 1260 986 1208 q 1007 1325 1006 1311 q 1022 1349 1010 1340 q 1047 1358 1035 1358 q 1063 1353 1056 1358 q 1071 1335 1071 1347 q 1060 1269 1071 1329 q 1038 1128 1050 1208 q 1215 1129 1128 1129 q 1233 1122 1226 1129 q 1239 1106 1239 1114 q 1229 1081 1239 1093 q 1206 1065 1219 1069 q 1026 1064 1115 1065 q 1001 903 1014 981 q 983 781 989 825 l 1139 781 q 1157 773 1151 781 q 1163 756 1163 765 q 1153 733 1163 744 q 1129 717 1144 721 q 1044 717 1078 717 q 974 718 1010 718 q 937 501 961 618 q 892 261 913 383 q 867 24 871 139 q 852 -4 865 7 q 826 -15 839 -15 q 803 14 806 -15 q 817 173 806 86 q 844 344 829 260 q 873 494 860 428 q 892 593 886 561 l 911 715 q 374 644 589 703 q 315 420 346 528 q 255 206 285 313 q 196 -19 225 99 q 157 -47 181 -47 m 735 1049 l 565 1039 q 439 1032 492 1035 q 390 711 419 892 q 627 756 494 739 q 919 779 760 772 q 941 931 931 860 q 961 1061 951 1001 q 838 1056 896 1060 q 735 1049 779 1053 z "},"Ĥ":{"ha":1163,"x_min":133,"x_max":1163,"o":"m 157 -47 q 133 -19 136 -47 q 217 307 172 139 q 306 632 263 475 q 244 602 260 618 q 228 560 228 586 q 223 532 228 544 q 194 519 218 519 q 165 560 165 519 q 203 642 165 613 q 322 693 240 671 q 348 821 336 750 q 369 966 360 892 q 387 1108 379 1040 q 400 1230 394 1176 q 410 1311 406 1283 q 450 1344 414 1344 q 474 1321 475 1344 q 390 711 457 1124 q 627 756 494 739 q 919 779 760 772 q 959 1046 940 929 q 992 1235 978 1163 q 1007 1325 1006 1308 q 1022 1349 1010 1340 q 1047 1358 1035 1358 q 1063 1353 1056 1358 q 1071 1335 1071 1347 q 1063 1283 1071 1329 q 1044 1169 1056 1238 q 1021 1026 1033 1101 q 999 885 1008 951 q 983 781 989 819 l 1139 781 q 1157 773 1151 781 q 1163 756 1163 765 q 1153 733 1163 744 q 1129 717 1144 721 q 1044 717 1078 717 q 974 718 1010 718 q 937 501 961 618 q 892 261 913 383 q 867 24 871 139 q 852 -4 865 7 q 826 -15 839 -15 q 803 14 806 -15 q 817 173 806 86 q 844 344 829 260 q 873 494 860 428 q 892 593 886 561 l 911 715 q 374 644 589 703 q 315 420 346 528 q 255 206 285 313 q 196 -19 225 99 q 157 -47 181 -47 m 899 1435 q 855 1459 879 1435 q 808 1521 831 1483 q 772 1597 786 1558 q 767 1589 769 1593 q 763 1581 765 1585 q 656 1444 744 1542 q 632 1436 643 1436 q 607 1458 607 1436 q 657 1536 607 1482 q 697 1585 681 1564 q 721 1621 714 1607 q 758 1679 736 1649 q 804 1710 779 1710 q 829 1683 829 1710 l 828 1667 q 843 1610 828 1646 q 883 1542 858 1575 q 932 1490 907 1508 q 938 1469 938 1481 q 926 1445 938 1456 q 899 1435 914 1435 z "},"I":{"ha":604,"x_min":68,"x_max":672,"o":"m 367 -14 q 283 -7 326 -14 q 194 3 239 0 q 103 -7 149 7 l 96 -7 q 75 0 82 -7 q 68 17 68 7 q 104 53 68 43 q 204 64 140 64 q 269 389 233 218 q 350 749 306 560 q 425 1067 394 936 q 472 1271 456 1197 l 360 1271 q 333 1297 333 1271 q 346 1321 333 1308 q 376 1333 358 1333 q 513 1333 461 1333 q 595 1333 564 1333 q 651 1332 626 1332 q 672 1310 672 1326 q 661 1284 672 1296 q 635 1269 650 1272 q 569 1270 589 1269 q 538 1271 549 1271 q 369 566 438 868 q 264 63 300 264 q 381 51 354 60 q 407 22 407 42 q 395 1 407 14 q 367 -14 383 -11 z "},"Í":{"ha":604,"x_min":68,"x_max":700,"o":"m 367 -14 q 283 -7 326 -14 q 194 3 239 0 q 103 -7 149 7 l 96 -7 q 75 0 82 -7 q 68 17 68 7 q 104 53 68 43 q 204 64 140 64 q 269 389 233 218 q 350 749 306 560 q 425 1067 394 936 q 472 1271 456 1197 l 360 1271 q 333 1297 333 1271 q 346 1321 333 1308 q 376 1333 358 1333 q 513 1333 461 1333 q 595 1333 564 1333 q 651 1332 626 1332 q 672 1310 672 1326 q 661 1284 672 1296 q 635 1269 650 1272 q 569 1270 589 1269 q 538 1271 549 1271 q 369 566 438 868 q 264 63 300 264 q 381 51 354 60 q 407 22 407 42 q 395 1 407 14 q 367 -14 383 -11 m 532 1431 q 500 1463 500 1431 q 515 1493 500 1471 q 547 1544 531 1513 q 579 1607 564 1575 q 595 1639 588 1622 q 610 1671 603 1656 q 626 1702 618 1686 q 640 1733 633 1718 q 675 1754 656 1754 q 700 1731 700 1754 q 690 1700 700 1718 q 678 1677 685 1690 q 664 1649 672 1664 q 624 1563 650 1617 q 563 1464 597 1508 q 551 1440 561 1450 q 532 1431 540 1431 z "},"Ĭ":{"ha":604,"x_min":68,"x_max":801,"o":"m 367 -14 q 283 -7 326 -14 q 194 3 239 0 q 103 -7 149 7 l 96 -7 q 75 0 82 -7 q 68 17 68 7 q 104 53 68 43 q 204 64 140 64 q 269 389 233 218 q 350 749 306 560 q 425 1067 394 936 q 472 1271 456 1197 l 360 1271 q 333 1297 333 1271 q 346 1321 333 1308 q 376 1333 358 1333 q 513 1333 461 1333 q 595 1333 564 1333 q 651 1332 626 1332 q 672 1310 672 1326 q 661 1284 672 1296 q 635 1269 650 1272 q 569 1270 589 1269 q 538 1271 549 1271 q 369 566 438 868 q 264 63 300 264 q 381 51 354 60 q 407 22 407 42 q 395 1 407 14 q 367 -14 383 -11 m 556 1438 q 454 1493 490 1438 q 418 1635 418 1549 q 428 1665 418 1653 q 450 1678 439 1678 q 467 1664 461 1678 q 471 1638 468 1657 q 478 1589 474 1619 q 547 1500 489 1500 q 666 1551 617 1500 q 761 1679 715 1601 q 783 1690 771 1690 q 801 1667 801 1690 q 797 1647 801 1654 q 683 1497 744 1556 q 556 1438 621 1438 z "},"Î":{"ha":604,"x_min":68,"x_max":711,"o":"m 367 -14 q 283 -7 326 -14 q 194 3 239 0 q 103 -7 149 7 l 96 -7 q 75 0 82 -7 q 68 17 68 7 q 104 53 68 43 q 204 64 140 64 q 269 389 233 218 q 350 749 306 560 q 425 1067 394 936 q 472 1271 456 1197 l 360 1271 q 333 1297 333 1271 q 346 1321 333 1308 q 376 1333 358 1333 q 513 1333 461 1333 q 595 1333 564 1333 q 651 1332 626 1332 q 672 1310 672 1326 q 661 1284 672 1296 q 635 1269 650 1272 q 569 1270 589 1269 q 538 1271 549 1271 q 369 566 438 868 q 264 63 300 264 q 381 51 354 60 q 407 22 407 42 q 395 1 407 14 q 367 -14 383 -11 m 672 1435 q 628 1459 653 1435 q 582 1521 604 1483 q 546 1597 560 1558 q 541 1589 543 1593 q 536 1581 539 1585 q 429 1444 518 1542 q 406 1436 417 1436 q 381 1458 381 1436 q 431 1536 381 1482 q 471 1585 454 1564 q 494 1621 488 1607 q 531 1679 510 1649 q 578 1710 553 1710 q 603 1683 603 1710 l 601 1667 q 617 1610 601 1646 q 656 1542 632 1575 q 706 1490 681 1508 q 711 1469 711 1481 q 699 1445 711 1456 q 672 1435 688 1435 z "},"Ȉ":{"ha":604,"x_min":68,"x_max":672,"o":"m 367 -14 q 283 -7 326 -14 q 194 3 239 0 q 103 -7 149 7 l 96 -7 q 75 0 82 -7 q 68 17 68 7 q 104 53 68 43 q 204 64 140 64 q 269 389 233 218 q 350 749 306 560 q 425 1067 394 936 q 472 1271 456 1197 l 360 1271 q 333 1297 333 1271 q 346 1321 333 1308 q 376 1333 358 1333 q 513 1333 461 1333 q 595 1333 564 1333 q 651 1332 626 1332 q 672 1310 672 1326 q 661 1284 672 1296 q 635 1269 650 1272 q 569 1270 589 1269 q 538 1271 549 1271 q 369 566 438 868 q 264 63 300 264 q 381 51 354 60 q 407 22 407 42 q 395 1 407 14 q 367 -14 383 -11 m 635 1444 q 611 1454 621 1444 q 530 1574 556 1528 q 490 1667 504 1619 q 502 1697 490 1685 q 526 1710 514 1710 q 554 1686 547 1710 q 588 1609 565 1647 q 664 1501 610 1571 q 668 1493 667 1497 q 669 1482 669 1489 q 658 1456 669 1468 q 635 1444 647 1444 m 496 1444 q 472 1454 482 1444 q 391 1574 417 1528 q 351 1667 365 1619 q 363 1697 351 1685 q 388 1710 375 1710 q 415 1686 408 1710 q 449 1609 426 1647 q 525 1501 471 1571 q 529 1493 528 1497 q 531 1482 531 1489 q 519 1456 531 1468 q 496 1444 508 1444 z "},"Ï":{"ha":604,"x_min":68,"x_max":779,"o":"m 367 -14 q 283 -7 326 -14 q 194 3 239 0 q 103 -7 149 7 l 96 -7 q 75 0 82 -7 q 68 17 68 7 q 104 53 68 43 q 204 64 140 64 q 269 389 233 218 q 350 749 306 560 q 425 1067 394 936 q 472 1271 456 1197 l 360 1271 q 333 1297 333 1271 q 346 1321 333 1308 q 376 1333 358 1333 q 513 1333 461 1333 q 595 1333 564 1333 q 651 1332 626 1332 q 672 1310 672 1326 q 661 1284 672 1296 q 635 1269 650 1272 q 569 1270 589 1269 q 538 1271 549 1271 q 369 566 438 868 q 264 63 300 264 q 381 51 354 60 q 407 22 407 42 q 395 1 407 14 q 367 -14 383 -11 m 433 1467 q 405 1490 415 1467 q 394 1532 394 1513 q 414 1588 394 1565 q 458 1610 429 1610 q 490 1594 472 1610 l 490 1596 q 513 1549 513 1569 q 498 1515 513 1535 q 465 1481 483 1496 q 433 1467 446 1467 m 710 1475 q 705 1476 708 1475 q 699 1476 701 1476 q 665 1522 665 1489 q 692 1581 665 1556 q 736 1606 718 1606 q 779 1563 779 1606 q 758 1503 779 1532 q 710 1475 736 1475 z "},"İ":{"ha":604,"x_min":68,"x_max":672,"o":"m 367 -14 q 283 -7 326 -14 q 194 3 239 0 q 103 -7 149 7 l 96 -7 q 75 0 82 -7 q 68 17 68 7 q 104 53 68 43 q 204 64 140 64 q 269 389 233 218 q 350 749 306 560 q 425 1067 394 936 q 472 1271 456 1197 l 360 1271 q 333 1297 333 1271 q 346 1321 333 1308 q 376 1333 358 1333 q 513 1333 461 1333 q 595 1333 564 1333 q 651 1332 626 1332 q 672 1310 672 1326 q 661 1284 672 1296 q 635 1269 650 1272 q 569 1270 589 1269 q 538 1271 549 1271 q 369 566 438 868 q 264 63 300 264 q 381 51 354 60 q 407 22 407 42 q 395 1 407 14 q 367 -14 383 -11 m 563 1457 q 529 1463 540 1457 l 524 1463 q 483 1510 483 1463 q 503 1553 483 1533 q 547 1572 524 1572 q 592 1556 571 1572 q 615 1510 615 1532 q 599 1472 615 1488 q 563 1457 582 1457 z "},"Ị":{"ha":604,"x_min":68,"x_max":672,"o":"m 367 -14 q 283 -7 326 -14 q 194 3 239 0 q 103 -7 149 7 l 96 -7 q 75 0 82 -7 q 68 17 68 7 q 104 53 68 43 q 204 64 140 64 q 269 389 233 218 q 350 749 306 560 q 425 1067 394 936 q 472 1271 456 1197 l 360 1271 q 333 1297 333 1271 q 346 1321 333 1308 q 376 1333 358 1333 q 513 1333 461 1333 q 595 1333 564 1333 q 651 1332 626 1332 q 672 1310 672 1326 q 661 1284 672 1296 q 635 1269 650 1272 q 569 1270 589 1269 q 538 1271 549 1271 q 369 566 438 868 q 264 63 300 264 q 381 51 354 60 q 407 22 407 42 q 395 1 407 14 q 367 -14 383 -11 m 236 -217 q 203 -211 214 -217 l 197 -211 q 157 -164 157 -211 q 177 -121 157 -140 q 221 -101 197 -101 q 265 -118 244 -101 q 289 -164 289 -142 q 272 -201 289 -186 q 236 -217 256 -217 z "},"Ì":{"ha":604,"x_min":68,"x_max":672,"o":"m 367 -14 q 283 -7 326 -14 q 194 3 239 0 q 103 -7 149 7 l 96 -7 q 75 0 82 -7 q 68 17 68 7 q 104 53 68 43 q 204 64 140 64 q 269 389 233 218 q 350 749 306 560 q 425 1067 394 936 q 472 1271 456 1197 l 360 1271 q 333 1297 333 1271 q 346 1321 333 1308 q 376 1333 358 1333 q 513 1333 461 1333 q 595 1333 564 1333 q 651 1332 626 1332 q 672 1310 672 1326 q 661 1284 672 1296 q 635 1269 650 1272 q 569 1270 589 1269 q 538 1271 549 1271 q 369 566 438 868 q 264 63 300 264 q 381 51 354 60 q 407 22 407 42 q 395 1 407 14 q 367 -14 383 -11 m 607 1431 q 583 1440 593 1431 q 502 1560 528 1514 q 463 1653 476 1606 q 474 1683 463 1671 q 499 1696 486 1696 q 526 1672 519 1696 q 560 1595 538 1633 q 636 1488 582 1557 q 640 1479 639 1483 q 642 1468 642 1475 q 631 1442 642 1454 q 607 1431 619 1431 z "},"Ỉ":{"ha":604,"x_min":68,"x_max":696,"o":"m 367 -14 q 283 -7 326 -14 q 194 3 239 0 q 103 -7 149 7 l 96 -7 q 75 0 82 -7 q 68 17 68 7 q 104 53 68 43 q 204 64 140 64 q 269 389 233 218 q 350 749 306 560 q 425 1067 394 936 q 472 1271 456 1197 l 360 1271 q 333 1297 333 1271 q 346 1321 333 1308 q 376 1333 358 1333 q 513 1333 461 1333 q 595 1333 564 1333 q 651 1332 626 1332 q 672 1310 672 1326 q 661 1284 672 1296 q 635 1269 650 1272 q 569 1270 589 1269 q 538 1271 549 1271 q 369 566 438 868 q 264 63 300 264 q 381 51 354 60 q 407 22 407 42 q 395 1 407 14 q 367 -14 383 -11 m 515 1444 q 524 1519 506 1493 q 581 1569 542 1544 q 619 1601 604 1585 q 635 1657 635 1618 q 627 1701 635 1685 q 588 1718 619 1718 q 544 1707 558 1718 q 521 1685 529 1696 q 503 1674 513 1674 q 478 1703 478 1676 q 513 1755 478 1735 q 581 1775 547 1775 q 672 1746 647 1775 q 696 1660 696 1717 q 678 1592 696 1621 q 619 1529 660 1563 q 572 1492 589 1503 q 560 1450 556 1481 q 556 1427 563 1435 q 542 1419 550 1419 q 525 1425 532 1419 q 515 1444 518 1431 z "},"Ȋ":{"ha":604,"x_min":68,"x_max":771,"o":"m 367 -14 q 283 -7 326 -14 q 194 3 239 0 q 103 -7 149 7 l 96 -7 q 75 0 82 -7 q 68 17 68 7 q 104 53 68 43 q 204 64 140 64 q 269 389 233 218 q 350 749 306 560 q 425 1067 394 936 q 472 1271 456 1197 l 360 1271 q 333 1297 333 1271 q 346 1321 333 1308 q 376 1333 358 1333 q 513 1333 461 1333 q 595 1333 564 1333 q 651 1332 626 1332 q 672 1310 672 1326 q 661 1284 672 1296 q 635 1269 650 1272 q 569 1270 589 1269 q 538 1271 549 1271 q 369 566 438 868 q 264 63 300 264 q 381 51 354 60 q 407 22 407 42 q 395 1 407 14 q 367 -14 383 -11 m 633 1718 q 735 1663 699 1718 q 771 1521 771 1607 q 760 1490 771 1503 q 739 1478 750 1478 q 722 1492 728 1478 q 718 1517 721 1499 q 711 1567 715 1536 q 642 1656 700 1656 q 523 1605 572 1656 q 428 1476 474 1554 q 406 1465 418 1465 q 388 1489 388 1465 q 392 1508 388 1501 q 506 1659 444 1600 q 633 1718 568 1718 z "},"Ī":{"ha":604,"x_min":68,"x_max":790,"o":"m 367 -14 q 283 -7 326 -14 q 194 3 239 0 q 103 -7 149 7 l 96 -7 q 75 0 82 -7 q 68 17 68 7 q 104 53 68 43 q 204 64 140 64 q 269 389 233 218 q 350 749 306 560 q 425 1067 394 936 q 472 1271 456 1197 l 360 1271 q 333 1297 333 1271 q 346 1321 333 1308 q 376 1333 358 1333 q 513 1333 461 1333 q 595 1333 564 1333 q 651 1332 626 1332 q 672 1310 672 1326 q 661 1284 672 1296 q 635 1269 650 1272 q 569 1270 589 1269 q 538 1271 549 1271 q 369 566 438 868 q 264 63 300 264 q 381 51 354 60 q 407 22 407 42 q 395 1 407 14 q 367 -14 383 -11 m 503 1490 q 440 1501 464 1493 q 415 1532 415 1510 q 427 1559 415 1550 q 456 1565 439 1568 q 536 1557 501 1560 q 603 1553 571 1554 q 674 1554 635 1553 q 768 1560 713 1556 q 790 1535 790 1551 q 753 1496 790 1507 q 703 1490 738 1492 q 628 1489 668 1489 q 553 1490 588 1489 q 503 1490 519 1490 z "},"Į":{"ha":604,"x_min":68,"x_max":672,"o":"m 367 -14 q 283 -7 326 -14 q 194 3 239 0 q 103 -7 149 7 l 96 -7 q 75 0 82 -7 q 68 17 68 7 q 104 53 68 43 q 204 64 140 64 q 269 389 233 218 q 350 749 306 560 q 425 1067 394 936 q 472 1271 456 1197 l 360 1271 q 333 1297 333 1271 q 346 1321 333 1308 q 376 1333 358 1333 q 513 1333 461 1333 q 595 1333 564 1333 q 651 1332 626 1332 q 672 1310 672 1326 q 661 1284 672 1296 q 635 1269 650 1272 q 569 1270 589 1269 q 538 1271 549 1271 q 369 566 438 868 q 264 63 300 264 q 381 51 354 60 q 407 22 407 42 q 395 1 407 14 q 367 -14 383 -11 m 386 13 q 357 -74 393 -42 q 260 -135 321 -106 q 201 -175 219 -154 q 183 -235 183 -196 q 193 -269 183 -257 q 228 -281 203 -281 q 265 -276 249 -281 q 306 -251 282 -271 q 347 -226 338 -226 q 372 -256 372 -226 q 356 -289 372 -269 q 313 -324 340 -308 q 228 -344 269 -344 q 147 -312 172 -344 q 122 -237 122 -281 q 142 -156 122 -193 q 221 -89 161 -119 q 290 -56 263 -68 q 331 -31 317 -44 q 342 7 344 -17 q 361 40 338 40 q 386 13 382 40 z "},"Ĩ":{"ha":604,"x_min":68,"x_max":768,"o":"m 367 -14 q 283 -7 326 -14 q 194 3 239 0 q 103 -7 149 7 l 96 -7 q 75 0 82 -7 q 68 17 68 7 q 104 53 68 43 q 204 64 140 64 q 269 389 233 218 q 350 749 306 560 q 425 1067 394 936 q 472 1271 456 1197 l 360 1271 q 333 1297 333 1271 q 346 1321 333 1308 q 376 1333 358 1333 q 513 1333 461 1333 q 595 1333 564 1333 q 651 1332 626 1332 q 672 1310 672 1326 q 661 1284 672 1296 q 635 1269 650 1272 q 569 1270 589 1269 q 538 1271 549 1271 q 369 566 438 868 q 264 63 300 264 q 381 51 354 60 q 407 22 407 42 q 395 1 407 14 q 367 -14 383 -11 m 660 1479 q 607 1492 629 1479 q 565 1519 585 1504 q 527 1546 546 1533 q 493 1558 508 1558 q 436 1508 460 1558 q 404 1492 424 1492 q 379 1515 379 1492 q 380 1523 379 1519 q 382 1531 381 1526 q 488 1625 431 1625 q 563 1599 517 1625 q 631 1560 607 1572 q 682 1549 656 1549 q 708 1554 708 1549 l 708 1563 l 701 1600 q 714 1631 701 1618 q 740 1643 726 1643 q 768 1578 768 1643 q 710 1488 768 1511 q 660 1479 689 1479 z "},"J":{"ha":744,"x_min":-54,"x_max":779,"o":"m 201 -18 q -14 143 61 -18 q -54 249 -54 231 q -43 281 -54 268 q -22 293 -32 293 q 6 275 1 293 q 49 162 21 215 q 122 75 78 108 q 225 42 165 42 q 353 83 300 42 q 445 192 407 124 q 509 344 483 260 q 553 515 535 428 q 563 565 554 522 q 586 674 572 608 q 616 817 600 740 q 649 972 632 894 q 678 1114 665 1049 q 701 1220 692 1179 q 711 1267 710 1261 q 610 1239 660 1239 q 529 1249 574 1239 q 441 1270 485 1258 q 363 1285 397 1282 q 343 1307 343 1293 q 356 1335 343 1322 q 382 1349 368 1347 q 453 1335 411 1346 q 538 1314 494 1324 q 611 1304 581 1304 q 703 1331 658 1304 q 727 1336 718 1338 q 753 1336 736 1335 q 779 1313 772 1336 q 740 1146 761 1242 q 697 946 718 1050 q 658 744 676 842 q 626 574 639 647 q 607 468 613 500 q 556 276 586 364 q 478 122 525 188 q 364 19 432 56 q 201 -18 296 -18 z "},"Ĵ":{"ha":744,"x_min":-54,"x_max":779,"o":"m 201 -18 q -14 143 61 -18 q -54 249 -54 231 q -43 281 -54 268 q -22 293 -32 293 q 6 275 1 293 q 49 162 21 215 q 122 75 78 108 q 225 42 165 42 q 353 83 300 42 q 445 192 407 124 q 509 344 483 260 q 553 515 535 428 q 563 565 554 522 q 586 674 572 608 q 616 817 600 740 q 649 972 632 894 q 678 1114 665 1049 q 701 1220 692 1179 q 711 1267 710 1261 q 610 1239 660 1239 q 529 1249 574 1239 q 441 1270 485 1258 q 363 1285 397 1282 q 343 1307 343 1293 q 356 1335 343 1322 q 382 1349 368 1347 q 453 1335 411 1346 q 538 1314 494 1324 q 611 1304 581 1304 q 703 1331 658 1304 q 727 1336 718 1338 q 753 1336 736 1335 q 779 1313 772 1336 q 740 1146 761 1242 q 697 946 718 1050 q 658 744 676 842 q 626 574 639 647 q 607 468 613 500 q 556 276 586 364 q 478 122 525 188 q 364 19 432 56 q 201 -18 296 -18 m 721 1435 q 677 1459 701 1435 q 631 1521 653 1483 q 594 1597 608 1558 q 590 1589 592 1593 q 585 1581 588 1585 q 478 1444 567 1542 q 454 1436 465 1436 q 429 1458 429 1436 q 479 1536 429 1482 q 519 1585 503 1564 q 543 1621 536 1607 q 580 1679 558 1649 q 626 1710 601 1710 q 651 1683 651 1710 l 650 1667 q 665 1610 650 1646 q 705 1542 681 1575 q 754 1490 729 1508 q 760 1469 760 1481 q 748 1445 760 1456 q 721 1435 736 1435 z "},"K":{"ha":851,"x_min":-10,"x_max":865,"o":"m 15 -12 q -10 17 -6 -12 q 61 376 22 190 q 146 763 100 563 q 225 1103 193 964 q 275 1322 257 1243 q 294 1347 282 1338 q 315 1356 306 1356 q 338 1331 338 1356 q 315 1206 325 1261 q 292 1095 304 1150 q 263 971 279 1040 q 222 794 242 882 q 182 617 201 706 q 294 742 221 661 q 474 943 367 824 q 665 1160 581 1063 q 814 1332 750 1257 q 847 1342 829 1343 q 865 1319 865 1342 q 854 1292 865 1304 q 724 1139 803 1229 q 539 929 644 1049 q 363 731 433 811 q 257 608 293 650 q 311 371 269 479 q 410 186 353 263 q 531 76 468 110 q 606 51 564 58 q 690 57 649 44 q 758 110 731 69 q 783 121 772 121 q 811 96 811 121 q 792 58 811 81 q 744 17 772 35 q 693 -6 717 -1 q 549 -1 618 -19 q 413 88 481 17 q 317 218 358 142 q 246 383 275 294 q 201 557 217 471 q 174 529 192 547 q 150 500 157 511 q 91 222 115 340 q 54 26 67 104 q 39 -1 51 10 q 15 -12 26 -12 z "},"Ķ":{"ha":851,"x_min":-10,"x_max":865,"o":"m 15 -12 q -10 17 -6 -12 q 61 376 22 190 q 146 763 100 563 q 225 1103 193 964 q 275 1322 257 1243 q 294 1347 282 1338 q 315 1356 306 1356 q 338 1331 338 1356 q 315 1206 325 1261 q 292 1095 304 1150 q 263 971 279 1040 q 222 794 242 882 q 182 617 201 706 q 294 742 221 661 q 474 943 367 824 q 665 1160 581 1063 q 814 1332 750 1257 q 847 1342 829 1343 q 865 1319 865 1342 q 854 1292 865 1304 q 724 1139 803 1229 q 539 929 644 1049 q 363 731 433 811 q 257 608 293 650 q 311 371 269 479 q 410 186 353 263 q 531 76 468 110 q 606 51 564 58 q 690 57 649 44 q 758 110 731 69 q 783 121 772 121 q 811 96 811 121 q 792 58 811 81 q 744 17 772 35 q 693 -6 717 -1 q 549 -1 618 -19 q 413 88 481 17 q 317 218 358 142 q 246 383 275 294 q 201 557 217 471 q 174 529 192 547 q 150 500 157 511 q 91 222 115 340 q 54 26 67 104 q 39 -1 51 10 q 15 -12 26 -12 m 157 -390 q 125 -358 125 -390 q 136 -338 125 -358 q 164 -287 147 -318 q 199 -222 181 -256 q 231 -160 217 -187 q 253 -118 246 -132 q 288 -96 269 -96 q 313 -119 313 -96 q 303 -150 313 -132 q 276 -206 293 -169 q 237 -282 260 -242 q 188 -356 214 -322 q 176 -380 186 -369 q 157 -390 165 -390 z "},"L":{"ha":747,"x_min":38,"x_max":644,"o":"m 425 -10 q 226 -6 300 -7 q 113 -2 151 -4 q 62 1 75 0 q 49 5 49 3 q 47 8 49 7 q 42 45 38 22 q 61 90 46 68 q 92 166 75 113 q 128 294 110 219 q 164 452 146 368 q 199 619 182 536 q 230 773 215 701 q 254 893 244 844 q 300 1109 279 1008 q 339 1296 321 1210 q 356 1319 343 1310 q 379 1329 368 1329 q 403 1306 399 1329 q 365 1130 388 1238 q 315 878 343 1022 q 292 759 306 829 q 260 608 278 689 q 226 445 243 528 q 192 289 208 363 q 161 159 175 215 q 139 75 147 103 q 379 50 288 50 q 483 54 444 53 q 544 57 521 56 q 583 60 567 58 q 621 64 600 61 q 640 56 636 64 q 644 40 644 49 q 635 17 644 29 q 611 0 625 4 q 517 -7 564 -4 q 425 -10 469 -10 z "},"Ǉ":{"ha":1492,"x_min":38,"x_max":1526,"o":"m 425 -10 q 226 -6 300 -7 q 113 -2 151 -4 q 62 1 75 0 q 49 5 49 3 q 47 8 49 7 q 42 45 38 22 q 61 90 46 68 q 92 166 75 113 q 128 294 110 219 q 164 452 146 368 q 199 619 182 536 q 230 773 215 701 q 254 893 244 844 q 300 1109 279 1008 q 339 1296 321 1210 q 356 1319 343 1310 q 379 1329 368 1329 q 403 1306 399 1329 q 365 1130 388 1238 q 315 878 343 1022 q 292 759 306 829 q 260 608 278 689 q 226 445 243 528 q 192 289 208 363 q 161 159 175 215 q 139 75 147 103 q 379 50 288 50 q 483 54 444 53 q 544 57 521 56 q 583 60 567 58 q 621 64 600 61 q 640 56 636 64 q 644 40 644 49 q 635 17 644 29 q 611 0 625 4 q 517 -7 564 -4 q 425 -10 469 -10 m 949 -18 q 733 143 808 -18 q 693 249 693 231 q 704 281 693 268 q 725 293 715 293 q 753 275 749 293 q 797 162 768 215 q 869 75 825 108 q 972 42 913 42 q 1101 83 1047 42 q 1192 192 1154 124 q 1256 344 1231 260 q 1300 515 1282 428 q 1310 565 1301 522 q 1333 674 1319 608 q 1363 817 1347 740 q 1396 972 1379 894 q 1426 1114 1413 1049 q 1448 1220 1439 1179 q 1458 1267 1457 1261 q 1357 1239 1407 1239 q 1276 1249 1321 1239 q 1188 1270 1232 1258 q 1110 1285 1144 1282 q 1090 1307 1090 1293 q 1103 1335 1090 1322 q 1129 1349 1115 1347 q 1200 1335 1158 1346 q 1285 1314 1242 1324 q 1358 1304 1328 1304 q 1450 1331 1406 1304 q 1474 1336 1465 1338 q 1500 1336 1483 1335 q 1526 1313 1519 1336 q 1487 1146 1508 1242 q 1444 946 1465 1050 q 1405 744 1424 842 q 1373 574 1386 647 q 1354 468 1360 500 q 1303 276 1333 364 q 1226 122 1272 188 q 1111 19 1179 56 q 949 -18 1043 -18 z "},"Ĺ":{"ha":747,"x_min":38,"x_max":644,"o":"m 425 -10 q 226 -6 300 -7 q 113 -2 151 -4 q 62 1 75 0 q 49 5 49 3 q 47 8 49 7 q 42 45 38 22 q 61 90 46 68 q 92 166 75 113 q 128 294 110 219 q 164 452 146 368 q 199 619 182 536 q 230 773 215 701 q 254 893 244 844 q 300 1109 279 1008 q 339 1296 321 1210 q 356 1319 343 1310 q 379 1329 368 1329 q 403 1306 399 1329 q 365 1130 388 1238 q 315 878 343 1022 q 292 759 306 829 q 260 608 278 689 q 226 445 243 528 q 192 289 208 363 q 161 159 175 215 q 139 75 147 103 q 379 50 288 50 q 483 54 444 53 q 544 57 521 56 q 583 60 567 58 q 621 64 600 61 q 640 56 636 64 q 644 40 644 49 q 635 17 644 29 q 611 0 625 4 q 517 -7 564 -4 q 425 -10 469 -10 m 371 1431 q 339 1463 339 1431 q 354 1493 339 1471 q 386 1544 369 1513 q 418 1607 403 1575 q 434 1639 426 1622 q 449 1671 442 1656 q 465 1702 457 1686 q 479 1733 472 1718 q 514 1754 494 1754 q 539 1731 539 1754 q 529 1700 539 1718 q 517 1677 524 1690 q 503 1649 511 1664 q 463 1563 489 1617 q 401 1464 436 1508 q 390 1440 400 1450 q 371 1431 379 1431 z "},"Ľ":{"ha":747,"x_min":38,"x_max":703,"o":"m 425 -10 q 226 -6 300 -7 q 113 -2 151 -4 q 62 1 75 0 q 49 5 49 3 q 47 8 49 7 q 42 45 38 22 q 61 90 46 68 q 92 166 75 113 q 128 294 110 219 q 164 452 146 368 q 199 619 182 536 q 230 773 215 701 q 254 893 244 844 q 300 1109 279 1008 q 339 1296 321 1210 q 356 1319 343 1310 q 379 1329 368 1329 q 403 1306 399 1329 q 365 1130 388 1238 q 315 878 343 1022 q 292 759 306 829 q 260 608 278 689 q 226 445 243 528 q 192 289 208 363 q 161 159 175 215 q 139 75 147 103 q 379 50 288 50 q 483 54 444 53 q 544 57 521 56 q 583 60 567 58 q 621 64 600 61 q 640 56 636 64 q 644 40 644 49 q 635 17 644 29 q 611 0 625 4 q 517 -7 564 -4 q 425 -10 469 -10 m 588 1188 q 563 1213 563 1188 q 571 1236 563 1224 q 604 1285 589 1256 q 629 1340 619 1314 q 639 1375 639 1365 q 621 1365 629 1369 q 601 1361 613 1361 q 574 1390 574 1361 q 592 1439 574 1415 q 643 1463 611 1463 q 703 1388 703 1463 q 681 1294 703 1340 q 632 1217 660 1247 q 588 1188 604 1188 z "},"Ļ":{"ha":747,"x_min":38,"x_max":644,"o":"m 425 -10 q 226 -6 300 -7 q 113 -2 151 -4 q 62 1 75 0 q 49 5 49 3 q 47 8 49 7 q 42 45 38 22 q 61 90 46 68 q 92 166 75 113 q 128 294 110 219 q 164 452 146 368 q 199 619 182 536 q 230 773 215 701 q 254 893 244 844 q 300 1109 279 1008 q 339 1296 321 1210 q 356 1319 343 1310 q 379 1329 368 1329 q 403 1306 399 1329 q 365 1130 388 1238 q 315 878 343 1022 q 292 759 306 829 q 260 608 278 689 q 226 445 243 528 q 192 289 208 363 q 161 159 175 215 q 139 75 147 103 q 379 50 288 50 q 483 54 444 53 q 544 57 521 56 q 583 60 567 58 q 621 64 600 61 q 640 56 636 64 q 644 40 644 49 q 635 17 644 29 q 611 0 625 4 q 517 -7 564 -4 q 425 -10 469 -10 m 232 -390 q 200 -358 200 -390 q 211 -338 200 -358 q 239 -287 222 -318 q 274 -222 256 -256 q 306 -160 292 -187 q 328 -118 321 -132 q 363 -96 344 -96 q 388 -119 388 -96 q 378 -150 388 -132 q 351 -206 368 -169 q 312 -282 335 -242 q 263 -356 289 -322 q 251 -380 261 -369 q 232 -390 240 -390 z "},"Ŀ":{"ha":686,"x_min":38,"x_max":644,"o":"m 425 -10 q 226 -6 300 -7 q 113 -2 151 -4 q 62 1 75 0 q 49 5 49 3 q 47 8 49 7 q 42 45 38 22 q 61 90 46 68 q 92 166 75 113 q 128 294 110 219 q 164 452 146 368 q 199 619 182 536 q 230 773 215 701 q 254 893 244 844 q 300 1109 279 1008 q 339 1296 321 1210 q 356 1319 343 1310 q 379 1329 368 1329 q 403 1306 399 1329 q 365 1130 388 1238 q 315 878 343 1022 q 292 759 306 829 q 260 608 278 689 q 226 445 243 528 q 192 289 208 363 q 161 159 175 215 q 139 75 147 103 q 379 50 288 50 q 483 54 444 53 q 544 57 521 56 q 583 60 567 58 q 621 64 600 61 q 640 56 636 64 q 644 40 644 49 q 635 17 644 29 q 611 0 625 4 q 517 -7 564 -4 q 425 -10 469 -10 m 514 397 q 461 430 476 397 q 446 492 446 463 q 454 535 446 521 q 483 563 463 549 q 538 576 501 576 q 599 558 571 576 q 626 511 626 539 q 608 456 626 482 q 565 413 590 429 q 514 397 539 397 z "},"ǈ":{"ha":1026,"x_min":38,"x_max":1024,"o":"m 425 -10 q 226 -6 300 -7 q 113 -2 151 -4 q 62 1 75 0 q 49 5 49 3 q 47 8 49 7 q 42 45 38 22 q 61 90 46 68 q 92 166 75 113 q 128 294 110 219 q 164 452 146 368 q 199 619 182 536 q 230 773 215 701 q 254 893 244 844 q 300 1109 279 1008 q 339 1296 321 1210 q 356 1319 343 1310 q 379 1329 368 1329 q 403 1306 399 1329 q 365 1130 388 1238 q 315 878 343 1022 q 292 759 306 829 q 260 608 278 689 q 226 445 243 528 q 192 289 208 363 q 161 159 175 215 q 139 75 147 103 q 379 50 288 50 q 483 54 444 53 q 544 57 521 56 q 583 60 567 58 q 621 64 600 61 q 640 56 636 64 q 644 40 644 49 q 635 17 644 29 q 611 0 625 4 q 517 -7 564 -4 q 425 -10 469 -10 m 424 -575 q 299 -549 347 -575 q 283 -528 283 -540 q 294 -503 283 -515 q 318 -487 304 -490 q 370 -501 340 -496 q 436 -506 400 -506 q 574 -461 514 -506 q 680 -340 633 -417 q 760 -165 726 -264 q 818 46 793 -65 q 860 269 843 157 q 891 486 878 382 q 915 674 904 590 q 931 697 919 689 q 954 706 943 706 q 978 681 978 706 l 949 472 q 901 146 922 293 q 853 -119 881 -1 q 779 -326 826 -236 q 633 -512 715 -450 q 424 -575 550 -575 m 971 825 q 938 831 949 825 l 932 831 q 892 878 892 831 q 912 921 892 901 q 956 940 932 940 q 1000 924 979 940 q 1024 878 1024 900 q 1007 840 1024 856 q 971 825 990 825 z "},"Ł":{"ha":747,"x_min":-12,"x_max":644,"o":"m 425 -10 q 226 -6 300 -7 q 113 -2 151 -4 q 62 1 75 0 q 49 5 49 3 q 47 8 49 7 q 42 45 38 22 q 61 90 46 68 q 92 166 75 113 q 128 294 110 219 q 164 452 146 368 q 199 619 182 536 q 230 773 215 701 q 254 893 244 844 q 300 1109 279 1008 q 339 1296 321 1210 q 356 1319 343 1310 q 379 1329 368 1329 q 403 1306 399 1329 q 365 1130 388 1238 q 315 878 343 1022 q 292 759 306 829 q 260 608 278 689 q 226 445 243 528 q 192 289 208 363 q 161 159 175 215 q 139 75 147 103 q 379 50 288 50 q 483 54 444 53 q 544 57 521 56 q 583 60 567 58 q 621 64 600 61 q 640 56 636 64 q 644 40 644 49 q 635 17 644 29 q 611 0 625 4 q 517 -7 564 -4 q 425 -10 469 -10 m 1 454 q 1 488 -12 474 q 29 508 3 489 q 94 553 56 526 q 173 609 132 581 q 246 660 214 638 q 289 689 278 682 l 460 790 q 475 790 467 793 q 486 781 483 788 q 479 751 494 763 q 451 731 461 738 q 431 715 442 724 q 399 692 421 707 q 333 646 378 676 l 47 453 q 24 444 36 447 q 1 454 13 440 z "},"M":{"ha":1364,"x_min":82,"x_max":1215,"o":"m 1129 -17 q 1101 13 1103 -17 q 1100 115 1100 43 q 1101 207 1100 144 q 1106 353 1103 269 q 1112 533 1108 438 q 1119 722 1115 628 q 1125 898 1122 815 q 1130 1040 1128 981 q 1132 1124 1132 1100 q 1058 967 1103 1057 q 960 775 1013 876 q 856 572 908 674 q 756 382 803 471 q 676 228 710 293 q 642 199 663 199 q 614 218 622 199 q 596 299 608 242 q 566 436 583 357 q 528 606 549 515 q 489 785 508 696 q 453 952 469 875 q 424 1084 436 1029 q 408 1157 413 1139 q 347 869 379 1007 q 283 595 315 731 q 215 317 250 460 q 144 13 181 174 q 106 -15 129 -15 q 82 13 85 -15 q 119 201 97 94 q 169 427 142 307 q 226 672 197 547 q 283 914 256 796 q 335 1134 311 1032 q 376 1310 360 1236 q 393 1333 381 1324 q 415 1343 406 1343 q 440 1319 433 1343 q 551 815 501 1058 q 653 346 600 571 q 731 485 686 403 q 825 665 775 568 q 926 862 875 763 q 1022 1051 976 961 q 1101 1208 1067 1140 q 1153 1311 1135 1276 q 1193 1344 1169 1344 q 1215 1324 1215 1344 q 1211 1251 1215 1319 q 1201 1062 1207 1182 q 1188 782 1194 942 q 1176 436 1181 622 q 1168 51 1171 250 q 1165 8 1178 33 q 1129 -17 1151 -17 z "},"N":{"ha":901,"x_min":-8,"x_max":935,"o":"m 650 -15 q 617 10 632 -15 q 592 75 603 36 q 571 150 581 114 q 541 265 561 190 q 496 436 521 340 q 444 638 471 532 q 390 844 417 743 q 342 1032 364 946 q 307 1174 321 1118 q 250 903 281 1051 q 186 597 219 754 q 119 289 153 439 q 57 14 86 139 q 21 -14 50 -14 q -8 11 -8 -14 q 3 66 -8 15 q 39 214 15 117 q 64 328 47 250 q 102 508 81 406 q 147 722 124 610 q 194 940 171 833 q 235 1135 217 1047 q 265 1276 253 1222 q 278 1332 276 1329 q 299 1346 282 1346 q 322 1336 314 1346 q 336 1303 331 1326 q 359 1203 343 1271 q 398 1044 375 1135 q 448 848 421 953 q 503 635 475 743 q 559 426 532 526 q 608 244 586 326 q 646 107 631 161 q 665 212 651 140 q 696 380 678 283 q 735 587 714 476 q 777 808 756 697 q 817 1019 799 919 q 851 1197 836 1119 q 872 1315 865 1274 q 893 1340 878 1331 q 921 1349 908 1349 q 934 1340 933 1349 q 935 1315 935 1332 q 874 1006 906 1171 q 810 676 842 842 q 752 356 779 510 q 704 81 725 203 q 689 13 696 40 q 650 -15 682 -15 z "},"Ǌ":{"ha":1646,"x_min":-8,"x_max":1681,"o":"m 650 -15 q 617 10 632 -15 q 592 75 603 36 q 571 150 581 114 q 541 265 561 190 q 496 436 521 340 q 444 638 471 532 q 390 844 417 743 q 342 1032 364 946 q 307 1174 321 1118 q 250 903 281 1051 q 186 597 219 754 q 119 289 153 439 q 57 14 86 139 q 21 -14 50 -14 q -8 11 -8 -14 q 3 66 -8 15 q 39 214 15 117 q 64 328 47 250 q 102 508 81 406 q 147 722 124 610 q 194 940 171 833 q 235 1135 217 1047 q 265 1276 253 1222 q 278 1332 276 1329 q 299 1346 282 1346 q 322 1336 314 1346 q 336 1303 331 1326 q 359 1203 343 1271 q 398 1044 375 1135 q 448 848 421 953 q 503 635 475 743 q 559 426 532 526 q 608 244 586 326 q 646 107 631 161 q 665 212 651 140 q 696 380 678 283 q 735 587 714 476 q 777 808 756 697 q 817 1019 799 919 q 851 1197 836 1119 q 872 1315 865 1274 q 893 1340 878 1331 q 921 1349 908 1349 q 934 1340 933 1349 q 935 1315 935 1332 q 874 1006 906 1171 q 810 676 842 842 q 752 356 779 510 q 704 81 725 203 q 689 13 696 40 q 650 -15 682 -15 m 1103 -18 q 888 143 963 -18 q 847 249 847 231 q 858 281 847 268 q 879 293 869 293 q 907 275 903 293 q 951 162 922 215 q 1023 75 979 108 q 1126 42 1067 42 q 1255 83 1201 42 q 1347 192 1308 124 q 1410 344 1385 260 q 1454 515 1436 428 q 1465 565 1456 522 q 1488 674 1474 608 q 1517 817 1501 740 q 1550 972 1533 894 q 1580 1114 1567 1049 q 1602 1220 1593 1179 q 1613 1267 1611 1261 q 1511 1239 1561 1239 q 1431 1249 1475 1239 q 1342 1270 1386 1258 q 1264 1285 1299 1282 q 1244 1307 1244 1293 q 1257 1335 1244 1322 q 1283 1349 1269 1347 q 1354 1335 1313 1346 q 1439 1314 1396 1324 q 1513 1304 1482 1304 q 1604 1331 1560 1304 q 1628 1336 1619 1338 q 1654 1336 1638 1335 q 1681 1313 1674 1336 q 1641 1146 1663 1242 q 1599 946 1619 1050 q 1559 744 1578 842 q 1527 574 1540 647 q 1508 468 1514 500 q 1457 276 1488 364 q 1380 122 1426 188 q 1265 19 1333 56 q 1103 -18 1197 -18 z "},"Ń":{"ha":901,"x_min":-8,"x_max":935,"o":"m 650 -15 q 617 10 632 -15 q 592 75 603 36 q 571 150 581 114 q 541 265 561 190 q 496 436 521 340 q 444 638 471 532 q 390 844 417 743 q 342 1032 364 946 q 307 1174 321 1118 q 250 903 281 1051 q 186 597 219 754 q 119 289 153 439 q 57 14 86 139 q 21 -14 50 -14 q -8 11 -8 -14 q 3 66 -8 15 q 39 214 15 117 q 64 328 47 250 q 102 508 81 406 q 147 722 124 610 q 194 940 171 833 q 235 1135 217 1047 q 265 1276 253 1222 q 278 1332 276 1329 q 299 1346 282 1346 q 322 1336 314 1346 q 336 1303 331 1326 q 359 1203 343 1271 q 398 1044 375 1135 q 448 848 421 953 q 503 635 475 743 q 559 426 532 526 q 608 244 586 326 q 646 107 631 161 q 665 212 651 140 q 696 380 678 283 q 735 587 714 476 q 777 808 756 697 q 817 1019 799 919 q 851 1197 836 1119 q 872 1315 865 1274 q 893 1340 878 1331 q 921 1349 908 1349 q 934 1340 933 1349 q 935 1315 935 1332 q 874 1006 906 1171 q 810 676 842 842 q 752 356 779 510 q 704 81 725 203 q 689 13 696 40 q 650 -15 682 -15 m 576 1431 q 544 1463 544 1431 q 560 1493 544 1471 q 592 1544 575 1513 q 624 1607 608 1575 q 640 1639 632 1622 q 654 1671 647 1656 q 670 1702 663 1686 q 685 1733 678 1718 q 719 1754 700 1754 q 744 1731 744 1754 q 735 1700 744 1718 q 723 1677 729 1690 q 708 1649 717 1664 q 668 1563 694 1617 q 607 1464 642 1508 q 595 1440 606 1450 q 576 1431 585 1431 z "},"Ň":{"ha":901,"x_min":-8,"x_max":935,"o":"m 650 -15 q 617 10 632 -15 q 592 75 603 36 q 571 150 581 114 q 541 265 561 190 q 496 436 521 340 q 444 638 471 532 q 390 844 417 743 q 342 1032 364 946 q 307 1174 321 1118 q 250 903 281 1051 q 186 597 219 754 q 119 289 153 439 q 57 14 86 139 q 21 -14 50 -14 q -8 11 -8 -14 q 3 66 -8 15 q 39 214 15 117 q 64 328 47 250 q 102 508 81 406 q 147 722 124 610 q 194 940 171 833 q 235 1135 217 1047 q 265 1276 253 1222 q 278 1332 276 1329 q 299 1346 282 1346 q 322 1336 314 1346 q 336 1303 331 1326 q 359 1203 343 1271 q 398 1044 375 1135 q 448 848 421 953 q 503 635 475 743 q 559 426 532 526 q 608 244 586 326 q 646 107 631 161 q 665 212 651 140 q 696 380 678 283 q 735 587 714 476 q 777 808 756 697 q 817 1019 799 919 q 851 1197 836 1119 q 872 1315 865 1274 q 893 1340 878 1331 q 921 1349 908 1349 q 934 1340 933 1349 q 935 1315 935 1332 q 874 1006 906 1171 q 810 676 842 842 q 752 356 779 510 q 704 81 725 203 q 689 13 696 40 q 650 -15 682 -15 m 594 1424 q 571 1439 579 1424 q 549 1479 563 1454 q 444 1603 499 1576 q 417 1617 428 1611 q 407 1638 407 1624 q 419 1662 407 1651 q 450 1672 432 1672 q 502 1649 475 1672 q 556 1590 529 1625 q 606 1515 583 1554 q 647 1579 631 1556 q 685 1627 663 1603 q 749 1693 707 1651 q 775 1704 763 1704 q 800 1681 800 1704 q 789 1653 800 1667 q 719 1580 743 1607 q 681 1529 696 1553 q 643 1468 665 1506 q 621 1435 632 1447 q 594 1424 610 1424 z "},"Ņ":{"ha":901,"x_min":-8,"x_max":935,"o":"m 650 -15 q 617 10 632 -15 q 592 75 603 36 q 571 150 581 114 q 541 265 561 190 q 496 436 521 340 q 444 638 471 532 q 390 844 417 743 q 342 1032 364 946 q 307 1174 321 1118 q 250 903 281 1051 q 186 597 219 754 q 119 289 153 439 q 57 14 86 139 q 21 -14 50 -14 q -8 11 -8 -14 q 3 66 -8 15 q 39 214 15 117 q 64 328 47 250 q 102 508 81 406 q 147 722 124 610 q 194 940 171 833 q 235 1135 217 1047 q 265 1276 253 1222 q 278 1332 276 1329 q 299 1346 282 1346 q 322 1336 314 1346 q 336 1303 331 1326 q 359 1203 343 1271 q 398 1044 375 1135 q 448 848 421 953 q 503 635 475 743 q 559 426 532 526 q 608 244 586 326 q 646 107 631 161 q 665 212 651 140 q 696 380 678 283 q 735 587 714 476 q 777 808 756 697 q 817 1019 799 919 q 851 1197 836 1119 q 872 1315 865 1274 q 893 1340 878 1331 q 921 1349 908 1349 q 934 1340 933 1349 q 935 1315 935 1332 q 874 1006 906 1171 q 810 676 842 842 q 752 356 779 510 q 704 81 725 203 q 689 13 696 40 q 650 -15 682 -15 m 188 -390 q 156 -358 156 -390 q 167 -338 156 -358 q 194 -287 178 -318 q 229 -222 211 -256 q 262 -160 247 -187 q 283 -118 276 -132 q 318 -96 300 -96 q 343 -119 343 -96 q 333 -150 343 -132 q 307 -206 324 -169 q 267 -282 290 -242 q 218 -356 244 -322 q 206 -380 217 -369 q 188 -390 196 -390 z "},"ǋ":{"ha":1181,"x_min":-8,"x_max":1178,"o":"m 650 -15 q 617 10 632 -15 q 592 75 603 36 q 571 150 581 114 q 541 265 561 190 q 496 436 521 340 q 444 638 471 532 q 390 844 417 743 q 342 1032 364 946 q 307 1174 321 1118 q 250 903 281 1051 q 186 597 219 754 q 119 289 153 439 q 57 14 86 139 q 21 -14 50 -14 q -8 11 -8 -14 q 3 66 -8 15 q 39 214 15 117 q 64 328 47 250 q 102 508 81 406 q 147 722 124 610 q 194 940 171 833 q 235 1135 217 1047 q 265 1276 253 1222 q 278 1332 276 1329 q 299 1346 282 1346 q 322 1336 314 1346 q 336 1303 331 1326 q 359 1203 343 1271 q 398 1044 375 1135 q 448 848 421 953 q 503 635 475 743 q 559 426 532 526 q 608 244 586 326 q 646 107 631 161 q 665 212 651 140 q 696 380 678 283 q 735 587 714 476 q 777 808 756 697 q 817 1019 799 919 q 851 1197 836 1119 q 872 1315 865 1274 q 893 1340 878 1331 q 921 1349 908 1349 q 934 1340 933 1349 q 935 1315 935 1332 q 874 1006 906 1171 q 810 676 842 842 q 752 356 779 510 q 704 81 725 203 q 689 13 696 40 q 650 -15 682 -15 m 578 -575 q 453 -549 501 -575 q 438 -528 438 -540 q 448 -503 438 -515 q 472 -487 458 -490 q 524 -501 494 -496 q 590 -506 554 -506 q 728 -461 668 -506 q 834 -340 788 -417 q 914 -165 881 -264 q 972 46 947 -65 q 1015 269 997 157 q 1045 486 1032 382 q 1069 674 1058 590 q 1085 697 1074 689 q 1108 706 1097 706 q 1132 681 1132 706 l 1103 472 q 1056 146 1076 293 q 1008 -119 1035 -1 q 933 -326 981 -236 q 787 -512 869 -450 q 578 -575 704 -575 m 1125 825 q 1092 831 1103 825 l 1086 831 q 1046 878 1046 831 q 1066 921 1046 901 q 1110 940 1086 940 q 1154 924 1133 940 q 1178 878 1178 900 q 1161 840 1178 856 q 1125 825 1144 825 z "},"Ñ":{"ha":901,"x_min":-8,"x_max":935,"o":"m 650 -15 q 617 10 632 -15 q 592 75 603 36 q 571 150 581 114 q 541 265 561 190 q 496 436 521 340 q 444 638 471 532 q 390 844 417 743 q 342 1032 364 946 q 307 1174 321 1118 q 250 903 281 1051 q 186 597 219 754 q 119 289 153 439 q 57 14 86 139 q 21 -14 50 -14 q -8 11 -8 -14 q 3 66 -8 15 q 39 214 15 117 q 64 328 47 250 q 102 508 81 406 q 147 722 124 610 q 194 940 171 833 q 235 1135 217 1047 q 265 1276 253 1222 q 278 1332 276 1329 q 299 1346 282 1346 q 322 1336 314 1346 q 336 1303 331 1326 q 359 1203 343 1271 q 398 1044 375 1135 q 448 848 421 953 q 503 635 475 743 q 559 426 532 526 q 608 244 586 326 q 646 107 631 161 q 665 212 651 140 q 696 380 678 283 q 735 587 714 476 q 777 808 756 697 q 817 1019 799 919 q 851 1197 836 1119 q 872 1315 865 1274 q 893 1340 878 1331 q 921 1349 908 1349 q 934 1340 933 1349 q 935 1315 935 1332 q 874 1006 906 1171 q 810 676 842 842 q 752 356 779 510 q 704 81 725 203 q 689 13 696 40 q 650 -15 682 -15 m 704 1479 q 651 1492 674 1479 q 610 1519 629 1504 q 572 1546 590 1533 q 538 1558 553 1558 q 481 1508 504 1558 q 449 1492 468 1492 q 424 1515 424 1492 q 424 1523 424 1519 q 426 1531 425 1526 q 532 1625 475 1625 q 607 1599 561 1625 q 676 1560 651 1572 q 726 1549 700 1549 q 753 1554 753 1549 l 753 1563 l 746 1600 q 758 1631 746 1618 q 785 1643 771 1643 q 813 1578 813 1643 q 754 1488 813 1511 q 704 1479 733 1479 z "},"Ŋ":{"ha":1024,"x_min":-8,"x_max":935,"o":"m 646 -236 q 599 -407 626 -332 q 531 -526 572 -482 q 426 -569 490 -569 q 315 -524 360 -569 q 269 -404 269 -479 q 298 -303 269 -353 q 371 -209 326 -254 q 465 -125 415 -164 q 558 -56 515 -86 q 626 -8 601 -26 l 626 -3 q 595 63 608 18 q 571 150 582 107 q 541 265 561 190 q 496 436 521 340 q 444 638 471 532 q 390 844 417 743 q 342 1032 364 946 q 307 1174 321 1118 q 250 903 281 1051 q 186 597 219 754 q 119 289 153 439 q 57 14 86 139 q 21 -14 50 -14 q -8 11 -8 -14 q 3 66 -8 15 q 39 214 15 117 q 64 328 47 250 q 102 508 81 406 q 147 722 124 610 q 194 940 171 833 q 235 1135 217 1047 q 265 1276 253 1222 q 278 1332 276 1329 q 299 1346 282 1346 q 322 1336 314 1346 q 336 1303 331 1326 q 359 1203 343 1271 q 398 1044 375 1135 q 448 848 421 953 q 503 635 475 743 q 559 426 532 526 q 608 244 586 326 q 646 107 631 161 q 657 169 650 129 q 674 264 664 210 l 678 283 l 678 283 q 717 494 696 376 q 763 735 739 611 q 808 975 786 860 q 847 1180 831 1090 q 872 1315 864 1269 q 893 1340 878 1331 q 921 1349 908 1349 q 934 1340 933 1349 q 935 1315 935 1332 q 874 1006 906 1171 q 810 676 842 842 q 752 356 779 510 q 704 81 725 203 q 699 58 701 68 q 696 38 697 47 q 744 75 721 54 q 786 112 767 96 q 818 128 806 128 q 843 104 843 128 q 832 76 843 83 q 749 16 785 44 q 682 -36 713 -12 l 646 -236 m 338 -397 q 354 -476 338 -453 q 414 -500 371 -500 q 498 -457 464 -500 q 555 -344 532 -414 q 593 -194 578 -275 l 613 -86 q 535 -144 581 -110 q 444 -221 489 -179 q 368 -308 399 -262 q 338 -397 338 -353 z "},"O":{"ha":918,"x_min":67,"x_max":864,"o":"m 314 -31 q 67 410 67 -31 q 87 647 67 529 q 144 871 107 765 q 235 1058 182 976 q 357 1187 289 1140 q 504 1233 425 1233 q 650 1178 585 1233 q 665 1130 679 1149 q 608 1131 651 1111 q 483 1165 547 1165 q 380 1128 428 1165 q 292 1028 332 1090 q 223 888 253 965 q 172 728 193 810 q 140 571 150 646 q 129 439 129 496 q 176 133 129 233 q 326 33 224 33 q 483 86 411 33 q 610 226 554 139 q 705 419 665 314 q 767 631 744 525 q 795 818 786 719 q 794 1012 804 917 q 746 1183 783 1107 q 646 1278 706 1261 q 594 1290 625 1285 q 541 1302 564 1294 q 518 1324 518 1310 q 553 1354 518 1350 q 717 1310 656 1354 q 810 1194 779 1267 q 853 1037 842 1122 q 864 868 864 951 q 824 560 864 719 q 710 265 783 401 q 535 50 636 131 q 314 -31 433 -31 z "},"Ó":{"ha":918,"x_min":67,"x_max":864,"o":"m 314 -31 q 67 410 67 -31 q 87 647 67 529 q 144 871 107 765 q 235 1058 182 976 q 357 1187 289 1140 q 504 1233 425 1233 q 650 1178 585 1233 q 665 1130 679 1149 q 608 1131 651 1111 q 483 1165 547 1165 q 380 1128 428 1165 q 292 1028 332 1090 q 223 888 253 965 q 172 728 193 810 q 140 571 150 646 q 129 439 129 496 q 176 133 129 233 q 326 33 224 33 q 483 86 411 33 q 610 226 554 139 q 705 419 665 314 q 767 631 744 525 q 795 818 786 719 q 794 1012 804 917 q 746 1183 783 1107 q 646 1278 706 1261 q 594 1290 625 1285 q 541 1302 564 1294 q 518 1324 518 1310 q 553 1354 518 1350 q 717 1310 656 1354 q 810 1194 779 1267 q 853 1037 842 1122 q 864 868 864 951 q 824 560 864 719 q 710 265 783 401 q 535 50 636 131 q 314 -31 433 -31 m 628 1431 q 596 1463 596 1431 q 611 1493 596 1471 q 643 1544 626 1513 q 675 1607 660 1575 q 691 1639 683 1622 q 706 1671 699 1656 q 722 1702 714 1686 q 736 1733 729 1718 q 771 1754 751 1754 q 796 1731 796 1754 q 786 1700 796 1718 q 774 1677 781 1690 q 760 1649 768 1664 q 719 1563 746 1617 q 658 1464 693 1508 q 647 1440 657 1450 q 628 1431 636 1431 z "},"Ŏ":{"ha":918,"x_min":67,"x_max":897,"o":"m 314 -31 q 67 410 67 -31 q 87 647 67 529 q 144 871 107 765 q 235 1058 182 976 q 357 1187 289 1140 q 504 1233 425 1233 q 650 1178 585 1233 q 665 1130 679 1149 q 608 1131 651 1111 q 483 1165 547 1165 q 380 1128 428 1165 q 292 1028 332 1090 q 223 888 253 965 q 172 728 193 810 q 140 571 150 646 q 129 439 129 496 q 176 133 129 233 q 326 33 224 33 q 483 86 411 33 q 610 226 554 139 q 705 419 665 314 q 767 631 744 525 q 795 818 786 719 q 794 1012 804 917 q 746 1183 783 1107 q 646 1278 706 1261 q 594 1290 625 1285 q 541 1302 564 1294 q 518 1324 518 1310 q 553 1354 518 1350 q 717 1310 656 1354 q 810 1194 779 1267 q 853 1037 842 1122 q 864 868 864 951 q 824 560 864 719 q 710 265 783 401 q 535 50 636 131 q 314 -31 433 -31 m 651 1438 q 550 1493 586 1438 q 514 1635 514 1549 q 524 1665 514 1653 q 546 1678 535 1678 q 563 1664 557 1678 q 567 1638 564 1657 q 574 1589 569 1619 q 643 1500 585 1500 q 762 1551 713 1500 q 857 1679 811 1601 q 879 1690 867 1690 q 897 1667 897 1690 q 893 1647 897 1654 q 778 1497 840 1556 q 651 1438 717 1438 z "},"Ô":{"ha":918,"x_min":67,"x_max":864,"o":"m 314 -31 q 67 410 67 -31 q 87 647 67 529 q 144 871 107 765 q 235 1058 182 976 q 357 1187 289 1140 q 504 1233 425 1233 q 650 1178 585 1233 q 665 1130 679 1149 q 608 1131 651 1111 q 483 1165 547 1165 q 380 1128 428 1165 q 292 1028 332 1090 q 223 888 253 965 q 172 728 193 810 q 140 571 150 646 q 129 439 129 496 q 176 133 129 233 q 326 33 224 33 q 483 86 411 33 q 610 226 554 139 q 705 419 665 314 q 767 631 744 525 q 795 818 786 719 q 794 1012 804 917 q 746 1183 783 1107 q 646 1278 706 1261 q 594 1290 625 1285 q 541 1302 564 1294 q 518 1324 518 1310 q 553 1354 518 1350 q 717 1310 656 1354 q 810 1194 779 1267 q 853 1037 842 1122 q 864 868 864 951 q 824 560 864 719 q 710 265 783 401 q 535 50 636 131 q 314 -31 433 -31 m 768 1435 q 724 1459 749 1435 q 678 1521 700 1483 q 642 1597 656 1558 q 637 1589 639 1593 q 632 1581 635 1585 q 525 1444 614 1542 q 501 1436 513 1436 q 476 1458 476 1436 q 526 1536 476 1482 q 567 1585 550 1564 q 590 1621 583 1607 q 627 1679 606 1649 q 674 1710 649 1710 q 699 1683 699 1710 l 697 1667 q 713 1610 697 1646 q 752 1542 728 1575 q 801 1490 776 1508 q 807 1469 807 1481 q 795 1445 807 1456 q 768 1435 783 1435 z "},"Ố":{"ha":918,"x_min":67,"x_max":921,"o":"m 314 -31 q 67 410 67 -31 q 87 647 67 529 q 144 871 107 765 q 235 1058 182 976 q 357 1187 289 1140 q 504 1233 425 1233 q 650 1178 585 1233 q 665 1130 679 1149 q 608 1131 651 1111 q 483 1165 547 1165 q 380 1128 428 1165 q 292 1028 332 1090 q 223 888 253 965 q 172 728 193 810 q 140 571 150 646 q 129 439 129 496 q 176 133 129 233 q 326 33 224 33 q 483 86 411 33 q 610 226 554 139 q 705 419 665 314 q 767 631 744 525 q 795 818 786 719 q 794 1012 804 917 q 746 1183 783 1107 q 646 1278 706 1261 q 594 1290 625 1285 q 541 1302 564 1294 q 518 1324 518 1310 q 553 1354 518 1350 q 717 1310 656 1354 q 810 1194 779 1267 q 853 1037 842 1122 q 864 868 864 951 q 824 560 864 719 q 710 265 783 401 q 535 50 636 131 q 314 -31 433 -31 m 789 1583 q 758 1615 758 1583 q 774 1646 758 1624 q 818 1720 793 1674 q 861 1804 843 1767 q 896 1825 876 1825 q 921 1801 921 1825 q 911 1771 921 1793 q 890 1733 900 1754 q 866 1685 881 1713 q 821 1617 851 1657 q 809 1593 819 1603 q 789 1583 799 1583 m 768 1435 q 724 1459 749 1435 q 678 1521 700 1483 q 642 1597 656 1558 q 637 1589 639 1593 q 632 1581 635 1585 q 525 1444 614 1542 q 501 1436 513 1436 q 476 1458 476 1436 q 526 1536 476 1482 q 567 1585 550 1564 q 590 1621 583 1607 q 627 1679 606 1649 q 674 1710 649 1710 q 699 1683 699 1710 l 697 1667 q 713 1610 697 1646 q 752 1542 728 1575 q 801 1490 776 1508 q 807 1469 807 1481 q 795 1445 807 1456 q 768 1435 783 1435 z "},"Ộ":{"ha":918,"x_min":67,"x_max":864,"o":"m 314 -31 q 67 410 67 -31 q 87 647 67 529 q 144 871 107 765 q 235 1058 182 976 q 357 1187 289 1140 q 504 1233 425 1233 q 650 1178 585 1233 q 665 1130 679 1149 q 608 1131 651 1111 q 483 1165 547 1165 q 380 1128 428 1165 q 292 1028 332 1090 q 223 888 253 965 q 172 728 193 810 q 140 571 150 646 q 129 439 129 496 q 176 133 129 233 q 326 33 224 33 q 483 86 411 33 q 610 226 554 139 q 705 419 665 314 q 767 631 744 525 q 795 818 786 719 q 794 1012 804 917 q 746 1183 783 1107 q 646 1278 706 1261 q 594 1290 625 1285 q 541 1302 564 1294 q 518 1324 518 1310 q 553 1354 518 1350 q 717 1310 656 1354 q 810 1194 779 1267 q 853 1037 842 1122 q 864 868 864 951 q 824 560 864 719 q 710 265 783 401 q 535 50 636 131 q 314 -31 433 -31 m 331 -217 q 297 -211 308 -217 l 292 -211 q 251 -164 251 -211 q 272 -121 251 -140 q 315 -101 292 -101 q 360 -118 339 -101 q 383 -164 383 -142 q 367 -201 383 -186 q 331 -217 350 -217 m 768 1435 q 724 1459 749 1435 q 678 1521 700 1483 q 642 1597 656 1558 q 637 1589 639 1593 q 632 1581 635 1585 q 525 1444 614 1542 q 501 1436 513 1436 q 476 1458 476 1436 q 526 1536 476 1482 q 567 1585 550 1564 q 590 1621 583 1607 q 627 1679 606 1649 q 674 1710 649 1710 q 699 1683 699 1710 l 697 1667 q 713 1610 697 1646 q 752 1542 728 1575 q 801 1490 776 1508 q 807 1469 807 1481 q 795 1445 807 1456 q 768 1435 783 1435 z "},"Ồ":{"ha":918,"x_min":67,"x_max":864,"o":"m 314 -31 q 67 410 67 -31 q 87 647 67 529 q 144 871 107 765 q 235 1058 182 976 q 357 1187 289 1140 q 504 1233 425 1233 q 650 1178 585 1233 q 665 1130 679 1149 q 608 1131 651 1111 q 483 1165 547 1165 q 380 1128 428 1165 q 292 1028 332 1090 q 223 888 253 965 q 172 728 193 810 q 140 571 150 646 q 129 439 129 496 q 176 133 129 233 q 326 33 224 33 q 483 86 411 33 q 610 226 554 139 q 705 419 665 314 q 767 631 744 525 q 795 818 786 719 q 794 1012 804 917 q 746 1183 783 1107 q 646 1278 706 1261 q 594 1290 625 1285 q 541 1302 564 1294 q 518 1324 518 1310 q 553 1354 518 1350 q 717 1310 656 1354 q 810 1194 779 1267 q 853 1037 842 1122 q 864 868 864 951 q 824 560 864 719 q 710 265 783 401 q 535 50 636 131 q 314 -31 433 -31 m 506 1572 q 482 1582 492 1572 q 418 1672 439 1635 q 381 1761 397 1710 q 392 1792 381 1779 q 417 1804 404 1804 q 444 1781 436 1804 q 477 1709 458 1740 q 535 1629 496 1678 q 539 1621 538 1625 q 540 1610 540 1617 q 529 1584 540 1596 q 506 1572 518 1572 m 768 1417 q 724 1441 749 1417 q 678 1503 700 1465 q 642 1579 656 1540 q 637 1571 639 1575 q 632 1563 635 1567 q 525 1426 614 1524 q 501 1418 513 1418 q 476 1440 476 1418 q 526 1518 476 1464 q 567 1567 550 1546 q 590 1603 583 1589 q 627 1661 606 1631 q 674 1692 649 1692 q 699 1665 699 1692 l 697 1649 q 713 1592 697 1628 q 752 1524 728 1557 q 801 1472 776 1490 q 807 1451 807 1463 q 795 1427 807 1438 q 768 1417 783 1417 z "},"Ổ":{"ha":918,"x_min":67,"x_max":939,"o":"m 314 -31 q 67 410 67 -31 q 87 647 67 529 q 144 871 107 765 q 235 1058 182 976 q 357 1187 289 1140 q 504 1233 425 1233 q 650 1178 585 1233 q 665 1130 679 1149 q 608 1131 651 1111 q 483 1165 547 1165 q 380 1128 428 1165 q 292 1028 332 1090 q 223 888 253 965 q 172 728 193 810 q 140 571 150 646 q 129 439 129 496 q 176 133 129 233 q 326 33 224 33 q 483 86 411 33 q 610 226 554 139 q 705 419 665 314 q 767 631 744 525 q 795 818 786 719 q 794 1012 804 917 q 746 1183 783 1107 q 646 1278 706 1261 q 594 1290 625 1285 q 541 1302 564 1294 q 518 1324 518 1310 q 553 1354 518 1350 q 717 1310 656 1354 q 810 1194 779 1267 q 853 1037 842 1122 q 864 868 864 951 q 824 560 864 719 q 710 265 783 401 q 535 50 636 131 q 314 -31 433 -31 m 768 1435 q 724 1459 749 1435 q 678 1521 700 1483 q 642 1597 656 1558 q 637 1589 639 1593 q 632 1581 635 1585 q 525 1444 614 1542 q 501 1436 513 1436 q 476 1458 476 1436 q 526 1536 476 1482 q 567 1585 550 1564 q 590 1621 583 1607 q 627 1679 606 1649 q 674 1710 649 1710 q 699 1683 699 1710 l 697 1667 q 713 1610 697 1646 q 752 1542 728 1575 q 801 1490 776 1508 q 807 1469 807 1481 q 795 1445 807 1456 q 768 1435 783 1435 m 758 1638 q 767 1712 749 1686 q 824 1763 785 1738 q 863 1794 847 1778 q 878 1850 878 1811 q 870 1894 878 1878 q 831 1911 863 1911 q 787 1900 801 1911 q 764 1878 772 1889 q 746 1867 756 1867 q 721 1896 721 1869 q 756 1948 721 1928 q 824 1968 790 1968 q 915 1939 890 1968 q 939 1853 939 1910 q 921 1785 939 1814 q 863 1722 903 1756 q 815 1685 832 1696 q 803 1643 799 1674 q 799 1620 806 1628 q 785 1613 793 1613 q 768 1618 775 1613 q 758 1638 761 1624 z "},"Ỗ":{"ha":918,"x_min":67,"x_max":864,"o":"m 314 -31 q 67 410 67 -31 q 87 647 67 529 q 144 871 107 765 q 235 1058 182 976 q 357 1187 289 1140 q 504 1233 425 1233 q 650 1178 585 1233 q 665 1130 679 1149 q 608 1131 651 1111 q 483 1165 547 1165 q 380 1128 428 1165 q 292 1028 332 1090 q 223 888 253 965 q 172 728 193 810 q 140 571 150 646 q 129 439 129 496 q 176 133 129 233 q 326 33 224 33 q 483 86 411 33 q 610 226 554 139 q 705 419 665 314 q 767 631 744 525 q 795 818 786 719 q 794 1012 804 917 q 746 1183 783 1107 q 646 1278 706 1261 q 594 1290 625 1285 q 541 1302 564 1294 q 518 1324 518 1310 q 553 1354 518 1350 q 717 1310 656 1354 q 810 1194 779 1267 q 853 1037 842 1122 q 864 868 864 951 q 824 560 864 719 q 710 265 783 401 q 535 50 636 131 q 314 -31 433 -31 m 746 1746 q 698 1758 718 1746 q 661 1786 678 1771 q 626 1813 643 1800 q 596 1825 610 1825 q 544 1775 565 1825 q 515 1758 533 1758 q 493 1782 493 1758 q 494 1790 493 1786 q 496 1797 494 1793 q 590 1892 539 1892 q 658 1865 617 1892 q 719 1827 697 1839 q 765 1815 742 1815 q 789 1821 789 1815 l 789 1829 l 783 1867 q 794 1897 783 1885 q 818 1910 806 1910 q 843 1844 843 1910 q 790 1754 843 1778 q 746 1746 772 1746 m 768 1435 q 724 1459 749 1435 q 678 1521 700 1483 q 642 1597 656 1558 q 637 1589 639 1593 q 632 1581 635 1585 q 525 1444 614 1542 q 501 1436 513 1436 q 476 1458 476 1436 q 526 1536 476 1482 q 567 1585 550 1564 q 590 1621 583 1607 q 627 1679 606 1649 q 674 1710 649 1710 q 699 1683 699 1710 l 697 1667 q 713 1610 697 1646 q 752 1542 728 1575 q 801 1490 776 1508 q 807 1469 807 1481 q 795 1445 807 1456 q 768 1435 783 1435 z "},"Ȍ":{"ha":918,"x_min":67,"x_max":864,"o":"m 314 -31 q 67 410 67 -31 q 87 647 67 529 q 144 871 107 765 q 235 1058 182 976 q 357 1187 289 1140 q 504 1233 425 1233 q 650 1178 585 1233 q 665 1130 679 1149 q 608 1131 651 1111 q 483 1165 547 1165 q 380 1128 428 1165 q 292 1028 332 1090 q 223 888 253 965 q 172 728 193 810 q 140 571 150 646 q 129 439 129 496 q 176 133 129 233 q 326 33 224 33 q 483 86 411 33 q 610 226 554 139 q 705 419 665 314 q 767 631 744 525 q 795 818 786 719 q 794 1012 804 917 q 746 1183 783 1107 q 646 1278 706 1261 q 594 1290 625 1285 q 541 1302 564 1294 q 518 1324 518 1310 q 553 1354 518 1350 q 717 1310 656 1354 q 810 1194 779 1267 q 853 1037 842 1122 q 864 868 864 951 q 824 560 864 719 q 710 265 783 401 q 535 50 636 131 q 314 -31 433 -31 m 731 1444 q 707 1454 717 1444 q 626 1574 651 1528 q 586 1667 600 1619 q 598 1697 586 1685 q 622 1710 610 1710 q 650 1686 643 1710 q 683 1609 661 1647 q 760 1501 706 1571 q 764 1493 763 1497 q 765 1482 765 1489 q 754 1456 765 1468 q 731 1444 743 1444 m 592 1444 q 568 1454 578 1444 q 487 1574 513 1528 q 447 1667 461 1619 q 459 1697 447 1685 q 483 1710 471 1710 q 511 1686 504 1710 q 544 1609 522 1647 q 621 1501 567 1571 q 625 1493 624 1497 q 626 1482 626 1489 q 615 1456 626 1468 q 592 1444 604 1444 z "},"Ö":{"ha":918,"x_min":67,"x_max":875,"o":"m 314 -31 q 67 410 67 -31 q 87 647 67 529 q 144 871 107 765 q 235 1058 182 976 q 357 1187 289 1140 q 504 1233 425 1233 q 650 1178 585 1233 q 665 1130 679 1149 q 608 1131 651 1111 q 483 1165 547 1165 q 380 1128 428 1165 q 292 1028 332 1090 q 223 888 253 965 q 172 728 193 810 q 140 571 150 646 q 129 439 129 496 q 176 133 129 233 q 326 33 224 33 q 483 86 411 33 q 610 226 554 139 q 705 419 665 314 q 767 631 744 525 q 795 818 786 719 q 794 1012 804 917 q 746 1183 783 1107 q 646 1278 706 1261 q 594 1290 625 1285 q 541 1302 564 1294 q 518 1324 518 1310 q 553 1354 518 1350 q 717 1310 656 1354 q 810 1194 779 1267 q 853 1037 842 1122 q 864 868 864 951 q 824 560 864 719 q 710 265 783 401 q 535 50 636 131 q 314 -31 433 -31 m 529 1467 q 501 1490 511 1467 q 490 1532 490 1513 q 510 1588 490 1565 q 554 1610 525 1610 q 586 1594 568 1610 l 586 1596 q 608 1549 608 1569 q 594 1515 608 1535 q 560 1481 579 1496 q 529 1467 542 1467 m 806 1475 q 801 1476 804 1475 q 794 1476 797 1476 q 761 1522 761 1489 q 788 1581 761 1556 q 832 1606 814 1606 q 875 1563 875 1606 q 853 1503 875 1532 q 806 1475 832 1475 z "},"Ȫ":{"ha":918,"x_min":67,"x_max":917,"o":"m 314 -31 q 67 410 67 -31 q 87 647 67 529 q 144 871 107 765 q 235 1058 182 976 q 357 1187 289 1140 q 504 1233 425 1233 q 650 1178 585 1233 q 665 1130 679 1149 q 608 1131 651 1111 q 483 1165 547 1165 q 380 1128 428 1165 q 292 1028 332 1090 q 223 888 253 965 q 172 728 193 810 q 140 571 150 646 q 129 439 129 496 q 176 133 129 233 q 326 33 224 33 q 483 86 411 33 q 610 226 554 139 q 705 419 665 314 q 767 631 744 525 q 795 818 786 719 q 794 1012 804 917 q 746 1183 783 1107 q 646 1278 706 1261 q 594 1290 625 1285 q 541 1302 564 1294 q 518 1324 518 1310 q 553 1354 518 1350 q 717 1310 656 1354 q 810 1194 779 1267 q 853 1037 842 1122 q 864 868 864 951 q 824 560 864 719 q 710 265 783 401 q 535 50 636 131 q 314 -31 433 -31 m 529 1467 q 501 1490 511 1467 q 490 1532 490 1513 q 510 1588 490 1565 q 554 1610 525 1610 q 586 1594 568 1610 l 586 1596 q 608 1549 608 1569 q 594 1515 608 1535 q 560 1481 579 1496 q 529 1467 542 1467 m 806 1475 q 801 1476 804 1475 q 794 1476 797 1476 q 761 1522 761 1489 q 788 1581 761 1556 q 832 1606 814 1606 q 875 1563 875 1606 q 853 1503 875 1532 q 806 1475 832 1475 m 629 1694 q 566 1706 590 1697 q 542 1736 542 1714 q 553 1763 542 1754 q 582 1769 565 1772 q 663 1761 628 1764 q 729 1758 697 1758 q 800 1758 761 1757 q 894 1764 839 1760 q 917 1739 917 1756 q 879 1700 917 1711 q 829 1694 864 1696 q 754 1693 794 1693 q 680 1694 714 1693 q 629 1694 646 1694 z "},"Ȱ":{"ha":918,"x_min":67,"x_max":874,"o":"m 314 -31 q 67 410 67 -31 q 87 647 67 529 q 144 871 107 765 q 235 1058 182 976 q 357 1187 289 1140 q 504 1233 425 1233 q 650 1178 585 1233 q 665 1130 679 1149 q 608 1131 651 1111 q 483 1165 547 1165 q 380 1128 428 1165 q 292 1028 332 1090 q 223 888 253 965 q 172 728 193 810 q 140 571 150 646 q 129 439 129 496 q 176 133 129 233 q 326 33 224 33 q 483 86 411 33 q 610 226 554 139 q 705 419 665 314 q 767 631 744 525 q 795 818 786 719 q 794 1012 804 917 q 746 1183 783 1107 q 646 1278 706 1261 q 594 1290 625 1285 q 541 1302 564 1294 q 518 1324 518 1310 q 553 1354 518 1350 q 717 1310 656 1354 q 810 1194 779 1267 q 853 1037 842 1122 q 864 868 864 951 q 824 560 864 719 q 710 265 783 401 q 535 50 636 131 q 314 -31 433 -31 m 658 1457 q 625 1463 636 1457 l 619 1463 q 579 1510 579 1463 q 599 1553 579 1533 q 643 1572 619 1572 q 688 1556 667 1572 q 711 1510 711 1532 q 694 1472 711 1488 q 658 1457 678 1457 m 586 1667 q 523 1678 547 1669 q 499 1708 499 1686 q 510 1735 499 1726 q 539 1742 522 1744 q 619 1733 585 1736 q 686 1730 654 1731 q 757 1731 718 1729 q 851 1736 796 1732 q 874 1711 874 1728 q 836 1672 874 1683 q 786 1667 821 1668 q 711 1665 751 1665 q 637 1666 671 1665 q 586 1667 603 1667 z "},"Ọ":{"ha":918,"x_min":67,"x_max":864,"o":"m 314 -31 q 67 410 67 -31 q 87 647 67 529 q 144 871 107 765 q 235 1058 182 976 q 357 1187 289 1140 q 504 1233 425 1233 q 650 1178 585 1233 q 665 1130 679 1149 q 608 1131 651 1111 q 483 1165 547 1165 q 380 1128 428 1165 q 292 1028 332 1090 q 223 888 253 965 q 172 728 193 810 q 140 571 150 646 q 129 439 129 496 q 176 133 129 233 q 326 33 224 33 q 483 86 411 33 q 610 226 554 139 q 705 419 665 314 q 767 631 744 525 q 795 818 786 719 q 794 1012 804 917 q 746 1183 783 1107 q 646 1278 706 1261 q 594 1290 625 1285 q 541 1302 564 1294 q 518 1324 518 1310 q 553 1354 518 1350 q 717 1310 656 1354 q 810 1194 779 1267 q 853 1037 842 1122 q 864 868 864 951 q 824 560 864 719 q 710 265 783 401 q 535 50 636 131 q 314 -31 433 -31 m 331 -217 q 297 -211 308 -217 l 292 -211 q 251 -164 251 -211 q 272 -121 251 -140 q 315 -101 292 -101 q 360 -118 339 -101 q 383 -164 383 -142 q 367 -201 383 -186 q 331 -217 350 -217 z "},"Ò":{"ha":918,"x_min":67,"x_max":864,"o":"m 314 -31 q 67 410 67 -31 q 87 647 67 529 q 144 871 107 765 q 235 1058 182 976 q 357 1187 289 1140 q 504 1233 425 1233 q 650 1178 585 1233 q 665 1130 679 1149 q 608 1131 651 1111 q 483 1165 547 1165 q 380 1128 428 1165 q 292 1028 332 1090 q 223 888 253 965 q 172 728 193 810 q 140 571 150 646 q 129 439 129 496 q 176 133 129 233 q 326 33 224 33 q 483 86 411 33 q 610 226 554 139 q 705 419 665 314 q 767 631 744 525 q 795 818 786 719 q 794 1012 804 917 q 746 1183 783 1107 q 646 1278 706 1261 q 594 1290 625 1285 q 541 1302 564 1294 q 518 1324 518 1310 q 553 1354 518 1350 q 717 1310 656 1354 q 810 1194 779 1267 q 853 1037 842 1122 q 864 868 864 951 q 824 560 864 719 q 710 265 783 401 q 535 50 636 131 q 314 -31 433 -31 m 703 1431 q 679 1440 689 1431 q 598 1560 624 1514 q 558 1653 572 1606 q 570 1683 558 1671 q 594 1696 582 1696 q 622 1672 615 1696 q 656 1595 633 1633 q 732 1488 678 1557 q 736 1479 735 1483 q 738 1468 738 1475 q 726 1442 738 1454 q 703 1431 715 1431 z "},"Ỏ":{"ha":918,"x_min":67,"x_max":864,"o":"m 314 -31 q 67 410 67 -31 q 87 647 67 529 q 144 871 107 765 q 235 1058 182 976 q 357 1187 289 1140 q 504 1233 425 1233 q 650 1178 585 1233 q 665 1130 679 1149 q 608 1131 651 1111 q 483 1165 547 1165 q 380 1128 428 1165 q 292 1028 332 1090 q 223 888 253 965 q 172 728 193 810 q 140 571 150 646 q 129 439 129 496 q 176 133 129 233 q 326 33 224 33 q 483 86 411 33 q 610 226 554 139 q 705 419 665 314 q 767 631 744 525 q 795 818 786 719 q 794 1012 804 917 q 746 1183 783 1107 q 646 1278 706 1261 q 594 1290 625 1285 q 541 1302 564 1294 q 518 1324 518 1310 q 553 1354 518 1350 q 717 1310 656 1354 q 810 1194 779 1267 q 853 1037 842 1122 q 864 868 864 951 q 824 560 864 719 q 710 265 783 401 q 535 50 636 131 q 314 -31 433 -31 m 611 1444 q 619 1519 601 1493 q 676 1569 638 1544 q 715 1601 700 1585 q 731 1657 731 1618 q 723 1701 731 1685 q 683 1718 715 1718 q 640 1707 654 1718 q 617 1685 625 1696 q 599 1674 608 1674 q 574 1703 574 1676 q 608 1755 574 1735 q 676 1775 643 1775 q 767 1746 743 1775 q 792 1660 792 1717 q 774 1592 792 1621 q 715 1529 756 1563 q 668 1492 685 1503 q 656 1450 651 1481 q 652 1427 658 1435 q 638 1419 646 1419 q 621 1425 628 1419 q 611 1444 614 1431 z "},"Ơ":{"ha":918,"x_min":67,"x_max":924,"o":"m 314 -31 q 67 410 67 -31 q 87 647 67 529 q 144 871 107 765 q 235 1058 182 976 q 357 1187 289 1140 q 504 1233 425 1233 q 650 1178 585 1233 q 665 1130 679 1149 q 608 1131 651 1111 q 483 1165 547 1165 q 380 1128 428 1165 q 292 1028 332 1090 q 223 888 253 965 q 172 728 193 810 q 140 571 150 646 q 129 439 129 496 q 176 133 129 233 q 326 33 224 33 q 483 86 411 33 q 610 226 554 139 q 705 419 665 314 q 767 631 744 525 q 795 818 786 719 q 794 1012 804 917 q 746 1183 783 1107 q 646 1278 706 1261 q 594 1290 625 1285 q 541 1302 564 1294 q 518 1324 518 1310 q 553 1354 518 1350 q 717 1310 656 1354 q 810 1194 779 1267 q 853 1037 842 1122 q 864 868 864 951 q 824 560 864 719 q 710 265 783 401 q 535 50 636 131 q 314 -31 433 -31 m 747 1285 q 834 1301 808 1285 q 860 1340 860 1318 q 856 1369 860 1354 q 835 1400 851 1385 q 805 1432 813 1421 q 797 1457 797 1443 q 825 1485 797 1485 q 854 1474 840 1485 q 886 1433 868 1464 q 913 1383 903 1407 q 924 1336 924 1358 q 881 1263 924 1293 q 747 1233 838 1233 l 747 1285 z "},"Ớ":{"ha":918,"x_min":67,"x_max":924,"o":"m 314 -31 q 67 410 67 -31 q 87 647 67 529 q 144 871 107 765 q 235 1058 182 976 q 357 1187 289 1140 q 504 1233 425 1233 q 650 1178 585 1233 q 665 1130 679 1149 q 608 1131 651 1111 q 483 1165 547 1165 q 380 1128 428 1165 q 292 1028 332 1090 q 223 888 253 965 q 172 728 193 810 q 140 571 150 646 q 129 439 129 496 q 176 133 129 233 q 326 33 224 33 q 483 86 411 33 q 610 226 554 139 q 705 419 665 314 q 767 631 744 525 q 795 818 786 719 q 794 1012 804 917 q 746 1183 783 1107 q 646 1278 706 1261 q 594 1290 625 1285 q 541 1302 564 1294 q 518 1324 518 1310 q 553 1354 518 1350 q 717 1310 656 1354 q 810 1194 779 1267 q 853 1037 842 1122 q 864 868 864 951 q 824 560 864 719 q 710 265 783 401 q 535 50 636 131 q 314 -31 433 -31 m 747 1285 q 834 1301 808 1285 q 860 1340 860 1318 q 856 1369 860 1354 q 835 1400 851 1385 q 805 1432 813 1421 q 797 1457 797 1443 q 825 1485 797 1485 q 854 1474 840 1485 q 886 1433 868 1464 q 913 1383 903 1407 q 924 1336 924 1358 q 881 1263 924 1293 q 747 1233 838 1233 l 747 1285 m 628 1431 q 596 1463 596 1431 q 611 1493 596 1471 q 643 1544 626 1513 q 675 1607 660 1575 q 691 1639 683 1622 q 706 1671 699 1656 q 722 1702 714 1686 q 736 1733 729 1718 q 771 1754 751 1754 q 796 1731 796 1754 q 786 1700 796 1718 q 774 1677 781 1690 q 760 1649 768 1664 q 719 1563 746 1617 q 658 1464 693 1508 q 647 1440 657 1450 q 628 1431 636 1431 z "},"Ợ":{"ha":918,"x_min":67,"x_max":924,"o":"m 314 -31 q 67 410 67 -31 q 87 647 67 529 q 144 871 107 765 q 235 1058 182 976 q 357 1187 289 1140 q 504 1233 425 1233 q 650 1178 585 1233 q 665 1130 679 1149 q 608 1131 651 1111 q 483 1165 547 1165 q 380 1128 428 1165 q 292 1028 332 1090 q 223 888 253 965 q 172 728 193 810 q 140 571 150 646 q 129 439 129 496 q 176 133 129 233 q 326 33 224 33 q 483 86 411 33 q 610 226 554 139 q 705 419 665 314 q 767 631 744 525 q 795 818 786 719 q 794 1012 804 917 q 746 1183 783 1107 q 646 1278 706 1261 q 594 1290 625 1285 q 541 1302 564 1294 q 518 1324 518 1310 q 553 1354 518 1350 q 717 1310 656 1354 q 810 1194 779 1267 q 853 1037 842 1122 q 864 868 864 951 q 824 560 864 719 q 710 265 783 401 q 535 50 636 131 q 314 -31 433 -31 m 747 1285 q 834 1301 808 1285 q 860 1340 860 1318 q 856 1369 860 1354 q 835 1400 851 1385 q 805 1432 813 1421 q 797 1457 797 1443 q 825 1485 797 1485 q 854 1474 840 1485 q 886 1433 868 1464 q 913 1383 903 1407 q 924 1336 924 1358 q 881 1263 924 1293 q 747 1233 838 1233 l 747 1285 m 331 -217 q 297 -211 308 -217 l 292 -211 q 251 -164 251 -211 q 272 -121 251 -140 q 315 -101 292 -101 q 360 -118 339 -101 q 383 -164 383 -142 q 367 -201 383 -186 q 331 -217 350 -217 z "},"Ờ":{"ha":918,"x_min":67,"x_max":924,"o":"m 314 -31 q 67 410 67 -31 q 87 647 67 529 q 144 871 107 765 q 235 1058 182 976 q 357 1187 289 1140 q 504 1233 425 1233 q 650 1178 585 1233 q 665 1130 679 1149 q 608 1131 651 1111 q 483 1165 547 1165 q 380 1128 428 1165 q 292 1028 332 1090 q 223 888 253 965 q 172 728 193 810 q 140 571 150 646 q 129 439 129 496 q 176 133 129 233 q 326 33 224 33 q 483 86 411 33 q 610 226 554 139 q 705 419 665 314 q 767 631 744 525 q 795 818 786 719 q 794 1012 804 917 q 746 1183 783 1107 q 646 1278 706 1261 q 594 1290 625 1285 q 541 1302 564 1294 q 518 1324 518 1310 q 553 1354 518 1350 q 717 1310 656 1354 q 810 1194 779 1267 q 853 1037 842 1122 q 864 868 864 951 q 824 560 864 719 q 710 265 783 401 q 535 50 636 131 q 314 -31 433 -31 m 747 1285 q 834 1301 808 1285 q 860 1340 860 1318 q 856 1369 860 1354 q 835 1400 851 1385 q 805 1432 813 1421 q 797 1457 797 1443 q 825 1485 797 1485 q 854 1474 840 1485 q 886 1433 868 1464 q 913 1383 903 1407 q 924 1336 924 1358 q 881 1263 924 1293 q 747 1233 838 1233 l 747 1285 m 703 1431 q 679 1440 689 1431 q 598 1560 624 1514 q 558 1653 572 1606 q 570 1683 558 1671 q 594 1696 582 1696 q 622 1672 615 1696 q 656 1595 633 1633 q 732 1488 678 1557 q 736 1479 735 1483 q 738 1468 738 1475 q 726 1442 738 1454 q 703 1431 715 1431 z "},"Ở":{"ha":918,"x_min":67,"x_max":924,"o":"m 314 -31 q 67 410 67 -31 q 87 647 67 529 q 144 871 107 765 q 235 1058 182 976 q 357 1187 289 1140 q 504 1233 425 1233 q 650 1178 585 1233 q 665 1130 679 1149 q 608 1131 651 1111 q 483 1165 547 1165 q 380 1128 428 1165 q 292 1028 332 1090 q 223 888 253 965 q 172 728 193 810 q 140 571 150 646 q 129 439 129 496 q 176 133 129 233 q 326 33 224 33 q 483 86 411 33 q 610 226 554 139 q 705 419 665 314 q 767 631 744 525 q 795 818 786 719 q 794 1012 804 917 q 746 1183 783 1107 q 646 1278 706 1261 q 594 1290 625 1285 q 541 1302 564 1294 q 518 1324 518 1310 q 553 1354 518 1350 q 717 1310 656 1354 q 810 1194 779 1267 q 853 1037 842 1122 q 864 868 864 951 q 824 560 864 719 q 710 265 783 401 q 535 50 636 131 q 314 -31 433 -31 m 747 1285 q 834 1301 808 1285 q 860 1340 860 1318 q 856 1369 860 1354 q 835 1400 851 1385 q 805 1432 813 1421 q 797 1457 797 1443 q 825 1485 797 1485 q 854 1474 840 1485 q 886 1433 868 1464 q 913 1383 903 1407 q 924 1336 924 1358 q 881 1263 924 1293 q 747 1233 838 1233 l 747 1285 m 611 1444 q 619 1519 601 1493 q 676 1569 638 1544 q 715 1601 700 1585 q 731 1657 731 1618 q 723 1701 731 1685 q 683 1718 715 1718 q 640 1707 654 1718 q 617 1685 625 1696 q 599 1674 608 1674 q 574 1703 574 1676 q 608 1755 574 1735 q 676 1775 643 1775 q 767 1746 743 1775 q 792 1660 792 1717 q 774 1592 792 1621 q 715 1529 756 1563 q 668 1492 685 1503 q 656 1450 651 1481 q 652 1427 658 1435 q 638 1419 646 1419 q 621 1425 628 1419 q 611 1444 614 1431 z "},"Ỡ":{"ha":918,"x_min":67,"x_max":924,"o":"m 314 -31 q 67 410 67 -31 q 87 647 67 529 q 144 871 107 765 q 235 1058 182 976 q 357 1187 289 1140 q 504 1233 425 1233 q 650 1178 585 1233 q 665 1130 679 1149 q 608 1131 651 1111 q 483 1165 547 1165 q 380 1128 428 1165 q 292 1028 332 1090 q 223 888 253 965 q 172 728 193 810 q 140 571 150 646 q 129 439 129 496 q 176 133 129 233 q 326 33 224 33 q 483 86 411 33 q 610 226 554 139 q 705 419 665 314 q 767 631 744 525 q 795 818 786 719 q 794 1012 804 917 q 746 1183 783 1107 q 646 1278 706 1261 q 594 1290 625 1285 q 541 1302 564 1294 q 518 1324 518 1310 q 553 1354 518 1350 q 717 1310 656 1354 q 810 1194 779 1267 q 853 1037 842 1122 q 864 868 864 951 q 824 560 864 719 q 710 265 783 401 q 535 50 636 131 q 314 -31 433 -31 m 747 1285 q 834 1301 808 1285 q 860 1340 860 1318 q 856 1369 860 1354 q 835 1400 851 1385 q 805 1432 813 1421 q 797 1457 797 1443 q 825 1485 797 1485 q 854 1474 840 1485 q 886 1433 868 1464 q 913 1383 903 1407 q 924 1336 924 1358 q 881 1263 924 1293 q 747 1233 838 1233 l 747 1285 m 672 1479 q 619 1492 642 1479 q 578 1519 597 1504 q 540 1546 558 1533 q 506 1558 521 1558 q 449 1508 472 1558 q 417 1492 436 1492 q 392 1515 392 1492 q 392 1523 392 1519 q 394 1531 393 1526 q 500 1625 443 1625 q 575 1599 529 1625 q 644 1560 619 1572 q 694 1549 668 1549 q 721 1554 721 1549 l 721 1563 l 714 1600 q 726 1631 714 1618 q 753 1643 739 1643 q 781 1578 781 1643 q 722 1488 781 1511 q 672 1479 701 1479 z "},"Ő":{"ha":918,"x_min":67,"x_max":864,"o":"m 485 1385 q 463 1418 456 1390 q 483 1440 465 1428 q 543 1492 514 1460 q 594 1550 572 1524 q 631 1561 614 1565 q 647 1535 651 1556 q 642 1525 646 1531 q 632 1513 639 1519 q 600 1476 617 1497 q 559 1432 582 1454 q 517 1396 536 1410 q 485 1385 497 1382 m 643 1385 q 625 1419 614 1396 q 633 1430 628 1425 q 647 1440 638 1435 q 712 1485 679 1456 q 768 1540 744 1515 q 804 1547 788 1553 q 819 1521 826 1540 q 801 1500 818 1514 q 785 1485 794 1494 q 765 1467 776 1476 q 721 1426 744 1447 q 676 1393 697 1406 q 643 1385 656 1381 m 314 -31 q 67 410 67 -31 q 87 647 67 529 q 144 871 107 765 q 235 1058 182 976 q 357 1187 289 1140 q 504 1233 425 1233 q 650 1178 585 1233 q 665 1130 679 1149 q 608 1131 651 1111 q 483 1165 547 1165 q 380 1128 428 1165 q 292 1028 332 1090 q 223 888 253 965 q 172 728 193 810 q 140 571 150 646 q 129 439 129 496 q 176 133 129 233 q 326 33 224 33 q 483 86 411 33 q 610 226 554 139 q 705 419 665 314 q 767 631 744 525 q 795 818 786 719 q 794 1012 804 917 q 746 1183 783 1107 q 646 1278 706 1261 q 594 1290 625 1285 q 541 1302 564 1294 q 518 1324 518 1310 q 553 1354 518 1350 q 717 1310 656 1354 q 810 1194 779 1267 q 853 1037 842 1122 q 864 868 864 951 q 824 560 864 719 q 710 265 783 401 q 535 50 636 131 q 314 -31 433 -31 z "},"Ȏ":{"ha":918,"x_min":67,"x_max":867,"o":"m 314 -31 q 67 410 67 -31 q 87 647 67 529 q 144 871 107 765 q 235 1058 182 976 q 357 1187 289 1140 q 504 1233 425 1233 q 650 1178 585 1233 q 665 1130 679 1149 q 608 1131 651 1111 q 483 1165 547 1165 q 380 1128 428 1165 q 292 1028 332 1090 q 223 888 253 965 q 172 728 193 810 q 140 571 150 646 q 129 439 129 496 q 176 133 129 233 q 326 33 224 33 q 483 86 411 33 q 610 226 554 139 q 705 419 665 314 q 767 631 744 525 q 795 818 786 719 q 794 1012 804 917 q 746 1183 783 1107 q 646 1278 706 1261 q 594 1290 625 1285 q 541 1302 564 1294 q 518 1324 518 1310 q 553 1354 518 1350 q 717 1310 656 1354 q 810 1194 779 1267 q 853 1037 842 1122 q 864 868 864 951 q 824 560 864 719 q 710 265 783 401 q 535 50 636 131 q 314 -31 433 -31 m 729 1718 q 831 1663 794 1718 q 867 1521 867 1607 q 856 1490 867 1503 q 835 1478 846 1478 q 818 1492 824 1478 q 814 1517 817 1499 q 807 1567 811 1536 q 738 1656 796 1656 q 619 1605 668 1656 q 524 1476 569 1554 q 501 1465 514 1465 q 483 1489 483 1465 q 488 1508 483 1501 q 602 1659 540 1600 q 729 1718 664 1718 z "},"Ō":{"ha":918,"x_min":67,"x_max":886,"o":"m 314 -31 q 67 410 67 -31 q 87 647 67 529 q 144 871 107 765 q 235 1058 182 976 q 357 1187 289 1140 q 504 1233 425 1233 q 650 1178 585 1233 q 665 1130 679 1149 q 608 1131 651 1111 q 483 1165 547 1165 q 380 1128 428 1165 q 292 1028 332 1090 q 223 888 253 965 q 172 728 193 810 q 140 571 150 646 q 129 439 129 496 q 176 133 129 233 q 326 33 224 33 q 483 86 411 33 q 610 226 554 139 q 705 419 665 314 q 767 631 744 525 q 795 818 786 719 q 794 1012 804 917 q 746 1183 783 1107 q 646 1278 706 1261 q 594 1290 625 1285 q 541 1302 564 1294 q 518 1324 518 1310 q 553 1354 518 1350 q 717 1310 656 1354 q 810 1194 779 1267 q 853 1037 842 1122 q 864 868 864 951 q 824 560 864 719 q 710 265 783 401 q 535 50 636 131 q 314 -31 433 -31 m 599 1490 q 535 1501 560 1493 q 511 1532 511 1510 q 523 1559 511 1550 q 551 1565 535 1568 q 632 1557 597 1560 q 699 1553 667 1554 q 769 1554 731 1553 q 864 1560 808 1556 q 886 1535 886 1551 q 849 1496 886 1507 q 799 1490 833 1492 q 724 1489 764 1489 q 649 1490 683 1489 q 599 1490 615 1490 z "},"Ǫ":{"ha":918,"x_min":67,"x_max":864,"o":"m 314 -31 q 67 410 67 -31 q 87 647 67 529 q 144 871 107 765 q 235 1058 182 976 q 357 1187 289 1140 q 504 1233 425 1233 q 650 1178 585 1233 q 665 1130 679 1149 q 608 1131 651 1111 q 483 1165 547 1165 q 380 1128 428 1165 q 292 1028 332 1090 q 223 888 253 965 q 172 728 193 810 q 140 571 150 646 q 129 439 129 496 q 176 133 129 233 q 326 33 224 33 q 483 86 411 33 q 610 226 554 139 q 705 419 665 314 q 767 631 744 525 q 795 818 786 719 q 794 1012 804 917 q 746 1183 783 1107 q 646 1278 706 1261 q 594 1290 625 1285 q 541 1302 564 1294 q 518 1324 518 1310 q 553 1354 518 1350 q 717 1310 656 1354 q 810 1194 779 1267 q 853 1037 842 1122 q 864 868 864 951 q 824 560 864 719 q 710 265 783 401 q 535 50 636 131 q 314 -31 433 -31 m 510 54 q 481 -32 517 0 q 383 -93 444 -64 q 325 -133 343 -112 q 307 -193 307 -154 q 317 -227 307 -215 q 351 -239 326 -239 q 389 -234 372 -239 q 429 -210 406 -229 q 471 -185 461 -185 q 496 -214 496 -185 q 480 -247 496 -228 q 436 -282 464 -267 q 351 -303 393 -303 q 271 -271 296 -303 q 246 -196 246 -239 q 265 -115 246 -151 q 344 -47 285 -78 q 413 -15 386 -26 q 454 11 440 -3 q 465 49 468 25 q 485 82 461 82 q 510 54 506 82 z "},"Ø":{"ha":900,"x_min":42,"x_max":856,"o":"m 114 -75 q 92 -58 92 -75 q 93 -51 92 -54 q 103 -29 94 -47 q 133 36 113 -11 q 42 424 42 140 q 62 653 42 538 q 119 872 82 768 q 210 1058 157 976 q 332 1186 264 1139 q 479 1233 400 1233 q 539 1224 513 1233 q 588 1194 565 1214 q 607 1156 611 1176 q 589 1133 603 1136 q 568 1135 576 1132 q 546 1147 560 1139 q 508 1165 525 1161 q 464 1169 490 1169 q 351 1119 408 1169 q 244 979 294 1068 q 160 776 194 890 q 110 439 110 606 q 167 111 110 213 q 544 924 406 643 q 690 1229 683 1204 q 634 1273 668 1260 q 567 1291 600 1286 q 513 1303 533 1296 q 493 1324 493 1311 q 528 1354 493 1350 q 707 1297 638 1354 q 734 1387 721 1354 q 772 1421 747 1419 q 793 1410 790 1422 q 789 1375 796 1397 l 753 1250 q 833 1060 810 1168 q 849 830 856 951 q 809 586 842 708 q 724 353 776 464 q 603 156 672 243 q 455 19 535 69 q 289 -31 375 -31 q 171 3 221 -31 l 144 -56 q 114 -75 133 -75 m 293 33 q 431 74 365 33 q 551 188 496 115 q 647 351 606 260 q 724 567 693 454 q 767 792 756 681 q 769 1002 779 903 q 722 1178 758 1101 q 668 1065 689 1107 q 634 999 647 1024 q 611 956 621 974 q 590 918 601 939 q 563 863 579 897 q 519 772 546 829 q 450 622 492 714 q 347 394 408 529 q 200 67 286 258 q 293 33 238 33 z "},"Ǿ":{"ha":900,"x_min":42,"x_max":856,"o":"m 114 -75 q 92 -58 92 -75 q 93 -51 92 -54 q 103 -29 94 -47 q 133 36 113 -11 q 42 424 42 140 q 62 653 42 538 q 119 872 82 768 q 210 1058 157 976 q 332 1186 264 1139 q 479 1233 400 1233 q 539 1224 513 1233 q 588 1194 565 1214 q 607 1156 611 1176 q 589 1133 603 1136 q 568 1135 576 1132 q 546 1147 560 1139 q 508 1165 525 1161 q 464 1169 490 1169 q 351 1119 408 1169 q 244 979 294 1068 q 160 776 194 890 q 110 439 110 606 q 167 111 110 213 q 544 924 406 643 q 690 1229 683 1204 q 634 1273 668 1260 q 567 1291 600 1286 q 513 1303 533 1296 q 493 1324 493 1311 q 528 1354 493 1350 q 707 1297 638 1354 q 734 1387 721 1354 q 772 1421 747 1419 q 793 1410 790 1422 q 789 1375 796 1397 l 753 1250 q 833 1060 810 1168 q 849 830 856 951 q 809 586 842 708 q 724 353 776 464 q 603 156 672 243 q 455 19 535 69 q 289 -31 375 -31 q 171 3 221 -31 l 144 -56 q 114 -75 133 -75 m 293 33 q 431 74 365 33 q 551 188 496 115 q 647 351 606 260 q 724 567 693 454 q 767 792 756 681 q 769 1002 779 903 q 722 1178 758 1101 q 668 1065 689 1107 q 634 999 647 1024 q 611 956 621 974 q 590 918 601 939 q 563 863 579 897 q 519 772 546 829 q 450 622 492 714 q 347 394 408 529 q 200 67 286 258 q 293 33 238 33 m 596 1431 q 564 1463 564 1431 q 579 1493 564 1471 q 611 1544 594 1513 q 643 1607 628 1575 q 659 1639 651 1622 q 674 1671 667 1656 q 690 1702 682 1686 q 704 1733 697 1718 q 739 1754 719 1754 q 764 1731 764 1754 q 754 1700 764 1718 q 742 1677 749 1690 q 728 1649 736 1664 q 688 1563 714 1617 q 626 1464 661 1508 q 615 1440 625 1450 q 596 1431 604 1431 z "},"Õ":{"ha":918,"x_min":67,"x_max":864,"o":"m 314 -31 q 67 410 67 -31 q 87 647 67 529 q 144 871 107 765 q 235 1058 182 976 q 357 1187 289 1140 q 504 1233 425 1233 q 650 1178 585 1233 q 665 1130 679 1149 q 608 1131 651 1111 q 483 1165 547 1165 q 380 1128 428 1165 q 292 1028 332 1090 q 223 888 253 965 q 172 728 193 810 q 140 571 150 646 q 129 439 129 496 q 176 133 129 233 q 326 33 224 33 q 483 86 411 33 q 610 226 554 139 q 705 419 665 314 q 767 631 744 525 q 795 818 786 719 q 794 1012 804 917 q 746 1183 783 1107 q 646 1278 706 1261 q 594 1290 625 1285 q 541 1302 564 1294 q 518 1324 518 1310 q 553 1354 518 1350 q 717 1310 656 1354 q 810 1194 779 1267 q 853 1037 842 1122 q 864 868 864 951 q 824 560 864 719 q 710 265 783 401 q 535 50 636 131 q 314 -31 433 -31 m 756 1479 q 703 1492 725 1479 q 661 1519 681 1504 q 623 1546 642 1533 q 589 1558 604 1558 q 532 1508 556 1558 q 500 1492 519 1492 q 475 1515 475 1492 q 476 1523 475 1519 q 478 1531 476 1526 q 583 1625 526 1625 q 658 1599 613 1625 q 727 1560 703 1572 q 778 1549 751 1549 q 804 1554 804 1549 l 804 1563 l 797 1600 q 810 1631 797 1618 q 836 1643 822 1643 q 864 1578 864 1643 q 806 1488 864 1511 q 756 1479 785 1479 z "},"Ȭ":{"ha":918,"x_min":67,"x_max":886,"o":"m 314 -31 q 67 410 67 -31 q 87 647 67 529 q 144 871 107 765 q 235 1058 182 976 q 357 1187 289 1140 q 504 1233 425 1233 q 650 1178 585 1233 q 665 1130 679 1149 q 608 1131 651 1111 q 483 1165 547 1165 q 380 1128 428 1165 q 292 1028 332 1090 q 223 888 253 965 q 172 728 193 810 q 140 571 150 646 q 129 439 129 496 q 176 133 129 233 q 326 33 224 33 q 483 86 411 33 q 610 226 554 139 q 705 419 665 314 q 767 631 744 525 q 795 818 786 719 q 794 1012 804 917 q 746 1183 783 1107 q 646 1278 706 1261 q 594 1290 625 1285 q 541 1302 564 1294 q 518 1324 518 1310 q 553 1354 518 1350 q 717 1310 656 1354 q 810 1194 779 1267 q 853 1037 842 1122 q 864 868 864 951 q 824 560 864 719 q 710 265 783 401 q 535 50 636 131 q 314 -31 433 -31 m 756 1479 q 703 1492 725 1479 q 661 1519 681 1504 q 623 1546 642 1533 q 589 1558 604 1558 q 532 1508 556 1558 q 500 1492 519 1492 q 475 1515 475 1492 q 476 1523 475 1519 q 478 1531 476 1526 q 583 1625 526 1625 q 658 1599 613 1625 q 727 1560 703 1572 q 778 1549 751 1549 q 804 1554 804 1549 l 804 1563 l 797 1600 q 810 1631 797 1618 q 836 1643 822 1643 q 864 1578 864 1643 q 806 1488 864 1511 q 756 1479 785 1479 m 599 1731 q 535 1742 560 1733 q 511 1772 511 1750 q 523 1799 511 1790 q 551 1806 535 1808 q 632 1797 597 1800 q 699 1794 667 1794 q 769 1794 731 1793 q 864 1800 808 1796 q 886 1775 886 1792 q 849 1736 886 1747 q 799 1731 833 1732 q 724 1729 764 1729 q 649 1730 683 1729 q 599 1731 615 1731 z "},"Œ":{"ha":1413,"x_min":42,"x_max":1494,"o":"m 289 -31 q 42 410 42 -31 q 62 647 42 529 q 119 871 82 765 q 210 1058 157 976 q 332 1187 264 1140 q 479 1233 400 1233 q 625 1178 557 1233 q 638 1150 638 1165 q 615 1117 638 1117 q 605 1121 613 1117 q 583 1131 597 1125 q 458 1165 522 1165 q 347 1115 403 1165 q 243 978 292 1065 q 160 776 194 890 q 110 439 110 606 q 289 33 110 33 q 443 82 372 33 q 572 216 514 131 q 674 413 631 301 q 743 649 717 524 q 766 793 758 722 q 774 933 774 864 q 721 1183 774 1071 q 619 1278 681 1261 q 590 1285 604 1282 q 561 1292 575 1289 q 535 1297 547 1294 q 513 1303 522 1300 q 493 1324 493 1311 q 528 1354 493 1350 q 836 968 808 1354 q 865 1092 851 1038 q 889 1190 879 1147 l 894 1214 q 872 1242 872 1215 q 913 1288 872 1267 l 913 1290 q 925 1318 913 1304 q 954 1331 942 1331 q 978 1310 976 1331 q 1149 1335 1046 1326 q 1389 1344 1251 1344 l 1426 1344 q 1494 1321 1494 1344 q 1485 1295 1494 1307 q 1461 1279 1475 1283 l 1368 1279 q 968 1243 1079 1279 q 953 1197 960 1222 q 940 1139 947 1171 q 923 1063 933 1108 q 899 957 913 1018 q 871 838 885 897 q 843 719 857 779 q 887 716 863 718 q 940 714 911 714 l 1026 714 q 1160 715 1108 714 q 1235 717 1213 715 q 1258 694 1258 710 q 1231 657 1258 668 q 1143 649 1204 649 l 1026 650 l 1004 650 q 892 651 936 650 q 829 656 849 653 q 797 503 810 567 q 778 401 783 439 q 761 291 771 351 q 736 172 751 231 q 696 63 721 113 l 1232 51 q 1290 52 1267 51 q 1328 54 1314 53 q 1351 31 1351 47 q 1325 -5 1351 3 q 1250 -12 1299 -12 l 1240 -12 q 939 -4 1138 -12 q 781 1 842 -1 q 701 3 721 3 l 654 -1 q 623 8 631 -1 q 615 28 615 18 q 619 43 615 38 q 693 283 658 103 q 408 -7 574 60 q 289 -31 350 -31 z "},"P":{"ha":779,"x_min":64,"x_max":751,"o":"m 99 -7 q 74 22 78 -7 q 97 149 82 75 q 130 302 113 224 q 161 447 147 381 q 182 549 175 513 q 64 617 64 586 q 76 642 64 633 q 100 650 88 650 q 136 642 114 650 q 177 627 158 635 q 196 618 196 619 l 335 1269 q 244 1199 274 1251 q 213 1182 232 1182 q 188 1206 188 1182 q 207 1249 188 1222 q 264 1301 226 1275 q 356 1336 301 1326 q 390 1364 371 1364 q 414 1343 410 1364 q 590 1298 514 1343 q 709 1177 667 1253 q 751 1008 751 1101 q 715 789 751 879 q 620 641 679 699 q 492 556 561 583 q 357 524 424 528 q 240 533 290 519 q 228 469 238 517 q 204 357 218 421 q 176 227 190 293 q 152 108 163 161 q 138 32 142 56 q 122 4 135 15 q 99 -7 110 -7 m 254 597 q 369 590 308 585 q 490 624 431 596 q 596 704 549 651 q 693 975 693 815 q 658 1128 693 1058 q 556 1239 622 1197 q 400 1281 490 1281 l 254 597 z "},"Þ":{"ha":872,"x_min":32,"x_max":897,"o":"m 49 -24 q 32 -6 32 -24 l 32 -1 q 33 4 32 1 l 344 1499 q 349 1519 347 1510 q 350 1536 350 1529 q 365 1565 350 1553 q 396 1578 381 1578 q 421 1556 421 1578 q 419 1543 421 1546 l 415 1528 q 408 1458 415 1496 q 391 1384 400 1419 q 375 1324 382 1349 q 358 1246 364 1285 q 583 1353 482 1353 q 723 1323 667 1353 q 814 1244 779 1293 q 867 1136 849 1194 q 891 1020 885 1078 q 897 915 897 963 q 807 558 897 688 q 547 378 717 429 q 165 333 399 333 l 96 14 q 76 -13 90 -3 q 49 -24 61 -24 m 178 396 q 481 421 383 396 q 638 479 578 444 q 836 903 836 590 q 707 1257 836 1181 q 578 1288 657 1288 q 396 1222 497 1288 q 346 1181 367 1203 l 178 396 z "},"Q":{"ha":925,"x_min":71,"x_max":1607,"o":"m 1072 -500 q 778 -450 924 -500 q 490 -287 633 -400 q 200 11 346 -175 q 126 113 154 50 q 84 249 97 175 q 71 393 71 322 q 92 678 71 542 q 156 926 113 814 q 265 1115 200 1039 q 549 1250 382 1250 q 597 1246 572 1250 q 640 1233 622 1242 q 657 1211 657 1225 q 645 1191 657 1201 q 619 1181 633 1181 q 592 1185 611 1181 q 554 1195 572 1190 q 529 1200 536 1200 q 317 1079 408 1200 q 150 596 188 913 q 140 459 143 535 q 142 308 136 383 q 169 171 149 233 q 233 70 190 108 q 346 32 276 32 q 549 133 447 32 q 811 671 743 329 q 833 823 826 739 q 832 992 839 907 q 799 1147 825 1076 q 726 1261 774 1218 q 601 1304 678 1304 q 549 1301 575 1304 q 500 1290 524 1297 q 472 1314 472 1294 q 601 1367 472 1367 q 720 1332 665 1367 q 815 1241 775 1297 q 878 1118 856 1185 q 901 986 901 1051 q 872 653 901 815 q 783 354 842 492 q 636 117 724 217 q 525 21 581 53 q 422 -21 469 -11 q 342 -28 374 -31 q 301 -24 310 -26 q 680 -334 486 -232 q 1079 -436 874 -436 q 1313 -417 1192 -436 q 1574 -372 1435 -399 q 1607 -393 1607 -372 q 1598 -417 1607 -404 q 1574 -435 1589 -429 q 1305 -481 1431 -461 q 1072 -500 1179 -500 z "},"R":{"ha":704,"x_min":40,"x_max":747,"o":"m 543 -51 q 388 39 456 -51 q 294 288 319 129 q 261 633 261 440 q 285 675 261 675 q 325 663 296 675 q 382 650 354 650 q 491 680 435 650 q 589 760 547 710 q 675 1013 675 867 q 650 1150 675 1089 q 580 1248 625 1211 q 475 1285 535 1285 q 367 1274 407 1285 l 111 21 q 72 -3 103 -3 q 40 19 40 -3 q 50 68 40 19 q 77 200 60 117 q 117 389 94 283 q 163 611 139 494 q 213 844 188 728 q 260 1063 238 960 q 299 1242 282 1165 q 249 1213 265 1231 q 222 1183 233 1196 q 189 1171 211 1169 q 171 1199 171 1179 q 215 1269 171 1238 q 325 1318 258 1301 q 349 1363 336 1350 q 371 1376 361 1376 q 383 1365 378 1376 q 376 1331 388 1353 q 562 1313 482 1346 q 687 1202 642 1279 q 732 1006 732 1125 q 684 790 732 886 q 547 640 636 694 q 329 585 457 585 q 344 363 329 467 q 389 179 360 258 q 462 56 418 100 q 561 11 506 11 q 640 26 610 11 q 701 58 671 40 q 724 67 711 74 q 742 43 738 60 q 732 11 747 26 q 649 -35 693 -18 q 543 -51 606 -51 z "},"Ŕ":{"ha":704,"x_min":40,"x_max":747,"o":"m 543 -51 q 388 39 456 -51 q 294 288 319 129 q 261 633 261 440 q 285 675 261 675 q 325 663 296 675 q 382 650 354 650 q 491 680 435 650 q 589 760 547 710 q 675 1013 675 867 q 650 1150 675 1089 q 580 1248 625 1211 q 475 1285 535 1285 q 367 1274 407 1285 l 111 21 q 72 -3 103 -3 q 40 19 40 -3 q 50 68 40 19 q 77 200 60 117 q 117 389 94 283 q 163 611 139 494 q 213 844 188 728 q 260 1063 238 960 q 299 1242 282 1165 q 249 1213 265 1231 q 222 1183 233 1196 q 189 1171 211 1169 q 171 1199 171 1179 q 215 1269 171 1238 q 325 1318 258 1301 q 349 1363 336 1350 q 371 1376 361 1376 q 383 1365 378 1376 q 376 1331 388 1353 q 562 1313 482 1346 q 687 1202 642 1279 q 732 1006 732 1125 q 684 790 732 886 q 547 640 636 694 q 329 585 457 585 q 344 363 329 467 q 389 179 360 258 q 462 56 418 100 q 561 11 506 11 q 640 26 610 11 q 701 58 671 40 q 724 67 711 74 q 742 43 738 60 q 732 11 747 26 q 649 -35 693 -18 q 543 -51 606 -51 m 417 1431 q 385 1463 385 1431 q 400 1493 385 1471 q 432 1544 415 1513 q 464 1607 449 1575 q 480 1639 472 1622 q 494 1671 488 1656 q 510 1702 503 1686 q 525 1733 518 1718 q 560 1754 540 1754 q 585 1731 585 1754 q 575 1700 585 1718 q 563 1677 569 1690 q 549 1649 557 1664 q 508 1563 535 1617 q 447 1464 482 1508 q 435 1440 446 1450 q 417 1431 425 1431 z "}}}
